<svg width="270" height="141" viewBox="0 0 270 141" fill="none" xmlns="http://www.w3.org/2000/svg">
<g clip-path="url(#clip0_3870_14626)">
<rect y="0.330078" width="270" height="140" rx="8" fill="white"/>
<g clip-path="url(#clip1_3870_14626)">
<rect x="55" y="24.8999" width="160.094" height="16.546" fill="white"/>
<rect x="55" y="44" width="160" height="109" fill="#F8F9FA"/>
<g filter="url(#filter0_d_3870_14626)">
<rect x="65.7271" y="52.1799" width="138.629" height="101.065" fill="white"/>
</g>
<g clip-path="url(#clip2_3870_14626)">
<rect x="77.804" y="102.265" width="114.481" height="3.8807" rx="1.94035" fill="#D9D9D9"/>
<rect x="77.804" y="110.026" width="72.7631" height="3.8807" rx="1.94035" fill="#D9D9D9"/>
<rect x="77.804" y="117.787" width="90.2263" height="3.8807" rx="1.94035" fill="#D9D9D9"/>
<rect x="77.804" y="125.549" width="101.868" height="3.8807" rx="1.94035" fill="#D9D9D9"/>
<rect x="77.804" y="133.31" width="107.326" height="4.02471" rx="2.01235" fill="#D9D9D9"/>
</g>
<path d="M78.9058 73.2288V63.2117H83.1416C85.0735 63.2117 86.5617 63.9272 86.5617 65.7446C86.5617 66.9896 85.6459 67.6621 84.6156 67.934C85.9321 68.2059 86.8622 69.0216 86.8622 70.3524C86.8622 72.4846 84.959 73.2288 82.9413 73.2288H78.9058ZM80.7518 71.6403H83.0128C84.315 71.6403 84.9304 71.1395 84.9304 70.2093C84.9304 69.2076 84.315 68.7926 83.0128 68.7926H80.7518V71.6403ZM80.7518 67.2471H82.9127C84.1147 67.2471 84.6299 66.7749 84.6299 65.9735C84.6299 65.2294 84.1147 64.8001 82.9127 64.8001H80.7518V67.2471ZM88.2778 73.2288V66.2454H90.0236V66.7749C90.0236 67.0325 90.0093 67.2471 89.9664 67.5047C90.3385 66.7177 90.9681 66.0165 92.0127 66.0165C92.1559 66.0165 92.2703 66.0308 92.3848 66.0594V67.748C92.2703 67.7194 92.1129 67.6908 91.884 67.6908C90.8107 67.6908 90.0236 68.2345 90.0236 69.7657V73.2288H88.2778ZM95.383 73.4863C94.1666 73.4863 92.9789 72.685 92.9789 71.3112C92.9789 69.7371 94.1953 69.1933 95.6978 68.993L96.6995 68.8642C97.2719 68.7926 97.4723 68.578 97.4723 68.2345C97.4723 67.748 97.0716 67.3187 96.3275 67.3187C95.5118 67.3187 94.9966 67.7766 94.9251 68.5064H93.122C93.2365 67.0468 94.4242 66.0165 96.2273 66.0165C98.3595 66.0165 99.2181 67.1613 99.2181 69.1218V73.2288H97.6011V72.9426C97.6011 72.7136 97.6297 72.4989 97.6726 72.27C97.3005 72.9569 96.585 73.4863 95.383 73.4863ZM94.7534 71.2397C94.7534 71.855 95.2399 72.1984 95.8552 72.1984C96.7854 72.1984 97.5295 71.5115 97.5295 70.5242V69.7657C97.3721 69.9088 97.1288 69.9804 96.6995 70.0662L96.1271 70.1807C95.3114 70.3381 94.7534 70.61 94.7534 71.2397ZM100.911 73.2288V66.2454H102.657V73.2288H100.911ZM100.882 65.1865V63.3548H102.7V65.1865H100.882ZM104.433 73.2288V66.2454H106.178V66.5603C106.178 66.7606 106.164 66.9753 106.121 67.2471C106.508 66.546 107.166 66.0165 108.268 66.0165C109.813 66.0165 110.729 67.104 110.729 68.8213V73.2288H108.983V69.0788C108.983 68.0485 108.482 67.4046 107.667 67.4046C106.808 67.4046 106.178 68.163 106.178 69.1361V73.2288H104.433ZM115.231 73.4863C113.256 73.4863 112.039 72.456 111.925 70.8247H113.699C113.742 71.6547 114.257 72.1841 115.188 72.1841C115.975 72.1841 116.475 71.8121 116.475 71.2826C116.475 70.8104 116.075 70.5957 115.331 70.4526L114.486 70.2809C113.027 69.9947 112.197 69.3078 112.197 68.1487C112.197 66.9323 113.342 66.0165 115.059 66.0165C116.933 66.0165 118.107 66.9896 118.15 68.4492H116.404C116.347 67.7623 115.846 67.3187 115.059 67.3187C114.415 67.3187 113.914 67.5763 113.914 68.0771C113.914 68.4921 114.186 68.7068 115.073 68.8785L115.917 69.0502C117.291 69.3221 118.193 69.9518 118.193 71.1824C118.193 72.5133 117.034 73.4863 115.231 73.4863ZM122.56 73.3576C121.072 73.3576 120.285 72.6134 120.285 71.0536V67.6335H118.697V66.2454H120.285V63.7269H122.031V66.2454H123.748V67.6335H122.031V70.796C122.031 71.5259 122.317 71.9552 123.061 71.9552C123.233 71.9552 123.419 71.9409 123.591 71.9122V73.2288C123.419 73.286 123.004 73.3576 122.56 73.3576ZM128.012 73.4863C125.909 73.4863 124.435 72.084 124.435 69.7657C124.435 67.4761 125.923 66.0165 128.012 66.0165C130.116 66.0165 131.604 67.4761 131.604 69.7657C131.604 72.084 130.116 73.4863 128.012 73.4863ZM126.209 69.7657C126.209 71.254 126.925 72.1126 128.012 72.1126C129.1 72.1126 129.83 71.254 129.83 69.7657C129.83 68.2489 129.086 67.4046 128.012 67.4046C126.953 67.4046 126.209 68.2489 126.209 69.7657ZM132.983 73.2288V66.2454H134.729V66.7749C134.729 67.0325 134.714 67.2471 134.671 67.5047C135.044 66.7177 135.673 66.0165 136.718 66.0165C136.861 66.0165 136.975 66.0308 137.09 66.0594V67.748C136.975 67.7194 136.818 67.6908 136.589 67.6908C135.516 67.6908 134.729 68.2345 134.729 69.7657V73.2288H132.983ZM138.167 73.2288V66.2454H139.913V66.5603C139.913 66.7749 139.899 67.0182 139.856 67.2471C140.199 66.6318 140.843 66.0165 141.874 66.0165C142.747 66.0165 143.448 66.6891 143.705 67.3187C144.106 66.6461 144.95 66.0165 145.966 66.0165C147.383 66.0165 148.371 67.1327 148.371 68.8356V73.2288H146.625V69.0931C146.625 68.0771 146.224 67.4046 145.466 67.4046C144.707 67.4046 144.135 68.1058 144.135 69.1647V73.2288H142.389V69.0931C142.389 68.0771 142.017 67.4046 141.23 67.4046C140.471 67.4046 139.913 68.0771 139.913 69.1647V73.2288H138.167ZM155.883 73.4863C153.908 73.4863 152.692 72.456 152.577 70.8247H154.352C154.395 71.6547 154.91 72.1841 155.84 72.1841C156.627 72.1841 157.128 71.8121 157.128 71.2826C157.128 70.8104 156.727 70.5957 155.983 70.4526L155.139 70.2809C153.679 69.9947 152.849 69.3078 152.849 68.1487C152.849 66.9323 153.994 66.0165 155.711 66.0165C157.586 66.0165 158.759 66.9896 158.802 68.4492H157.056C156.999 67.7623 156.498 67.3187 155.711 67.3187C155.067 67.3187 154.566 67.5763 154.566 68.0771C154.566 68.4921 154.838 68.7068 155.725 68.8785L156.57 69.0502C157.944 69.3221 158.845 69.9518 158.845 71.1824C158.845 72.5133 157.686 73.4863 155.883 73.4863ZM163.41 73.4863C161.321 73.4863 159.847 72.1412 159.847 69.7228C159.847 67.519 161.321 66.0165 163.353 66.0165C165.485 66.0165 166.716 67.5047 166.716 69.78V70.1664H161.636C161.65 71.2683 162.351 72.1126 163.41 72.1126C164.168 72.1126 164.784 71.6833 164.898 70.9535H166.673C166.53 72.3845 165.299 73.4863 163.41 73.4863ZM161.621 68.9071H164.927C164.898 67.9626 164.283 67.3187 163.338 67.3187C162.394 67.3187 161.721 67.9913 161.621 68.9071ZM170.906 73.4863C168.931 73.4863 167.715 72.456 167.6 70.8247H169.375C169.417 71.6547 169.933 72.1841 170.863 72.1841C171.65 72.1841 172.151 71.8121 172.151 71.2826C172.151 70.8104 171.75 70.5957 171.006 70.4526L170.162 70.2809C168.702 69.9947 167.872 69.3078 167.872 68.1487C167.872 66.9323 169.017 66.0165 170.734 66.0165C172.609 66.0165 173.782 66.9896 173.825 68.4492H172.079C172.022 67.7623 171.521 67.3187 170.734 67.3187C170.09 67.3187 169.589 67.5763 169.589 68.0771C169.589 68.4921 169.861 68.7068 170.748 68.8785L171.593 69.0502C172.966 69.3221 173.868 69.9518 173.868 71.1824C173.868 72.5133 172.709 73.4863 170.906 73.4863ZM175.27 73.2288V63.2117H177.016V66.5603C177.016 66.7606 177.002 66.9753 176.959 67.2471C177.345 66.546 178.003 66.0165 179.105 66.0165C180.651 66.0165 181.567 67.104 181.567 68.8213V73.2288H179.821V69.0788C179.821 68.0485 179.32 67.4046 178.504 67.4046C177.646 67.4046 177.016 68.163 177.016 69.1361V73.2288H175.27ZM80.0363 90.2288L77.9041 83.2454H79.7072L80.9808 87.9821C81.038 88.2397 81.0953 88.5259 81.1382 88.855C81.2098 88.5259 81.267 88.2397 81.3385 87.9821L82.4834 83.2454H84.8016L85.9607 87.9821C86.0179 88.254 86.0895 88.5259 86.1324 88.8836C86.204 88.5259 86.2612 88.254 86.3328 87.9821L87.5921 83.2454H89.2663L87.2057 90.2288H85.0449L83.8285 85.4635C83.7856 85.2489 83.714 84.9483 83.6711 84.5906C83.6282 84.9483 83.5566 85.2345 83.4851 85.4635L82.283 90.2288H80.0363ZM90.3041 90.2288V83.2454H92.05V90.2288H90.3041ZM90.2755 82.1865V80.3548H92.0929V82.1865H90.2755ZM96.9167 90.3576C95.4285 90.3576 94.6414 89.6134 94.6414 88.0536V84.6335H93.053V83.2454H94.6414V80.7269H96.3873V83.2454H98.1045V84.6335H96.3873V87.796C96.3873 88.5259 96.6735 88.9552 97.4176 88.9552C97.5893 88.9552 97.7754 88.9409 97.9471 88.9122V90.2288C97.7754 90.286 97.3604 90.3576 96.9167 90.3576ZM99.2759 90.2288V80.2117H101.022V83.5603C101.022 83.7606 101.007 83.9753 100.964 84.2471C101.351 83.546 102.009 83.0165 103.111 83.0165C104.656 83.0165 105.572 84.104 105.572 85.8213V90.2288H103.827V86.0788C103.827 85.0485 103.326 84.4046 102.51 84.4046C101.651 84.4046 101.022 85.163 101.022 86.1361V90.2288H99.2759ZM110.503 90.2288V80.2117H113.493L116.041 87.4526C116.155 87.796 116.241 88.0822 116.298 88.3684C116.37 88.0822 116.427 87.796 116.556 87.4526L119.003 80.2117H121.965V90.2288H120.162V83.4887C120.162 82.9735 120.162 82.487 120.191 82.0577L117.443 90.2288H115.153L112.248 82.0577C112.277 82.5013 112.291 82.9735 112.291 83.4887V90.2288H110.503ZM127.034 90.4863C124.945 90.4863 123.471 89.1412 123.471 86.7228C123.471 84.519 124.945 83.0165 126.977 83.0165C129.109 83.0165 130.34 84.5047 130.34 86.78V87.1664H125.259C125.274 88.2683 125.975 89.1126 127.034 89.1126C127.792 89.1126 128.408 88.6833 128.522 87.9535H130.297C130.153 89.3845 128.923 90.4863 127.034 90.4863ZM125.245 85.9071H128.551C128.522 84.9626 127.907 84.3187 126.962 84.3187C126.018 84.3187 125.345 84.9913 125.245 85.9071ZM131.739 90.2288V80.2117H133.485V90.2288H131.739ZM137.307 90.4863C136.091 90.4863 134.903 89.685 134.903 88.3112C134.903 86.7371 136.119 86.1933 137.622 85.993L138.624 85.8642C139.196 85.7926 139.396 85.578 139.396 85.2345C139.396 84.748 138.996 84.3187 138.252 84.3187C137.436 84.3187 136.921 84.7766 136.849 85.5064H135.046C135.161 84.0468 136.348 83.0165 138.151 83.0165C140.284 83.0165 141.142 84.1613 141.142 86.1218V90.2288H139.525V89.9426C139.525 89.7136 139.554 89.4989 139.597 89.27C139.225 89.9569 138.509 90.4863 137.307 90.4863ZM136.677 88.2397C136.677 88.855 137.164 89.1984 137.779 89.1984C138.709 89.1984 139.454 88.5115 139.454 87.5242V86.7657C139.296 86.9088 139.053 86.9804 138.624 87.0662L138.051 87.1807C137.236 87.3381 136.677 87.61 136.677 88.2397ZM142.835 90.2288V83.2454H144.581V83.5603C144.581 83.7606 144.567 83.9753 144.524 84.2471C144.91 83.546 145.568 83.0165 146.67 83.0165C148.216 83.0165 149.131 84.104 149.131 85.8213V90.2288H147.386V86.0788C147.386 85.0485 146.885 84.4046 146.069 84.4046C145.21 84.4046 144.581 85.163 144.581 86.1361V90.2288H142.835ZM150.843 90.2288V83.2454H152.588V90.2288H150.843ZM150.814 82.1865V80.3548H152.631V82.1865H150.814ZM157.527 90.4863C155.437 90.4863 153.963 89.1412 153.963 86.7228C153.963 84.519 155.437 83.0165 157.469 83.0165C159.602 83.0165 160.832 84.5047 160.832 86.78V87.1664H155.752C155.767 88.2683 156.468 89.1126 157.527 89.1126C158.285 89.1126 158.9 88.6833 159.015 87.9535H160.789C160.646 89.3845 159.416 90.4863 157.527 90.4863ZM155.738 85.9071H159.044C159.015 84.9626 158.4 84.3187 157.455 84.3187C156.511 84.3187 155.838 84.9913 155.738 85.9071Z" fill="black"/>
<rect x="62.2598" y="31.373" width="6.26066" height="8.04942" rx="0.89438" fill="#2684FC"/>
</g>
<rect x="55.5767" y="25.4766" width="159.178" height="126.947" rx="8.65099" stroke="#EFEFEF" stroke-width="1.15347"/>
</g>
<defs>
<filter id="filter0_d_3870_14626" x="63.9383" y="50.8384" width="142.206" height="104.642" filterUnits="userSpaceOnUse" color-interpolation-filters="sRGB">
<feFlood flood-opacity="0" result="BackgroundImageFix"/>
<feColorMatrix in="SourceAlpha" type="matrix" values="0 0 0 0 0 0 0 0 0 0 0 0 0 0 0 0 0 0 127 0" result="hardAlpha"/>
<feOffset dy="0.44719"/>
<feGaussianBlur stdDeviation="0.89438"/>
<feComposite in2="hardAlpha" operator="out"/>
<feColorMatrix type="matrix" values="0 0 0 0 0 0 0 0 0 0 0 0 0 0 0 0 0 0 0.1 0"/>
<feBlend mode="normal" in2="BackgroundImageFix" result="effect1_dropShadow_3870_14626"/>
<feBlend mode="normal" in="SourceGraphic" in2="effect1_dropShadow_3870_14626" result="shape"/>
</filter>
<clipPath id="clip0_3870_14626">
<rect y="0.330078" width="270" height="140" rx="8" fill="white"/>
</clipPath>
<clipPath id="clip1_3870_14626">
<rect x="55" y="24.8999" width="160.332" height="128.1" rx="9.22773" fill="white"/>
</clipPath>
<clipPath id="clip2_3870_14626">
<rect width="114.481" height="50.9797" fill="white" transform="translate(77.804 102.265)"/>
</clipPath>
</defs>
</svg>
