<svg xmlns="http://www.w3.org/2000/svg" width="270" height="141" fill="none" viewBox="0 0 270 141"><g clip-path="url(#a)"><rect width="270" height="140" y=".164" fill="#fff" rx="8"/><rect width="137.801" height="83.048" x="56.024" y="21.716" fill="#E9E9EB" rx="8"/><path fill="#000" d="M70.818 41.898c-1.905 0-3.343-1.379-3.343-3.63 0-2.213 1.438-3.642 3.343-3.642 1.915 0 3.364 1.449 3.364 3.641 0 2.252-1.459 3.631-3.364 3.631Zm-2.203-3.63c0 1.696.884 2.708 2.203 2.708 1.32 0 2.223-1.002 2.223-2.709 0-1.667-.903-2.709-2.223-2.709-1.31 0-2.203 1.032-2.203 2.71Zm6.824 3.472v-6.945h1.736l1.925 5.149c.09.248.169.476.238.694.08-.228.139-.446.238-.694l1.875-5.15h1.727v6.946h-1.072v-4.951c0-.318 0-.625.01-.923l-2.133 5.874h-1.3l-2.193-5.874c.01.298.01.605.01.923v4.95H75.44Zm12.276.158c-2.005 0-3.285-1.488-3.285-3.611 0-2.272 1.479-3.661 3.433-3.661 1.627 0 2.769.933 2.907 2.252h-1.15c-.11-.764-.794-1.32-1.747-1.32-1.34 0-2.302.973-2.302 2.729 0 1.597.923 2.689 2.263 2.689 1.15 0 1.964-.685 1.964-1.885V39h-2.034v-.932H90.8v3.67h-.962v-.267c0-.218.01-.447.03-.675-.348.625-1.122 1.102-2.153 1.102Zm5.871.536h9.922v-9.921h-9.922v9.921Zm13.137 1.35.834-2.153-1.905-4.703h1.151l1.111 3.085c.059.179.129.367.188.586.06-.218.119-.407.179-.586l1.022-3.085h1.081l-2.559 6.856h-1.102Zm6.433-1.886c-1.419 0-2.411-.992-2.411-2.56 0-1.537 1.002-2.569 2.411-2.569 1.419 0 2.421 1.032 2.421 2.57 0 1.567-1.002 2.56-2.421 2.56Zm-1.359-2.56c0 1.072.526 1.757 1.359 1.757.834 0 1.369-.685 1.369-1.756 0-1.092-.545-1.756-1.369-1.756-.813 0-1.359.664-1.359 1.756Zm6.523 2.56c-1.042 0-1.727-.664-1.727-1.914v-3.056h1.032v2.877c0 .794.308 1.28.992 1.28.695 0 1.132-.526 1.132-1.399v-2.758h1.031v4.812h-1.022v-.248c0-.14.01-.288.03-.417-.238.486-.744.823-1.468.823Zm3.807-.158v-4.812h1.032v.288c0 .188 0 .367-.02.545.248-.546.734-.992 1.459-.992.079 0 .158 0 .238.02v1.002c-.07-.01-.169-.03-.308-.03-.833 0-1.369.447-1.369 1.508v2.47h-1.032Zm5.513 0v-4.812h1.032v.268c0 .129-.01.248-.02.397.258-.447.774-.824 1.479-.824 1.091 0 1.736.724 1.736 1.935v3.036h-1.032v-2.897c0-.804-.318-1.26-.982-1.26-.715 0-1.181.585-1.181 1.3v2.857h-1.032Zm7.626.158c-1.438 0-2.391-.912-2.391-2.58 0-1.497.992-2.549 2.352-2.549 1.448 0 2.272 1.012 2.272 2.57v.218h-3.582c.02.933.576 1.538 1.359 1.538.556 0 1.042-.268 1.141-.883h1.042c-.099.913-.853 1.686-2.193 1.686Zm-1.339-3.075h2.49c-.01-.754-.456-1.27-1.2-1.27-.724 0-1.221.546-1.29 1.27Zm5.547 2.917-1.518-4.812h1.081l.962 3.413c.04.149.08.307.11.466.039-.169.079-.327.119-.466l.922-3.413h1.34l.952 3.413c.04.139.08.288.109.456.04-.168.07-.317.119-.466l.953-3.403h1.012l-1.488 4.812h-1.24l-.973-3.463c-.03-.129-.069-.288-.109-.476-.03.188-.069.337-.119.476l-.962 3.463h-1.27ZM69.528 53.898c-1.33 0-2.123-.704-2.173-1.785h1.032c.03.615.427 1.002 1.131 1.002.606 0 1.002-.278 1.002-.705 0-.347-.267-.545-.813-.655l-.655-.129c-.952-.178-1.528-.645-1.528-1.418 0-.824.784-1.439 1.925-1.439 1.22 0 1.974.615 2.024 1.607H70.44c-.05-.526-.427-.823-1.022-.823-.516 0-.873.228-.873.605 0 .337.238.506.814.615l.664.13c.903.178 1.508.604 1.508 1.428 0 .893-.763 1.567-2.004 1.567Zm5.181 0c-1.438 0-2.39-.912-2.39-2.58 0-1.497.991-2.549 2.35-2.549 1.45 0 2.273 1.012 2.273 2.57v.218H73.36c.02.933.575 1.538 1.36 1.538.555 0 1.041-.268 1.14-.883h1.042c-.1.913-.853 1.686-2.193 1.686Zm-1.34-3.075h2.491c-.01-.754-.456-1.27-1.2-1.27-.725 0-1.22.546-1.29 1.27Zm4.643 2.917v-4.812h1.032v.297c0 .12 0 .248-.02.367.268-.446.735-.823 1.4-.823.614 0 1.13.387 1.359.923.297-.516.863-.923 1.557-.923.973 0 1.677.685 1.677 1.935v3.036h-1.032v-2.868c0-.803-.278-1.29-.903-1.29-.644 0-1.051.576-1.051 1.32v2.838h-1.032v-2.848c0-.813-.268-1.31-.893-1.31-.635 0-1.062.566-1.062 1.34v2.818h-1.032Zm9.693.158c-.873 0-1.657-.555-1.657-1.478 0-1.012.794-1.419 1.736-1.548l.864-.129c.377-.05.506-.188.506-.456 0-.427-.338-.734-.873-.734-.655 0-1.022.357-1.052.903h-1.052c.05-.943.804-1.687 2.034-1.687 1.33 0 1.965.744 1.965 1.974v2.997h-.963v-.218c0-.15.01-.288.02-.437-.248.486-.754.813-1.528.813Zm-.595-1.508c0 .467.367.735.823.735.705 0 1.24-.496 1.24-1.23v-.616c-.079.1-.258.159-.545.208l-.546.11c-.566.109-.972.327-.972.793Zm4.35 1.35v-4.812h1.033v.268c0 .129-.01.248-.02.397a1.678 1.678 0 0 1 1.478-.824c1.092 0 1.737.724 1.737 1.935v3.036h-1.032v-2.897c0-.804-.318-1.26-.983-1.26-.714 0-1.18.585-1.18 1.3v2.857H91.46Zm7.4.08c-.873 0-1.468-.428-1.468-1.5v-2.559H96.39v-.833h1.002V47.26h1.032v1.667h1.09v.833h-1.09v2.421c0 .536.238.774.704.774.12 0 .238-.01.367-.03v.824c-.149.04-.387.07-.635.07Zm1.612-.08v-4.812h1.032v4.812h-1.032Zm-.04-5.636v-1.14h1.121v1.14h-1.121Zm4.547 5.794c-1.419 0-2.411-.922-2.411-2.57 0-1.567 1.071-2.559 2.46-2.559 1.27 0 2.074.764 2.183 1.875h-1.052c-.059-.585-.446-1.061-1.141-1.061-.813 0-1.399.694-1.399 1.746 0 1.051.556 1.766 1.389 1.766.725 0 1.131-.457 1.211-1.082h1.032c-.129 1.131-.903 1.886-2.272 1.886Zm7.288 0c-1.329 0-2.123-.704-2.173-1.785h1.032c.03.615.427 1.002 1.131 1.002.605 0 1.002-.278 1.002-.705 0-.347-.268-.545-.813-.655l-.655-.129c-.953-.178-1.528-.645-1.528-1.418 0-.824.784-1.439 1.925-1.439 1.22 0 1.974.615 2.024 1.607h-1.032c-.05-.526-.427-.823-1.022-.823-.516 0-.873.228-.873.605 0 .337.238.506.813.615l.665.13c.903.178 1.508.604 1.508 1.428 0 .893-.764 1.567-2.004 1.567Zm5.181 0c-1.439 0-2.391-.912-2.391-2.58 0-1.497.992-2.549 2.351-2.549 1.449 0 2.272 1.012 2.272 2.57v.218h-3.581c.02.933.575 1.538 1.359 1.538.556 0 1.042-.268 1.141-.883h1.042c-.099.913-.853 1.686-2.193 1.686Zm-1.339-3.075h2.49c-.01-.754-.456-1.27-1.201-1.27-.724 0-1.22.546-1.289 1.27Zm6.031 3.075c-.873 0-1.657-.555-1.657-1.478 0-1.012.794-1.419 1.737-1.548l.863-.129c.377-.05.506-.188.506-.456 0-.427-.338-.734-.873-.734-.655 0-1.022.357-1.052.903h-1.052c.05-.943.804-1.687 2.034-1.687 1.33 0 1.965.744 1.965 1.974v2.997h-.963v-.218c0-.15.01-.288.02-.437-.248.486-.754.813-1.528.813Zm-.595-1.508c0 .467.367.735.823.735.705 0 1.241-.496 1.241-1.23v-.616c-.08.1-.258.159-.546.208l-.546.11c-.565.109-.972.327-.972.793Zm4.351 1.35v-4.812h1.032v.288c0 .188 0 .367-.02.545.248-.546.734-.992 1.459-.992.079 0 .158 0 .238.02v1.002c-.07-.01-.169-.03-.308-.03-.833 0-1.369.447-1.369 1.508v2.47h-1.032Zm5.553.158c-1.418 0-2.411-.922-2.411-2.57 0-1.567 1.072-2.559 2.461-2.559 1.27 0 2.074.764 2.183 1.875h-1.052c-.059-.585-.446-1.061-1.141-1.061-.814 0-1.399.694-1.399 1.746 0 1.051.556 1.766 1.389 1.766.724 0 1.131-.457 1.211-1.082h1.031c-.129 1.131-.902 1.886-2.272 1.886Zm3.264-.158v-6.945h1.032v2.36c0 .14 0 .279-.02.438.268-.467.774-.824 1.479-.824 1.091 0 1.736.724 1.736 1.935v3.036h-1.032v-2.897c0-.804-.327-1.26-.992-1.26-.705 0-1.171.585-1.171 1.3v2.857h-1.032Zm8.169 0V49.76h-.933v-.833h.933v-.725c0-1.041.625-1.577 1.458-1.577.258 0 .466.05.566.09v.833c-.08-.02-.199-.04-.318-.04-.407 0-.675.238-.675.675v.744h1.002v.833h-1.002v3.979h-1.031Zm4.864.158c-1.439 0-2.391-.912-2.391-2.58 0-1.497.992-2.549 2.351-2.549 1.449 0 2.272 1.012 2.272 2.57v.218h-3.581c.02.933.575 1.538 1.359 1.538.556 0 1.042-.268 1.141-.883h1.042c-.099.913-.854 1.686-2.193 1.686Zm-1.339-3.075h2.49c-.01-.754-.456-1.27-1.201-1.27-.724 0-1.22.546-1.289 1.27Zm6.031 3.075c-.873 0-1.657-.555-1.657-1.478 0-1.012.794-1.419 1.737-1.548l.863-.129c.377-.05.506-.188.506-.456 0-.427-.338-.734-.873-.734-.655 0-1.022.357-1.052.903h-1.052c.05-.943.804-1.687 2.034-1.687 1.33 0 1.965.744 1.965 1.974v2.997h-.963v-.218c0-.15.01-.288.02-.437-.248.486-.754.813-1.528.813Zm-.595-1.508c0 .467.367.735.823.735.705 0 1.241-.496 1.241-1.23v-.616c-.08.1-.258.159-.546.208l-.546.11c-.565.109-.972.327-.972.793Zm6.227 1.43c-.873 0-1.468-.428-1.468-1.5v-2.559H155.6v-.833h1.002V47.26h1.032v1.667h1.091v.833h-1.091v2.421c0 .536.238.774.704.774.119 0 .238-.01.367-.03v.824c-.148.04-.386.07-.635.07Zm3.289.078c-1.042 0-1.726-.664-1.726-1.914v-3.056h1.031v2.877c0 .794.308 1.28.993 1.28.694 0 1.131-.526 1.131-1.399v-2.758h1.032v4.812h-1.022v-.248c0-.14.01-.288.029-.417-.238.486-.744.823-1.468.823Zm3.807-.158v-4.812h1.032v.288c0 .188 0 .367-.02.545.248-.546.734-.992 1.459-.992.079 0 .159 0 .238.02v1.002c-.07-.01-.169-.03-.308-.03-.833 0-1.369.447-1.369 1.508v2.47h-1.032Zm5.534.158c-1.439 0-2.391-.912-2.391-2.58 0-1.497.992-2.549 2.351-2.549 1.449 0 2.272 1.012 2.272 2.57v.218h-3.582c.02.933.576 1.538 1.36 1.538.555 0 1.041-.268 1.141-.883h1.041c-.099.913-.853 1.686-2.192 1.686Zm-1.34-3.075h2.491c-.01-.754-.457-1.27-1.201-1.27-.724 0-1.22.546-1.29 1.27ZM67.722 65.74v-4.812h1.032v4.812h-1.032Zm-.04-5.636v-1.14h1.122v1.14h-1.121Zm4.23 5.794c-1.33 0-2.123-.704-2.173-1.785h1.032c.03.615.426 1.002 1.13 1.002.606 0 1.003-.278 1.003-.705 0-.347-.268-.545-.814-.655l-.654-.129c-.953-.178-1.528-.645-1.528-1.418 0-.824.783-1.439 1.924-1.439 1.22 0 1.975.615 2.025 1.607h-1.032c-.05-.526-.427-.823-1.022-.823-.516 0-.873.228-.873.605 0 .337.238.506.813.615l.665.13c.903.178 1.508.604 1.508 1.428 0 .893-.764 1.567-2.004 1.567Zm7.102 0c-1.33 0-2.123-.704-2.173-1.785h1.032c.03.615.427 1.002 1.131 1.002.605 0 1.002-.278 1.002-.705 0-.347-.268-.545-.814-.655l-.654-.129c-.953-.178-1.528-.645-1.528-1.418 0-.824.784-1.439 1.925-1.439 1.22 0 1.974.615 2.024 1.607h-1.032c-.05-.526-.427-.823-1.022-.823-.516 0-.873.228-.873.605 0 .337.238.506.813.615l.665.13c.903.178 1.508.604 1.508 1.428 0 .893-.764 1.567-2.004 1.567Zm5.2 0c-1.418 0-2.41-.992-2.41-2.56 0-1.537 1.002-2.569 2.41-2.569 1.42 0 2.422 1.032 2.422 2.57 0 1.567-1.002 2.56-2.421 2.56Zm-1.358-2.56c0 1.072.525 1.757 1.359 1.757.833 0 1.369-.685 1.369-1.756 0-1.092-.546-1.756-1.37-1.756-.813 0-1.358.664-1.358 1.756Zm6.969 2.56c-1.419 0-2.411-.992-2.411-2.56 0-1.537 1.002-2.569 2.41-2.569 1.42 0 2.422 1.032 2.422 2.57 0 1.567-1.002 2.56-2.421 2.56Zm-1.36-2.56c0 1.072.526 1.757 1.36 1.757.833 0 1.369-.685 1.369-1.756 0-1.092-.546-1.756-1.37-1.756-.813 0-1.358.664-1.358 1.756Zm6.97 2.56c-1.419 0-2.411-.992-2.411-2.56 0-1.537 1.002-2.569 2.41-2.569 1.42 0 2.422 1.032 2.422 2.57 0 1.567-1.002 2.56-2.421 2.56Zm-1.36-2.56c0 1.072.526 1.757 1.36 1.757.833 0 1.369-.685 1.369-1.756 0-1.092-.546-1.756-1.37-1.756-.813 0-1.358.664-1.358 1.756Zm9.159 4.604c-1.349 0-2.163-.734-2.163-1.805h1.032c.01.605.436 1.002 1.151 1.002.764 0 1.299-.427 1.299-1.3v-.556c0-.158.01-.307.02-.456-.268.456-.803.794-1.538.794-1.289 0-2.172-.913-2.172-2.421 0-1.489 1.002-2.431 2.163-2.431.823 0 1.279.377 1.547.824-.01-.14-.02-.278-.02-.427v-.238h1.032v4.613c0 1.618-.873 2.401-2.351 2.401Zm-1.31-4.742c0 .962.556 1.607 1.35 1.607.783 0 1.349-.655 1.349-1.607 0-.943-.566-1.617-1.349-1.617-.794 0-1.35.664-1.35 1.617Zm7.134 2.698c-1.419 0-2.411-.992-2.411-2.56 0-1.537 1.002-2.569 2.411-2.569 1.419 0 2.421 1.032 2.421 2.57 0 1.567-1.002 2.56-2.421 2.56Zm-1.36-2.56c0 1.072.526 1.757 1.36 1.757.833 0 1.369-.685 1.369-1.756 0-1.092-.546-1.756-1.369-1.756-.814 0-1.36.664-1.36 1.756Zm6.97 2.56c-1.419 0-2.411-.992-2.411-2.56 0-1.537 1.002-2.569 2.411-2.569 1.419 0 2.421 1.032 2.421 2.57 0 1.567-1.002 2.56-2.421 2.56Zm-1.36-2.56c0 1.072.526 1.757 1.36 1.757.833 0 1.369-.685 1.369-1.756 0-1.092-.546-1.756-1.369-1.756-.814 0-1.36.664-1.36 1.756Zm6.771 2.56c-1.27 0-2.212-.892-2.212-2.56 0-1.587.982-2.569 2.232-2.569.774 0 1.27.407 1.518.824-.02-.15-.02-.288-.02-.427v-2.371h1.032v6.945h-1.032v-.238c0-.16 0-.288.02-.427-.228.397-.734.823-1.538.823Zm-1.151-2.56c0 1.062.566 1.757 1.37 1.757.783 0 1.359-.705 1.359-1.766 0-1.062-.566-1.746-1.359-1.746-.794 0-1.37.714-1.37 1.756Zm4.96 2.402v-1.32h1.32v1.32h-1.32Zm3.572 0 2.817-6.945h1.29l2.828 6.945h-1.23l-.744-1.985h-3.037l-.754 1.985h-1.17Zm2.272-2.907h2.341l-.932-2.47c-.09-.239-.159-.437-.238-.666-.07.229-.159.437-.239.665l-.932 2.47Zm5.34 2.907v-4.812h1.032v.268c0 .129-.01.248-.02.397a1.678 1.678 0 0 1 1.478-.824c1.092 0 1.736.724 1.736 1.935v3.036h-1.031v-2.897c0-.804-.318-1.26-.983-1.26-.714 0-1.18.585-1.18 1.3v2.857h-1.032Zm5.931 2.044.834-2.153-1.905-4.703h1.151l1.111 3.085c.06.179.129.367.189.586.059-.219.119-.407.178-.586l1.022-3.085h1.082l-2.56 6.856h-1.102Zm6.49 0v-6.856h1.032v.278c0 .128 0 .248-.02.396.288-.476.844-.833 1.588-.833 1.329 0 2.163 1.072 2.163 2.57 0 1.547-.923 2.56-2.203 2.56-.744 0-1.24-.338-1.548-.824.02.159.02.288.02.427v2.282h-1.032Zm.983-4.455c0 1.051.565 1.766 1.369 1.766.813 0 1.349-.724 1.349-1.766 0-1.022-.526-1.746-1.349-1.746-.794 0-1.369.674-1.369 1.746Zm4.831 2.41v-6.944h1.032v6.945h-1.032Zm3.772.16c-.873 0-1.657-.556-1.657-1.479 0-1.012.794-1.419 1.737-1.548l.863-.129c.377-.05.506-.188.506-.456 0-.427-.337-.734-.873-.734-.655 0-1.022.357-1.052.903h-1.052c.05-.943.804-1.687 2.034-1.687 1.33 0 1.965.744 1.965 1.974v2.997h-.963v-.218c0-.15.01-.288.02-.437-.248.486-.754.814-1.528.814Zm-.595-1.509c0 .467.367.735.824.735.704 0 1.24-.496 1.24-1.23v-.616c-.08.1-.258.159-.546.208l-.546.11c-.565.109-.972.327-.972.793Zm4.351 1.35v-4.812h1.032v.268c0 .129-.01.248-.02.397.258-.447.774-.824 1.479-.824 1.091 0 1.736.724 1.736 1.935v3.036h-1.032v-2.897c0-.804-.317-1.26-.982-1.26-.715 0-1.181.585-1.181 1.3v2.857h-1.032Zm9.865.159c-1.419 0-2.411-.993-2.411-2.56 0-1.538 1.002-2.57 2.411-2.57 1.419 0 2.421 1.032 2.421 2.57 0 1.567-1.002 2.56-2.421 2.56Zm-1.359-2.56c0 1.071.526 1.756 1.359 1.756.834 0 1.369-.685 1.369-1.756 0-1.092-.545-1.756-1.369-1.756-.813 0-1.359.664-1.359 1.756Zm4.846 2.4v-4.811h1.032v.268c0 .129-.01.248-.02.397a1.678 1.678 0 0 1 1.478-.824c1.092 0 1.737.724 1.737 1.935v3.036h-1.032v-2.897c0-.804-.318-1.26-.983-1.26-.714 0-1.18.585-1.18 1.3v2.857h-1.032ZM69.112 77.9c-.873 0-1.657-.556-1.657-1.479 0-1.012.793-1.419 1.736-1.548l.863-.129c.377-.05.506-.188.506-.456 0-.427-.337-.734-.873-.734-.655 0-1.022.357-1.052.903h-1.051c.05-.943.803-1.687 2.034-1.687 1.33 0 1.964.744 1.964 1.974v2.997h-.962v-.218c0-.15.01-.288.02-.437-.249.486-.755.814-1.528.814Zm-.596-1.509c0 .467.367.735.824.735.704 0 1.24-.496 1.24-1.23v-.616c-.08.1-.258.159-.546.209l-.545.109c-.566.109-.973.327-.973.793Zm6.276 1.508c-1.27 0-2.212-.892-2.212-2.56 0-1.587.982-2.569 2.232-2.569.774 0 1.27.407 1.518.823-.02-.148-.02-.287-.02-.426v-2.371h1.032v6.945H76.31v-.238c0-.16 0-.288.02-.427-.228.397-.734.823-1.538.823Zm-1.15-2.56c0 1.062.565 1.757 1.368 1.757.784 0 1.36-.705 1.36-1.766 0-1.062-.566-1.746-1.36-1.746-.793 0-1.369.714-1.369 1.756Zm6.973 2.56c-1.27 0-2.212-.892-2.212-2.56 0-1.587.982-2.569 2.232-2.569.774 0 1.27.407 1.518.823-.02-.148-.02-.287-.02-.426v-2.371h1.032v6.945h-1.032v-.238c0-.16 0-.288.02-.427-.228.397-.734.823-1.538.823Zm-1.15-2.56c0 1.062.565 1.757 1.369 1.757.784 0 1.359-.705 1.359-1.766 0-1.062-.566-1.746-1.36-1.746-.793 0-1.368.714-1.368 1.756Zm5.049 2.402v-4.812h1.032v4.812h-1.032Zm-.04-5.636v-1.14h1.121v1.14h-1.12Zm2.423 5.636v-4.812h1.032v.268c0 .129-.01.248-.02.397.258-.447.774-.824 1.479-.824 1.091 0 1.736.724 1.736 1.935v3.036h-1.032v-2.897c0-.804-.317-1.26-.982-1.26-.715 0-1.18.585-1.18 1.3v2.857h-1.033Zm7.617 2.202c-1.35 0-2.163-.734-2.163-1.805h1.032c.01.605.436 1.002 1.15 1.002.764 0 1.3-.427 1.3-1.3v-.556c0-.158.01-.307.02-.456-.268.456-.804.794-1.538.794-1.29 0-2.173-.913-2.173-2.421 0-1.489 1.002-2.431 2.163-2.431.824 0 1.28.377 1.548.823a5.818 5.818 0 0 1-.02-.426v-.238h1.032v4.613c0 1.618-.873 2.401-2.351 2.401Zm-1.31-4.742c0 .962.556 1.607 1.35 1.607.783 0 1.349-.655 1.349-1.607 0-.943-.566-1.617-1.35-1.617-.793 0-1.349.664-1.349 1.617Zm10.682 2.311c0-.148 0-.287.02-.436-.258.456-.794.823-1.548.823-1.29 0-2.213-.922-2.213-2.56 0-1.517.943-2.569 2.243-2.569.734 0 1.26.367 1.538.823-.02-.168-.02-.297-.02-.446v-.218h1.012v6.856h-1.032V77.51Zm-2.679-2.172c0 1.12.566 1.756 1.359 1.756.794 0 1.369-.665 1.369-1.756 0-1.082-.545-1.756-1.349-1.756-.813 0-1.379.684-1.379 1.756Zm6.736 2.56c-1.042 0-1.727-.665-1.727-1.915v-3.056h1.032v2.877c0 .794.308 1.28.992 1.28.695 0 1.131-.526 1.131-1.399v-2.758h1.032v4.812h-1.022v-.248c0-.14.01-.288.03-.417-.238.486-.744.823-1.468.823Zm3.807-.16v-4.811h1.032v4.812h-1.032Zm-.04-5.635v-1.14h1.121v1.14h-1.121Zm4.547 5.794c-1.419 0-2.411-.922-2.411-2.57 0-1.567 1.071-2.559 2.46-2.559 1.27 0 2.074.764 2.183 1.875h-1.052c-.059-.585-.446-1.061-1.141-1.061-.813 0-1.398.694-1.398 1.746s.555 1.766 1.389 1.766c.724 0 1.131-.457 1.21-1.082h1.032c-.129 1.131-.903 1.885-2.272 1.885Zm3.264-.158v-6.945h1.032v4.107c.109-.139.248-.288.367-.407l1.508-1.567h1.319l-2.044 2.044 2.253 2.768h-1.35l-1.597-2.074-.456.457v1.617h-1.032Zm8.541-3.979v3.979h-1.032V73.76h-.933v-.833h.933v-.725c0-1.041.625-1.577 1.459-1.577.258 0 .466.05.565.09v.833a1.376 1.376 0 0 0-.317-.04c-.407 0-.675.238-.675.675v.744h2.847v4.812h-1.031V73.76h-1.816Zm1.766-1.657v-1.14h1.121v1.14h-1.121Zm2.434 5.636v-6.945h1.032v6.945h-1.032Zm4.308.08c-.873 0-1.468-.427-1.468-1.5v-2.559H134.1v-.833h1.002V71.26h1.032v1.667h1.091v.833h-1.091v2.421c0 .536.238.774.704.774.119 0 .238-.01.367-.03v.824c-.149.04-.387.07-.635.07Zm3.657.079c-1.438 0-2.391-.913-2.391-2.58 0-1.498.992-2.55 2.352-2.55 1.448 0 2.272 1.012 2.272 2.57v.218h-3.582c.02.933.575 1.538 1.359 1.538.556 0 1.042-.268 1.141-.883h1.042c-.099.913-.853 1.686-2.193 1.686Zm-1.339-3.076h2.49c-.01-.754-.456-1.27-1.2-1.27-.725 0-1.221.546-1.29 1.27Zm4.642 2.917v-4.812h1.032v.288c0 .188 0 .367-.02.545.248-.545.735-.992 1.459-.992.079 0 .159 0 .238.02v1.002c-.069-.01-.169-.03-.308-.03-.833 0-1.369.447-1.369 1.508v2.47h-1.032Zm5.285.159c-1.33 0-2.124-.705-2.173-1.786h1.032c.029.615.426 1.002 1.131 1.002.605 0 1.002-.278 1.002-.705 0-.347-.268-.545-.814-.655l-.655-.129c-.952-.178-1.528-.645-1.528-1.418 0-.824.784-1.439 1.925-1.439 1.221 0 1.975.615 2.024 1.607h-1.032c-.049-.526-.426-.823-1.022-.823-.516 0-.873.228-.873.605 0 .337.238.506.814.615l.665.13c.903.178 1.508.604 1.508 1.428 0 .893-.764 1.567-2.004 1.567Zm7.419 0c-1.419 0-2.411-.993-2.411-2.56 0-1.538 1.002-2.57 2.411-2.57 1.419 0 2.421 1.032 2.421 2.57 0 1.567-1.002 2.56-2.421 2.56Zm-1.359-2.56c0 1.071.526 1.756 1.359 1.756.834 0 1.369-.685 1.369-1.756 0-1.092-.545-1.756-1.369-1.756-.813 0-1.359.664-1.359 1.756Zm4.846 2.4v-4.811h1.032v.268c0 .129-.01.248-.02.397a1.678 1.678 0 0 1 1.478-.824c1.092 0 1.737.724 1.737 1.935v3.036h-1.032v-2.897c0-.804-.318-1.26-.982-1.26-.715 0-1.181.585-1.181 1.3v2.857h-1.032ZM69.647 90.82c-.873 0-1.468-.427-1.468-1.498v-2.56h-1.002v-.833h1.002V84.26h1.032v1.667h1.091v.833h-1.091v2.421c0 .536.238.774.704.774.12 0 .238-.01.367-.03v.824c-.148.04-.387.07-.635.07Zm3.677.08c-1.419 0-2.41-.993-2.41-2.56 0-1.538 1.001-2.57 2.41-2.57 1.419 0 2.421 1.032 2.421 2.57 0 1.567-1.002 2.56-2.42 2.56Zm-1.36-2.56c0 1.071.527 1.756 1.36 1.756.834 0 1.37-.685 1.37-1.756 0-1.092-.546-1.756-1.37-1.756-.813 0-1.36.664-1.36 1.756Zm4.847 4.445v-6.856h1.032v.278c0 .129 0 .248-.02.396.288-.476.843-.833 1.587-.833 1.33 0 2.163 1.072 2.163 2.57 0 1.547-.922 2.56-2.202 2.56-.744 0-1.24-.338-1.548-.824.02.159.02.288.02.427v2.282H76.81Zm.982-4.455c0 1.052.566 1.766 1.37 1.766.813 0 1.349-.724 1.349-1.766 0-1.022-.526-1.746-1.35-1.746-.793 0-1.369.674-1.369 1.746Zm5.897.426c0-.922.199-1.398.923-1.984l.298-.238c.347-.268.585-.615.585-1.032 0-.585-.407-.992-1.081-.992-.784 0-1.26.516-1.26 1.439h-1.102c0-1.44.963-2.322 2.372-2.322 1.25 0 2.153.764 2.153 1.825 0 .765-.447 1.34-.973 1.747l-.317.248c-.437.337-.576.665-.576 1.31H83.69Zm-.109 1.985v-1.28h1.26v1.28h-1.26Zm6.362 0v-6.945h1.102v6.945h-1.102Zm4.528.08c-.873 0-1.469-.427-1.469-1.5v-2.559H92v-.833h1.002V84.26h1.032v1.667h1.092v.833h-1.092v2.421c0 .536.238.774.705.774.119 0 .238-.01.367-.03v.824c-.149.04-.387.07-.635.07Zm4.638-.08-1.518-4.812h1.081l.963 3.413c.04.149.079.307.109.466.04-.169.079-.327.119-.466l.922-3.413h1.34l.952 3.413c.04.139.08.288.109.456.04-.168.07-.317.119-.466l.953-3.403h1.012l-1.488 4.812h-1.24l-.973-3.463c-.03-.129-.069-.288-.109-.476-.03.188-.069.337-.119.476l-.962 3.463h-1.27Zm9.038.159c-1.419 0-2.411-.993-2.411-2.56 0-1.538 1.002-2.57 2.411-2.57 1.419 0 2.421 1.032 2.421 2.57 0 1.567-1.002 2.56-2.421 2.56Zm-1.359-2.56c0 1.071.526 1.756 1.359 1.756s1.369-.685 1.369-1.756c0-1.092-.546-1.756-1.369-1.756-.814 0-1.359.664-1.359 1.756Zm6.523 2.56c-1.042 0-1.727-.665-1.727-1.915v-3.056h1.032v2.877c0 .794.308 1.28.992 1.28.695 0 1.131-.526 1.131-1.399v-2.758h1.032v4.812h-1.022v-.248c0-.14.01-.288.03-.417-.238.486-.744.823-1.468.823Zm3.807-.16v-6.944h1.032v6.945h-1.032Zm4.308.16c-1.27 0-2.212-.894-2.212-2.56 0-1.588.982-2.57 2.232-2.57.774 0 1.27.407 1.518.823-.02-.148-.02-.287-.02-.426v-2.371h1.032v6.945h-1.032v-.238c0-.16 0-.288.02-.427-.228.397-.734.823-1.538.823Zm-1.151-2.56c0 1.061.566 1.756 1.369 1.756.784 0 1.36-.705 1.36-1.766 0-1.062-.566-1.746-1.36-1.746-.793 0-1.369.714-1.369 1.756Zm7.268 2.4v-6.944h1.032v2.36c0 .14 0 .279-.02.438.268-.467.774-.824 1.479-.824 1.091 0 1.736.724 1.736 1.935v3.036h-1.032v-2.897c0-.804-.327-1.26-.992-1.26-.705 0-1.171.585-1.171 1.3v2.857h-1.032Zm7.627.16c-1.439 0-2.392-.913-2.392-2.58 0-1.498.993-2.55 2.352-2.55 1.448 0 2.272 1.012 2.272 2.57v.218h-3.582c.02.933.576 1.538 1.359 1.538.556 0 1.042-.268 1.141-.883h1.042c-.099.913-.853 1.686-2.192 1.686Zm-1.34-3.076h2.49c-.009-.754-.456-1.27-1.2-1.27-.724 0-1.22.546-1.29 1.27Zm4.643 2.917v-6.945h1.032v6.945h-1.032Zm2.383 2.044v-6.856h1.032v.278c0 .129 0 .248-.02.396.288-.476.844-.833 1.588-.833 1.329 0 2.163 1.072 2.163 2.57 0 1.547-.923 2.56-2.203 2.56-.744 0-1.24-.338-1.548-.824.02.159.02.288.02.427v2.282h-1.032Zm.982-4.455c0 1.052.566 1.766 1.37 1.766.813 0 1.349-.724 1.349-1.766 0-1.022-.526-1.746-1.349-1.746-.794 0-1.37.674-1.37 1.746Zm8.44 2.57c-.874 0-1.657-.556-1.657-1.479 0-1.012.793-1.419 1.736-1.548l.863-.129c.377-.05.506-.188.506-.456 0-.427-.337-.734-.873-.734-.655 0-1.022.357-1.052.903h-1.051c.049-.943.803-1.687 2.034-1.687 1.329 0 1.964.744 1.964 1.974v2.997h-.962v-.218c0-.15.01-.288.019-.437-.248.486-.754.814-1.527.814Zm-.596-1.509c0 .467.367.735.824.735.704 0 1.24-.496 1.24-1.23v-.616c-.079.1-.258.159-.546.209l-.545.109c-.566.109-.973.327-.973.793Zm6.57 1.35v-6.945h1.032v6.945h-1.032Zm4.507.159c-1.419 0-2.411-.993-2.411-2.56 0-1.538 1.002-2.57 2.411-2.57 1.419 0 2.421 1.032 2.421 2.57 0 1.567-1.002 2.56-2.421 2.56Zm-1.359-2.56c0 1.071.526 1.756 1.359 1.756s1.369-.685 1.369-1.756c0-1.092-.545-1.756-1.369-1.756-.814 0-1.359.664-1.359 1.756Zm6.683 2.48c-.873 0-1.468-.427-1.468-1.498v-2.56h-1.002v-.833h1.002V84.26h1.032v1.667h1.091v.833h-1.091v2.421c0 .536.238.774.704.774.119 0 .238-.01.367-.03v.824c-.148.04-.387.07-.635.07Zm1.969-2.064-.317-2.817v-2.143h1.121v2.143l-.318 2.817h-.486Zm-.387 1.985v-1.28h1.26v1.28h-1.26Z"/><rect width="137.801" height="71.048" x="90.199" y="108.806" fill="#0680FF" rx="8"/><path fill="#fff" d="M102.056 128.83v-6.945h2.808c1.329 0 2.46.526 2.46 2.024 0 1.518-1.131 2.024-2.46 2.024h-1.707v2.897h-1.101Zm1.101-3.82h1.707c.942 0 1.329-.426 1.329-1.101s-.377-1.101-1.329-1.101h-1.707v2.202Zm6.282 3.979c-.873 0-1.657-.556-1.657-1.479 0-1.012.794-1.418 1.736-1.547l.864-.129c.377-.05.506-.189.506-.457 0-.426-.338-.734-.874-.734-.654 0-1.022.357-1.051.903h-1.052c.05-.943.804-1.687 2.034-1.687 1.329 0 1.964.744 1.964 1.975v2.996h-.962v-.218c0-.149.01-.288.02-.437-.248.486-.754.814-1.528.814Zm-.595-1.508c0 .466.367.734.823.734.705 0 1.24-.496 1.24-1.23v-.616c-.079.1-.258.159-.545.209l-.546.109c-.566.109-.972.327-.972.794Zm6.028 1.508c-1.042 0-1.727-.665-1.727-1.915v-3.056h1.032v2.877c0 .794.308 1.28.992 1.28.695 0 1.131-.526 1.131-1.399v-2.758h1.032v4.812h-1.022v-.248c0-.139.01-.288.03-.417-.238.486-.744.824-1.468.824Zm3.807-.159v-6.945h1.032v6.945h-1.032Zm2.383 0v-4.812h1.032v4.812h-1.032Zm-.039-5.635v-1.141h1.121v1.141h-1.121Zm2.423 5.635v-4.812h1.032v.268c0 .129-.01.248-.02.397a1.677 1.677 0 0 1 1.478-.824c1.092 0 1.737.725 1.737 1.935v3.036h-1.032v-2.897c0-.804-.318-1.26-.982-1.26-.715 0-1.181.585-1.181 1.3v2.857h-1.032Zm7.626.159c-1.438 0-2.391-.913-2.391-2.58 0-1.498.992-2.55 2.352-2.55 1.448 0 2.272 1.012 2.272 2.57v.218h-3.582c.02.933.575 1.538 1.359 1.538.556 0 1.042-.268 1.141-.883h1.042c-.099.913-.853 1.687-2.193 1.687Zm-1.339-3.076h2.49c-.01-.754-.456-1.27-1.2-1.27-.725 0-1.221.546-1.29 1.27Zm4.573 3.989c.337-.1.625-.298.625-.883v-.189h-.635v-1.32h1.32v1.38c0 1.081-.576 1.537-1.31 1.627v-.615Zm4.848.972.833-2.153-1.905-4.703h1.151l1.112 3.086c.059.178.129.367.188.585.06-.218.119-.407.179-.585l1.022-3.086h1.081l-2.56 6.856h-1.101Zm6.433-1.885c-1.419 0-2.411-.992-2.411-2.56 0-1.538 1.002-2.57 2.411-2.57 1.419 0 2.421 1.032 2.421 2.57 0 1.568-1.002 2.56-2.421 2.56Zm-1.359-2.56c0 1.072.526 1.756 1.359 1.756s1.369-.684 1.369-1.756c0-1.091-.545-1.756-1.369-1.756-.814 0-1.359.665-1.359 1.756Zm6.523 2.56c-1.042 0-1.727-.665-1.727-1.915v-3.056h1.032v2.877c0 .794.308 1.28.992 1.28.695 0 1.131-.526 1.131-1.399v-2.758h1.032v4.812h-1.022v-.248c0-.139.01-.288.03-.417-.238.486-.744.824-1.468.824Zm6.026-.159v-4.812h1.032v.288c0 .188 0 .367-.02.545.248-.545.734-.992 1.458-.992.08 0 .159 0 .238.02v1.002c-.069-.01-.168-.03-.307-.03-.834 0-1.369.447-1.369 1.509v2.47h-1.032Zm5.533.159c-1.439 0-2.391-.913-2.391-2.58 0-1.498.992-2.55 2.351-2.55 1.449 0 2.272 1.012 2.272 2.57v.218h-3.581c.02.933.575 1.538 1.359 1.538.556 0 1.042-.268 1.141-.883h1.042c-.1.913-.854 1.687-2.193 1.687Zm-1.339-3.076h2.49c-.01-.754-.456-1.27-1.201-1.27-.724 0-1.22.546-1.289 1.27Zm6.031 3.076c-.873 0-1.657-.556-1.657-1.479 0-1.012.794-1.418 1.737-1.547l.863-.129c.377-.05.506-.189.506-.457 0-.426-.338-.734-.873-.734-.655 0-1.022.357-1.052.903h-1.052c.05-.943.804-1.687 2.034-1.687 1.33 0 1.965.744 1.965 1.975v2.996h-.963v-.218c0-.149.01-.288.02-.437-.248.486-.754.814-1.528.814Zm-.595-1.508c0 .466.367.734.823.734.705 0 1.241-.496 1.241-1.23v-.616c-.08.1-.258.159-.546.209l-.546.109c-.565.109-.972.327-.972.794Zm6.276 1.508c-1.27 0-2.213-.893-2.213-2.56 0-1.587.983-2.57 2.233-2.57.774 0 1.27.407 1.518.824-.02-.149-.02-.288-.02-.427v-2.371h1.032v6.945h-1.032v-.238c0-.159 0-.288.02-.427-.228.397-.734.824-1.538.824Zm-1.151-2.56c0 1.062.566 1.756 1.369 1.756.784 0 1.359-.704 1.359-1.766s-.565-1.746-1.359-1.746-1.369.714-1.369 1.756Zm9.391 2.56c-1.418 0-2.411-.992-2.411-2.56 0-1.538 1.002-2.57 2.411-2.57 1.419 0 2.421 1.032 2.421 2.57 0 1.568-1.002 2.56-2.421 2.56Zm-1.359-2.56c0 1.072.526 1.756 1.359 1.756.834 0 1.37-.684 1.37-1.756 0-1.091-.546-1.756-1.37-1.756-.813 0-1.359.665-1.359 1.756Zm6.523 2.56c-1.042 0-1.727-.665-1.727-1.915v-3.056h1.032v2.877c0 .794.308 1.28.993 1.28.694 0 1.131-.526 1.131-1.399v-2.758h1.031v4.812h-1.021v-.248c0-.139.009-.288.029-.417-.238.486-.744.824-1.468.824Zm3.807-.159v-4.812h1.032v.288c0 .188 0 .367-.02.545.248-.545.734-.992 1.459-.992.079 0 .158 0 .238.02v1.002c-.07-.01-.169-.03-.308-.03-.833 0-1.369.447-1.369 1.509v2.47h-1.032Zm-87.997 12v-4.812h1.032v.298c0 .119 0 .248-.02.367.268-.447.735-.824 1.399-.824.615 0 1.131.387 1.36.923.297-.516.863-.923 1.557-.923.973 0 1.677.685 1.677 1.935v3.036h-1.032v-2.867c0-.804-.278-1.29-.903-1.29-.645 0-1.051.575-1.051 1.319v2.838h-1.032v-2.847c0-.814-.268-1.31-.893-1.31-.635 0-1.062.565-1.062 1.339v2.818h-1.032Zm8.304 0v-4.812h1.032v4.812h-1.032Zm-.04-5.635v-1.141h1.121v1.141h-1.121Zm2.423 5.635v-4.812h1.032v.268c0 .129-.01.248-.02.397.258-.447.774-.824 1.479-.824 1.091 0 1.736.725 1.736 1.935v3.036h-1.032v-2.897c0-.804-.317-1.26-.982-1.26-.714 0-1.181.585-1.181 1.3v2.857h-1.032Zm7.448.159c-1.27 0-2.212-.893-2.212-2.56 0-1.587.982-2.57 2.232-2.57.774 0 1.27.407 1.518.824-.02-.149-.02-.288-.02-.427v-2.371h1.032v6.945h-1.032v-.238c0-.159 0-.288.02-.427-.228.397-.734.824-1.538.824Zm-1.151-2.56c0 1.062.566 1.756 1.369 1.756.784 0 1.36-.704 1.36-1.766s-.566-1.746-1.36-1.746c-.793 0-1.369.714-1.369 1.756Zm6.855 2.56c-1.329 0-2.123-.705-2.173-1.786h1.032c.03.615.427 1.002 1.131 1.002.605 0 1.002-.278 1.002-.704 0-.348-.268-.546-.813-.655l-.655-.129c-.953-.179-1.528-.645-1.528-1.419 0-.824.784-1.439 1.925-1.439 1.22 0 1.974.615 2.024 1.608h-1.032c-.05-.526-.427-.824-1.022-.824-.516 0-.873.228-.873.605 0 .338.238.506.814.615l.664.129c.903.179 1.508.606 1.508 1.429 0 .893-.764 1.568-2.004 1.568Zm3.435-2.143-.318-2.818v-2.143h1.122v2.143l-.318 2.818h-.486Zm-.387 1.984v-1.28h1.26v1.28h-1.26Zm10.165.645-.734-.833a3.484 3.484 0 0 1-1.548.347c-1.905 0-3.344-1.379-3.344-3.632 0-2.212 1.439-3.641 3.344-3.641 1.915 0 3.363 1.449 3.363 3.641 0 1.161-.387 2.094-1.032 2.729l.685.764-.734.625Zm-4.485-4.118c0 1.697.883 2.709 2.203 2.709.317 0 .615-.059.883-.169l-.834-.942.735-.615.863.962c.367-.456.575-1.121.575-1.945 0-1.666-.903-2.708-2.222-2.708-1.31 0-2.203 1.032-2.203 2.708Zm8.341 3.632c-1.041 0-1.726-.665-1.726-1.915v-3.056h1.032v2.877c0 .794.308 1.28.992 1.28.695 0 1.131-.526 1.131-1.399v-2.758h1.032v4.812h-1.022v-.248c0-.139.01-.288.03-.417-.238.486-.744.824-1.469.824Zm3.808-.159v-4.812h1.032v4.812h-1.032Zm-.04-5.635v-1.141h1.121v1.141h-1.121Zm4.547 5.794c-1.419 0-2.411-.923-2.411-2.57 0-1.568 1.071-2.56 2.46-2.56 1.27 0 2.074.764 2.183 1.876H152.3c-.059-.586-.446-1.062-1.141-1.062-.813 0-1.399.694-1.399 1.746s.556 1.766 1.389 1.766c.725 0 1.131-.456 1.211-1.081h1.032c-.129 1.131-.903 1.885-2.272 1.885Zm3.263-.159v-6.945h1.032v4.107c.109-.138.248-.287.367-.406l1.508-1.568h1.32l-2.044 2.044 2.252 2.768h-1.349l-1.597-2.074-.457.457v1.617h-1.032Zm8.542-3.979v3.979h-1.032v-3.979h-.933v-.833h.933v-.724c0-1.042.625-1.578 1.458-1.578.258 0 .467.05.566.09v.833a1.38 1.38 0 0 0-.318-.04c-.406 0-.674.238-.674.675v.744h2.847v4.812h-1.032v-3.979h-1.815Zm1.766-1.656v-1.141h1.121v1.141h-1.121Zm2.434 5.635v-6.945h1.032v6.945h-1.032Zm4.308.079c-.873 0-1.468-.426-1.468-1.498v-2.56h-1.002v-.833h1.002v-1.667h1.031v1.667h1.092v.833h-1.092v2.421c0 .536.239.774.705.774.119 0 .238-.01.367-.03v.824c-.149.04-.387.069-.635.069Zm3.657.08c-1.439 0-2.391-.913-2.391-2.58 0-1.498.992-2.55 2.351-2.55 1.449 0 2.272 1.012 2.272 2.57v.218h-3.581c.019.933.575 1.538 1.359 1.538.556 0 1.042-.268 1.141-.883h1.042c-.1.913-.854 1.687-2.193 1.687Zm-1.339-3.076h2.49c-.01-.754-.456-1.27-1.201-1.27-.724 0-1.22.546-1.289 1.27Zm4.642 2.917v-4.812h1.032v.288c0 .188 0 .367-.02.545.248-.545.734-.992 1.459-.992.079 0 .158 0 .238.02v1.002c-.07-.01-.169-.03-.308-.03-.833 0-1.369.447-1.369 1.509v2.47h-1.032Zm5.284.159c-1.329 0-2.123-.705-2.173-1.786h1.032c.03.615.427 1.002 1.131 1.002.606 0 1.002-.278 1.002-.704 0-.348-.267-.546-.813-.655l-.655-.129c-.952-.179-1.528-.645-1.528-1.419 0-.824.784-1.439 1.925-1.439 1.22 0 1.974.615 2.024 1.608h-1.032c-.05-.526-.427-.824-1.022-.824-.516 0-.873.228-.873.605 0 .338.238.506.814.615l.664.129c.903.179 1.508.606 1.508 1.429 0 .893-.763 1.568-2.004 1.568Zm6.686 0c-.873 0-1.657-.556-1.657-1.479 0-1.012.794-1.418 1.736-1.547l.863-.129c.377-.05.506-.189.506-.457 0-.426-.337-.734-.873-.734-.655 0-1.022.357-1.052.903h-1.051c.049-.943.803-1.687 2.034-1.687 1.329 0 1.964.744 1.964 1.975v2.996h-.962v-.218c0-.149.01-.288.02-.437-.248.486-.754.814-1.528.814Zm-.596-1.508c0 .466.368.734.824.734.704 0 1.24-.496 1.24-1.23v-.616c-.079.1-.258.159-.546.209l-.545.109c-.566.109-.973.327-.973.794Zm4.352 1.349v-4.812h1.031v.288c0 .188 0 .367-.019.545.248-.545.734-.992 1.458-.992.08 0 .159 0 .238.02v1.002c-.069-.01-.168-.03-.307-.03-.834 0-1.37.447-1.37 1.509v2.47h-1.031Zm5.533.159c-1.439 0-2.391-.913-2.391-2.58 0-1.498.992-2.55 2.351-2.55 1.449 0 2.272 1.012 2.272 2.57v.218h-3.581c.019.933.575 1.538 1.359 1.538.556 0 1.042-.268 1.141-.883h1.042c-.1.913-.854 1.687-2.193 1.687Zm-1.339-3.076h2.49c-.01-.754-.457-1.27-1.201-1.27-.724 0-1.22.546-1.289 1.27Zm-95.027 15.076c-.873 0-1.657-.556-1.657-1.479 0-1.012.794-1.418 1.737-1.547l.863-.129c.377-.05.506-.189.506-.457 0-.426-.337-.734-.873-.734-.655 0-1.022.357-1.052.903h-1.052c.05-.943.804-1.687 2.034-1.687 1.33 0 1.965.744 1.965 1.975v2.996h-.963v-.218c0-.149.01-.288.02-.437-.248.486-.754.814-1.528.814Zm-.595-1.508c0 .466.367.734.824.734.704 0 1.24-.496 1.24-1.23v-.616c-.08.1-.258.159-.546.209l-.546.109c-.565.109-.972.327-.972.794Zm6.475 1.508c-1.419 0-2.411-.923-2.411-2.57 0-1.568 1.071-2.56 2.46-2.56 1.27 0 2.074.764 2.183 1.876h-1.052c-.059-.586-.446-1.062-1.141-1.062-.813 0-1.399.694-1.399 1.746s.556 1.766 1.389 1.766c.725 0 1.131-.456 1.211-1.081h1.032c-.129 1.131-.903 1.885-2.272 1.885Zm5.149-.08c-.873 0-1.468-.426-1.468-1.498v-2.56h-1.002v-.833h1.002v-1.667h1.032v1.667h1.091v.833h-1.091v2.421c0 .536.238.774.704.774.119 0 .238-.01.367-.03v.824a2.66 2.66 0 0 1-.635.069Zm3.289.08c-1.042 0-1.726-.665-1.726-1.915v-3.056h1.031v2.877c0 .794.308 1.28.993 1.28.694 0 1.131-.526 1.131-1.399v-2.758h1.032v4.812h-1.022v-.248c0-.139.01-.288.029-.417-.238.486-.744.824-1.468.824Zm5.196 0c-.873 0-1.657-.556-1.657-1.479 0-1.012.794-1.418 1.737-1.547l.863-.129c.377-.05.506-.189.506-.457 0-.426-.337-.734-.873-.734-.655 0-1.022.357-1.052.903h-1.052c.05-.943.804-1.687 2.034-1.687 1.33 0 1.965.744 1.965 1.975v2.996h-.963v-.218c0-.149.01-.288.02-.437-.248.486-.754.814-1.528.814Zm-.595-1.508c0 .466.367.734.824.734.704 0 1.24-.496 1.24-1.23v-.616c-.08.1-.258.159-.546.209l-.546.109c-.565.109-.972.327-.972.794Zm4.351 1.349v-6.945h1.032v6.945h-1.032Zm2.384 0v-6.945h1.032v6.945h-1.032Zm2.879 2.044.834-2.153-1.905-4.703h1.151l1.111 3.086c.059.178.129.367.188.585.06-.218.12-.407.179-.585l1.022-3.086h1.081l-2.559 6.856h-1.102Zm8.613-1.885c-1.418 0-2.411-.923-2.411-2.57 0-1.568 1.072-2.56 2.461-2.56 1.27 0 2.074.764 2.183 1.876h-1.052c-.059-.586-.446-1.062-1.141-1.062-.814 0-1.399.694-1.399 1.746s.556 1.766 1.389 1.766c.724 0 1.131-.456 1.211-1.081h1.031c-.129 1.131-.902 1.885-2.272 1.885Zm5.388 0c-1.419 0-2.411-.992-2.411-2.56 0-1.538 1.002-2.57 2.411-2.57 1.418 0 2.42 1.032 2.42 2.57 0 1.568-1.002 2.56-2.42 2.56Zm-1.36-2.56c0 1.072.526 1.756 1.36 1.756.833 0 1.369-.684 1.369-1.756 0-1.091-.546-1.756-1.369-1.756-.814 0-1.36.665-1.36 1.756Zm4.846 2.401v-4.812h1.032v.298c0 .119 0 .248-.02.367.268-.447.735-.824 1.399-.824.615 0 1.131.387 1.36.923.297-.516.863-.923 1.557-.923.973 0 1.677.685 1.677 1.935v3.036h-1.032v-2.867c0-.804-.278-1.29-.903-1.29-.645 0-1.051.575-1.051 1.319v2.838h-1.032v-2.847c0-.814-.268-1.31-.893-1.31-.635 0-1.062.565-1.062 1.339v2.818h-1.032Zm8.304 0v-4.812h1.032v4.812h-1.032Zm-.04-5.635v-1.141h1.121v1.141h-1.121Zm2.423 5.635v-4.812h1.032v.268c0 .129-.01.248-.02.397.258-.447.774-.824 1.479-.824 1.091 0 1.736.725 1.736 1.935v3.036h-1.032v-2.897c0-.804-.317-1.26-.982-1.26-.714 0-1.181.585-1.181 1.3v2.857h-1.032Zm7.617 2.203c-1.35 0-2.163-.735-2.163-1.806h1.032c.01.605.436 1.002 1.151 1.002.764 0 1.299-.427 1.299-1.3v-.555c0-.159.01-.308.02-.457-.268.457-.803.794-1.538.794-1.29 0-2.173-.913-2.173-2.421 0-1.488 1.003-2.431 2.163-2.431.824 0 1.28.377 1.548.824a5.825 5.825 0 0 1-.02-.427v-.238h1.032v4.614c0 1.617-.873 2.401-2.351 2.401Zm-1.31-4.743c0 .963.556 1.607 1.349 1.607.784 0 1.35-.654 1.35-1.607 0-.942-.566-1.617-1.35-1.617-.793 0-1.349.665-1.349 1.617Zm7.229 2.54v-4.812h1.032v.268c0 .129-.01.248-.02.397.258-.447.774-.824 1.479-.824 1.091 0 1.736.725 1.736 1.935v3.036h-1.032v-2.897c0-.804-.318-1.26-.982-1.26-.715 0-1.181.585-1.181 1.3v2.857h-1.032Zm7.626.159c-1.438 0-2.391-.913-2.391-2.58 0-1.498.992-2.55 2.352-2.55 1.448 0 2.272 1.012 2.272 2.57v.218h-3.582c.02.933.576 1.538 1.359 1.538.556 0 1.042-.268 1.141-.883h1.042c-.099.913-.853 1.687-2.193 1.687Zm-1.339-3.076h2.49c-.01-.754-.456-1.27-1.2-1.27-.724 0-1.221.546-1.29 1.27Zm3.843 2.917 1.806-2.461-1.677-2.351h1.201l.803 1.191c.09.139.179.277.268.426.09-.149.179-.278.268-.416l.824-1.201h1.161l-1.727 2.332 1.786 2.48h-1.2l-.883-1.329c-.08-.119-.179-.278-.278-.417-.09.139-.189.288-.268.417l-.923 1.329h-1.161Zm7.404.079c-.873 0-1.468-.426-1.468-1.498v-2.56h-1.002v-.833h1.002v-1.667h1.032v1.667h1.091v.833h-1.091v2.421c0 .536.238.774.704.774.119 0 .238-.01.367-.03v.824c-.149.04-.387.069-.635.069Zm-89.166 11.921v-4.812h1.032v.288c0 .188 0 .367-.02.545.248-.545.735-.992 1.459-.992.079 0 .159 0 .238.02v1.002c-.07-.01-.169-.03-.308-.03-.833 0-1.369.447-1.369 1.509v2.47h-1.032Zm5.534.159c-1.439 0-2.391-.913-2.391-2.58 0-1.498.992-2.55 2.351-2.55 1.449 0 2.272 1.012 2.272 2.57v.218h-3.582c.02.933.576 1.538 1.36 1.538.555 0 1.041-.268 1.141-.883h1.041c-.099.913-.853 1.687-2.192 1.687Zm-1.34-3.076h2.491c-.01-.754-.457-1.27-1.201-1.27-.724 0-1.22.546-1.29 1.27Zm4.643 2.917v-6.945h1.032v6.945h-1.032Zm4.487.159c-1.439 0-2.391-.913-2.391-2.58 0-1.498.992-2.55 2.351-2.55 1.449 0 2.272 1.012 2.272 2.57v.218h-3.582c.02.933.576 1.538 1.36 1.538.555 0 1.041-.268 1.141-.883h1.041c-.099.913-.853 1.687-2.192 1.687Zm-1.34-3.076h2.491c-.01-.754-.457-1.27-1.201-1.27-.724 0-1.22.546-1.29 1.27Zm6.032 3.076c-.873 0-1.657-.556-1.657-1.479 0-1.012.794-1.418 1.736-1.547l.864-.129c.377-.05.506-.189.506-.457 0-.426-.338-.734-.874-.734-.654 0-1.022.357-1.051.903h-1.052c.05-.943.804-1.687 2.034-1.687 1.329 0 1.964.744 1.964 1.975v2.996h-.962v-.218c0-.149.01-.288.02-.437-.248.486-.754.814-1.528.814Zm-.595-1.508c0 .466.367.734.823.734.705 0 1.24-.496 1.24-1.23v-.616c-.079.1-.258.159-.545.209l-.546.109c-.566.109-.972.327-.972.794Zm6.157 1.508c-1.33 0-2.124-.705-2.173-1.786h1.032c.029.615.426 1.002 1.131 1.002.605 0 1.002-.278 1.002-.704 0-.348-.268-.546-.814-.655l-.655-.129c-.952-.179-1.528-.645-1.528-1.419 0-.824.784-1.439 1.925-1.439 1.221 0 1.975.615 2.024 1.608h-1.032c-.049-.526-.426-.824-1.022-.824-.515 0-.873.228-.873.605 0 .338.238.506.814.615l.665.129c.903.179 1.508.606 1.508 1.429 0 .893-.764 1.568-2.004 1.568Zm5.181 0c-1.439 0-2.392-.913-2.392-2.58 0-1.498.993-2.55 2.352-2.55 1.448 0 2.272 1.012 2.272 2.57v.218h-3.582c.02.933.576 1.538 1.359 1.538.556 0 1.042-.268 1.141-.883h1.042c-.099.913-.853 1.687-2.192 1.687Zm-1.34-3.076h2.49c-.009-.754-.456-1.27-1.2-1.27-.724 0-1.22.546-1.29 1.27Zm4.553 2.917v-1.32h1.29v1.32h-1.29Zm2.451 0v-1.32h1.3v1.32h-1.3Zm2.451 0v-1.32h1.299v1.32h-1.299Zm7.088.159c-1.776 0-2.867-.963-2.937-2.471h1.141c.06.983.824 1.548 1.836 1.548.952 0 1.578-.397 1.578-1.111 0-.595-.467-.883-1.261-1.052l-1.111-.238c-1.071-.228-1.934-.853-1.934-1.935 0-1.18 1.101-2.014 2.619-2.014 1.627 0 2.609.873 2.689 2.193h-1.141c-.04-.734-.596-1.27-1.588-1.27-.833 0-1.458.387-1.458.992 0 .566.436.843 1.19 1.002l1.201.258c1.091.228 1.925.834 1.925 1.945 0 1.22-1.002 2.153-2.749 2.153Zm5.76-.08c-.873 0-1.469-.426-1.469-1.498v-2.56h-1.002v-.833h1.002v-1.667h1.032v1.667h1.092v.833h-1.092v2.421c0 .536.238.774.705.774.119 0 .238-.01.367-.03v.824c-.149.04-.387.069-.635.069Zm3 .08c-.873 0-1.656-.556-1.656-1.479 0-1.012.793-1.418 1.736-1.547l.863-.129c.377-.05.506-.189.506-.457 0-.426-.337-.734-.873-.734-.655 0-1.022.357-1.052.903h-1.051c.049-.943.803-1.687 2.033-1.687 1.33 0 1.965.744 1.965 1.975v2.996h-.962v-.218c0-.149.009-.288.019-.437-.248.486-.754.814-1.528.814Zm-.595-1.508c0 .466.367.734.824.734.704 0 1.24-.496 1.24-1.23v-.616c-.079.1-.258.159-.546.209l-.546.109c-.565.109-.972.327-.972.794Zm4.751 3.393.833-2.153-1.905-4.703h1.151l1.111 3.086c.06.178.129.367.189.585.059-.218.119-.407.178-.585l1.022-3.086h1.082l-2.56 6.856h-1.101Zm8.23-1.965c-.873 0-1.468-.426-1.468-1.498v-2.56h-1.002v-.833h1.002v-1.667h1.032v1.667h1.091v.833h-1.091v2.421c0 .536.238.774.704.774.119 0 .238-.01.367-.03v.824c-.149.04-.387.069-.635.069Zm3.289.08c-1.042 0-1.727-.665-1.727-1.915v-3.056h1.032v2.877c0 .794.308 1.28.992 1.28.695 0 1.131-.526 1.131-1.399v-2.758h1.032v4.812h-1.022v-.248c0-.139.01-.288.03-.417-.238.486-.744.824-1.468.824Zm3.807-.159v-4.812h1.032v.268c0 .129-.01.248-.02.397a1.677 1.677 0 0 1 1.478-.824c1.092 0 1.736.725 1.736 1.935v3.036h-1.031v-2.897c0-.804-.318-1.26-.983-1.26-.714 0-1.18.585-1.18 1.3v2.857h-1.032Zm7.626.159c-1.439 0-2.391-.913-2.391-2.58 0-1.498.992-2.55 2.351-2.55 1.449 0 2.272 1.012 2.272 2.57v.218h-3.581c.02.933.575 1.538 1.359 1.538.556 0 1.042-.268 1.141-.883h1.042c-.099.913-.854 1.687-2.193 1.687Zm-1.339-3.076h2.49c-.01-.754-.456-1.27-1.201-1.27-.724 0-1.22.546-1.289 1.27Zm6.567 3.076c-1.27 0-2.213-.893-2.213-2.56 0-1.587.983-2.57 2.233-2.57.774 0 1.27.407 1.518.824-.02-.149-.02-.288-.02-.427v-2.371h1.032v6.945h-1.032v-.238c0-.159 0-.288.02-.427-.228.397-.734.824-1.538.824Zm-1.151-2.56c0 1.062.566 1.756 1.369 1.756.784 0 1.36-.704 1.36-1.766s-.566-1.746-1.36-1.746c-.793 0-1.369.714-1.369 1.756Zm6.594 3.096h9.921v-9.922h-9.921v9.922Z"/></g><defs><clipPath id="a"><rect width="270" height="140" y=".164" fill="#fff" rx="8"/></clipPath></defs></svg>