<svg xmlns="http://www.w3.org/2000/svg" width="270" height="141" fill="none" viewBox="0 0 270 141"><g clip-path="url(#a)"><rect width="270" height="140" y=".25" fill="#fff" rx="8"/><g filter="url(#b)"><rect width="156.644" height="190.583" x="57" y="18.439" fill="#fff" rx="11.082"/><rect width="155.536" height="189.475" x="57.554" y="18.993" stroke="#EAEAEA" stroke-width="1.108" rx="10.527"/></g><path fill="#000" d="M71.537 36.77c-1.271 0-2.084-.825-2.084-2.28 0-1.374.916-2.218 2.126-2.218 1.045 0 1.797.6 1.907 1.614h-.831c-.08-.556-.446-.935-1.076-.935-.757 0-1.301.58-1.301 1.54 0 .995.537 1.6 1.283 1.6.635 0 1.057-.409 1.143-.977h.8c-.104.99-.819 1.656-1.968 1.656Zm3.617-.11v-1.736l-1.613-2.541h.96l.855 1.466c.073.122.146.25.22.403.073-.153.14-.28.213-.403l.868-1.466h.923l-1.62 2.541v1.736h-.806Zm4.468.11c-1.271 0-2.084-.825-2.084-2.28 0-1.374.917-2.218 2.127-2.218 1.045 0 1.796.6 1.906 1.614h-.83c-.08-.556-.447-.935-1.076-.935-.758 0-1.302.58-1.302 1.54 0 .995.538 1.6 1.283 1.6.636 0 1.057-.409 1.143-.977h.8c-.103.99-.818 1.656-1.967 1.656Zm2.6-.11v-4.277h.8v3.598h2.151v.679h-2.95Zm3.473 0v-4.277h2.976v.678h-2.176v1.045h2.084v.684h-2.084v1.191h2.267v.679h-3.067Z"/><path stroke="#000" stroke-linecap="round" stroke-linejoin="round" stroke-width="1.528" d="m201.423 32.641-2.037 2.037-2.036-2.037"/><path fill="#000" d="M72.308 52.953c-1.694 0-2.778-1.1-2.778-3.039 0-1.833 1.222-2.957 2.835-2.957 1.394 0 2.396.798 2.542 2.15H73.8c-.106-.74-.594-1.246-1.434-1.246-1.01 0-1.735.774-1.735 2.053 0 1.328.717 2.135 1.711 2.135.847 0 1.41-.546 1.524-1.304h1.067c-.139 1.32-1.092 2.208-2.624 2.208Zm3.345-.146V48.83h.994v.301c0 .147-.008.27-.032.416.211-.448.57-.848 1.165-.848a.84.84 0 0 1 .211.025v.961a1.136 1.136 0 0 0-.285-.032c-.61 0-1.059.31-1.059 1.181v1.972h-.994Zm4.68.146c-1.189 0-2.028-.766-2.028-2.142 0-1.255.84-2.11 1.996-2.11 1.214 0 1.915.847 1.915 2.142v.22h-2.892c.008.627.407 1.108 1.01 1.108.432 0 .782-.244.847-.66h1.01c-.081.815-.782 1.442-1.857 1.442Zm-1.018-2.607h1.882c-.016-.537-.366-.904-.904-.904s-.92.383-.978.904Zm4.863 2.607c-.693 0-1.37-.456-1.37-1.238 0-.896.693-1.206 1.549-1.32l.57-.073c.326-.041.44-.163.44-.359 0-.277-.228-.521-.652-.521-.464 0-.757.26-.798.676H82.89c.066-.83.742-1.418 1.768-1.418 1.214 0 1.703.652 1.703 1.768v2.339h-.92v-.163c0-.13.016-.253.04-.383-.212.39-.62.692-1.303.692Zm-.359-1.279c0 .35.277.546.627.546a.93.93 0 0 0 .954-.953v-.432c-.09.081-.229.122-.473.171l-.326.065c-.464.09-.782.245-.782.603Zm5.218 1.206c-.848 0-1.296-.424-1.296-1.312v-1.947h-.904v-.79h.904v-1.434h.994v1.434h.978v.79h-.978v1.8c0 .416.163.66.587.66.098 0 .204-.008.301-.024v.75a2.188 2.188 0 0 1-.586.073Zm3.096.073c-1.19 0-2.029-.766-2.029-2.142 0-1.255.84-2.11 1.996-2.11 1.214 0 1.915.847 1.915 2.142v.22h-2.892c.008.627.407 1.108 1.01 1.108.431 0 .782-.244.847-.66h1.01c-.081.815-.782 1.442-1.857 1.442Zm-1.019-2.607h1.882c-.016-.537-.366-.904-.904-.904s-.92.383-.978.904Zm5.807 2.46v-3.185h-.79v-.79h.79v-.456c0-.945.513-1.418 1.28-1.418.252 0 .431.04.529.073v.782a.827.827 0 0 0-.277-.04c-.302 0-.538.17-.538.521v.538h.831v.79h-.83v3.186h-.995Zm4.154.147c-1.19 0-2.028-.766-2.028-2.142 0-1.255.839-2.11 1.996-2.11 1.214 0 1.914.847 1.914 2.142v.22h-2.892c.008.627.407 1.108 1.01 1.108.432 0 .782-.244.848-.66h1.01c-.082.815-.782 1.442-1.858 1.442Zm-1.018-2.607h1.882c-.016-.537-.367-.904-.904-.904-.538 0-.921.383-.978.904Zm5.498 2.607c-1.19 0-2.029-.766-2.029-2.142 0-1.255.839-2.11 1.996-2.11 1.214 0 1.915.847 1.915 2.142v.22h-2.893c.009.627.408 1.108 1.011 1.108.431 0 .782-.244.847-.66h1.01c-.081.815-.782 1.442-1.857 1.442Zm-1.019-2.607h1.882c-.016-.537-.366-.904-.904-.904s-.921.383-.978.904Zm5.294 2.607c-1.051 0-1.816-.717-1.816-2.118 0-1.426.904-2.135 1.833-2.135.619 0 1.002.318 1.23.701-.033-.147-.033-.269-.033-.39v-1.907h.994v5.703h-.994v-.163c0-.139 0-.245.033-.383-.155.293-.513.692-1.247.692Zm-.806-2.126c0 .823.448 1.344 1.043 1.344.594 0 1.034-.546 1.034-1.344 0-.815-.44-1.336-1.034-1.336-.595 0-1.043.546-1.043 1.336Zm6.263 2.126c-.668 0-1.067-.301-1.279-.692.025.155.033.252.033.383v.163h-.994v-5.703h.994v1.906c0 .139-.016.26-.033.391.253-.415.652-.7 1.263-.7.961 0 1.801.806 1.801 2.134 0 1.336-.758 2.118-1.785 2.118Zm-1.303-2.118c0 .79.432 1.336 1.035 1.336.611 0 1.042-.546 1.042-1.336 0-.798-.431-1.344-1.042-1.344-.603 0-1.035.546-1.035 1.344Zm5.018 2.118c-.693 0-1.369-.456-1.369-1.238 0-.896.692-1.206 1.548-1.32l.57-.073c.326-.041.44-.163.44-.359 0-.277-.228-.521-.652-.521-.464 0-.757.26-.798.676h-1.027c.065-.83.742-1.418 1.768-1.418 1.214 0 1.703.652 1.703 1.768v2.339h-.921v-.163c0-.13.017-.253.041-.383-.212.39-.619.692-1.303.692Zm-.359-1.279c0 .35.277.546.627.546a.93.93 0 0 0 .954-.953v-.432c-.09.081-.229.122-.473.171l-.326.065c-.464.09-.782.245-.782.603Zm5.29 1.28c-1.263 0-2.012-.815-2.012-2.135 0-1.328.904-2.119 2.061-2.119s1.784.701 1.882 1.63h-1.01c-.033-.448-.31-.84-.872-.84-.579 0-1.051.473-1.051 1.337 0 .79.415 1.344 1.026 1.344.603 0 .888-.407.937-.88h1.011c-.139 1.01-.791 1.662-1.972 1.662Zm2.695-.147v-5.703h.994v3.3c.081-.115.196-.253.285-.351l1.141-1.222h1.295l-1.654 1.694 1.768 2.282h-1.271l-1.157-1.605-.407.415v1.19h-.994Z"/><path fill="#77777A" d="M71.225 63.88v-4.945h-1.94v-.758h4.775v.758h-1.93v4.945h-.905Zm3.459 0V59.93h.847v3.951h-.847Zm-.033-4.627v-.937h.92v.937h-.92Zm3.57 4.692c-.717 0-1.205-.35-1.205-1.23v-2.102h-.823v-.684h.823V58.56h.847v1.369h.896v.684h-.896v1.988c0 .44.195.636.578.636.098 0 .196-.009.302-.025v.676a2.204 2.204 0 0 1-.522.057Zm1.324-.065v-5.703h.847v5.703h-.847Zm3.684.13c-1.181 0-1.963-.75-1.963-2.118 0-1.23.814-2.094 1.93-2.094 1.19 0 1.866.831 1.866 2.11v.18h-2.94c.016.766.472 1.263 1.115 1.263.457 0 .856-.22.937-.725h.856c-.082.749-.7 1.384-1.8 1.384Zm-1.1-2.525h2.045c-.008-.62-.375-1.043-.986-1.043-.594 0-1.002.448-1.059 1.043Z"/><rect width="131.184" height="18.244" x="69.73" y="69.542" fill="#fff" rx="2.546"/><rect width="131.184" height="18.244" x="69.73" y="69.542" stroke="#D6D6D6" stroke-width="1.018" rx="2.546"/><path fill="#000" d="M76.015 81.106v-5.703h3.83v.758H76.92v1.686h2.778v.766H76.92v2.493h-.905Zm6.315.13c-1.181 0-1.963-.749-1.963-2.118 0-1.23.814-2.093 1.93-2.093 1.19 0 1.866.83 1.866 2.11v.179h-2.94c.016.766.472 1.263 1.115 1.263.457 0 .856-.22.937-.725h.856c-.082.75-.7 1.385-1.8 1.385Zm-1.1-2.525h2.045c-.008-.62-.375-1.043-.986-1.043-.594 0-1.002.448-1.059 1.043Zm4.953 2.526c-.717 0-1.36-.457-1.36-1.214 0-.831.651-1.165 1.425-1.271l.71-.106c.309-.041.415-.155.415-.375 0-.35-.277-.603-.717-.603-.538 0-.84.293-.864.741h-.864c.041-.774.66-1.385 1.67-1.385 1.092 0 1.614.611 1.614 1.622v2.46h-.79v-.179c0-.122.008-.236.016-.359-.204.4-.62.669-1.255.669Zm-.489-1.239c0 .383.302.603.677.603.578 0 1.018-.407 1.018-1.01v-.505c-.065.081-.212.13-.448.17l-.448.09c-.465.09-.799.27-.799.652Zm5.114 1.173c-.717 0-1.206-.35-1.206-1.23V77.84h-.823v-.684h.823v-1.369h.847v1.369h.897v.684h-.897v1.988c0 .44.196.636.579.636.098 0 .195-.009.301-.025v.676a2.202 2.202 0 0 1-.521.057Zm2.7.066c-.855 0-1.417-.546-1.417-1.573v-2.51h.847v2.364c0 .651.253 1.05.815 1.05.57 0 .928-.431.928-1.148v-2.265h.848v3.951h-.84v-.203c0-.115.009-.237.025-.343-.195.4-.61.677-1.206.677Zm3.127-.13v-3.952h.847v.236c0 .155 0 .302-.016.448.203-.448.603-.814 1.197-.814.065 0 .13 0 .196.016v.823c-.057-.008-.139-.025-.253-.025-.684 0-1.124.367-1.124 1.239v2.028h-.847Zm4.543.13c-1.181 0-1.963-.75-1.963-2.119 0-1.23.815-2.093 1.931-2.093 1.189 0 1.865.83 1.865 2.11v.179h-2.941c.017.766.473 1.263 1.116 1.263.457 0 .856-.22.937-.725h.856c-.082.75-.701 1.385-1.801 1.385Zm-1.1-2.526h2.045c-.008-.62-.374-1.043-.985-1.043-.595 0-1.003.448-1.06 1.043Zm5.295 2.526c-1.091 0-1.743-.579-1.784-1.467h.847c.025.505.351.823.929.823.497 0 .823-.228.823-.579 0-.285-.22-.448-.668-.537l-.538-.106c-.782-.147-1.254-.53-1.254-1.165 0-.676.643-1.181 1.58-1.181 1.002 0 1.621.505 1.662 1.32h-.847c-.041-.433-.35-.677-.839-.677-.424 0-.717.188-.717.497 0 .277.195.416.668.505l.546.106c.741.147 1.238.497 1.238 1.173 0 .734-.627 1.288-1.646 1.288Zm4.349-.13v-3.952h.848v.236c0 .155 0 .302-.017.448.204-.448.603-.814 1.198-.814a.8.8 0 0 1 .196.016v.823c-.057-.008-.139-.025-.253-.025-.684 0-1.124.367-1.124 1.239v2.028h-.848Zm4.544.13c-1.181 0-1.963-.75-1.963-2.119 0-1.23.814-2.093 1.931-2.093 1.189 0 1.865.83 1.865 2.11v.179h-2.941c.016.766.473 1.263 1.116 1.263.456 0 .856-.22.937-.725h.856c-.082.75-.701 1.385-1.801 1.385Zm-1.1-2.526h2.045c-.008-.62-.375-1.043-.986-1.043-.594 0-1.002.448-1.059 1.043Zm6.648 2.208c0-.122 0-.236.016-.359-.212.375-.652.677-1.271.677-1.059 0-1.817-.758-1.817-2.102 0-1.247.774-2.11 1.841-2.11.603 0 1.035.301 1.263.676-.016-.139-.016-.245-.016-.367v-.18h.831v5.63h-.847V80.92Zm-2.2-1.784c0 .92.464 1.442 1.116 1.442.652 0 1.124-.546 1.124-1.442 0-.888-.448-1.442-1.108-1.442-.668 0-1.132.562-1.132 1.442Zm5.531 2.102c-.856 0-1.418-.546-1.418-1.573v-2.51h.848v2.364c0 .651.252 1.05.814 1.05.571 0 .929-.431.929-1.148v-2.265h.847v3.951h-.839v-.203c0-.115.008-.237.025-.343-.196.4-.611.677-1.206.677Zm4.853 0c-1.181 0-1.963-.75-1.963-2.119 0-1.23.815-2.093 1.931-2.093 1.189 0 1.865.83 1.865 2.11v.179h-2.941c.017.766.473 1.263 1.117 1.263.456 0 .855-.22.936-.725h.856c-.082.75-.701 1.385-1.801 1.385Zm-1.099-2.526h2.044c-.008-.62-.374-1.043-.985-1.043-.595 0-1.002.448-1.059 1.043Zm5.294 2.526c-1.091 0-1.743-.579-1.784-1.467h.848c.024.505.35.823.928.823.497 0 .823-.228.823-.579 0-.285-.22-.448-.668-.537l-.538-.106c-.782-.147-1.254-.53-1.254-1.165 0-.676.643-1.181 1.58-1.181 1.002 0 1.622.505 1.662 1.32h-.847c-.041-.433-.35-.677-.839-.677-.424 0-.717.188-.717.497 0 .277.195.416.668.505l.546.106c.741.147 1.238.497 1.238 1.173 0 .734-.627 1.288-1.646 1.288Zm4.044-.066c-.716 0-1.205-.35-1.205-1.23V77.84h-.823v-.684h.823v-1.369h.847v1.369h.896v.684h-.896v1.988c0 .44.196.636.578.636.098 0 .196-.009.302-.025v.676a2.205 2.205 0 0 1-.522.057Zm3.496-.065V77.84h-.766v-.684h.766v-.595c0-.855.513-1.295 1.198-1.295.212 0 .383.04.464.073v.684a1.131 1.131 0 0 0-.26-.032c-.335 0-.554.195-.554.554v.61h.822v.685h-.822v3.267h-.848Zm4.011.13c-1.165 0-1.98-.814-1.98-2.101 0-1.263.823-2.11 1.98-2.11 1.165 0 1.988.847 1.988 2.11 0 1.287-.823 2.102-1.988 2.102Zm-1.116-2.101c0 .88.432 1.442 1.116 1.442.684 0 1.124-.563 1.124-1.442 0-.897-.448-1.442-1.124-1.442-.668 0-1.116.545-1.116 1.442Zm3.979 1.971v-3.951h.847v.236c0 .155 0 .302-.016.448.204-.448.603-.814 1.198-.814.065 0 .13 0 .195.016v.823c-.057-.008-.138-.025-.252-.025-.685 0-1.125.367-1.125 1.239v2.028h-.847Zm4.657 0v-5.703h2.314c1.084 0 1.882.424 1.882 1.434 0 .668-.48 1.092-1.034 1.255.716.179 1.189.66 1.189 1.393 0 1.238-1.067 1.621-2.2 1.621h-2.151Zm.897-.766h1.336c.814 0 1.189-.317 1.189-.92 0-.579-.326-.913-1.206-.913h-1.319v1.833Zm0-2.59h1.303c.709 0 1.067-.302 1.067-.815 0-.465-.301-.774-1.042-.774h-1.328v1.589Zm4.367 3.356v-3.951h.848v.236c0 .155 0 .302-.017.448.204-.448.603-.814 1.198-.814a.8.8 0 0 1 .196.016v.823c-.058-.008-.139-.025-.253-.025-.684 0-1.124.367-1.124 1.239v2.028h-.848Zm2.896 0v-3.951h.848v3.951h-.848Zm-.032-4.627v-.937h.92v.937h-.92Zm3.13 4.758c-.717 0-1.36-.457-1.36-1.214 0-.831.651-1.165 1.425-1.271l.709-.106c.31-.041.416-.155.416-.375 0-.35-.277-.603-.717-.603-.538 0-.839.293-.864.741h-.863c.04-.774.659-1.385 1.67-1.385 1.091 0 1.613.611 1.613 1.622v2.46h-.79v-.179c0-.122.008-.236.016-.359-.204.4-.619.669-1.255.669Zm-.489-1.239c0 .383.302.603.677.603.578 0 1.018-.407 1.018-1.01v-.505c-.065.081-.212.13-.448.17l-.448.09c-.465.09-.799.27-.799.652Zm3.573 1.108v-3.951h.848v.22c0 .106-.009.204-.017.326a1.379 1.379 0 0 1 1.214-.676c.896 0 1.426.594 1.426 1.588v2.493h-.847v-2.379c0-.66-.261-1.034-.807-1.034-.587 0-.969.48-.969 1.067v2.346h-.848Z"/><path fill="#77777A" d="M69.905 100.369v-5.703h1.866c1.882 0 3.039.904 3.039 2.852 0 1.727-1.01 2.851-2.942 2.851h-1.963Zm.904-.766h.978c1.287 0 2.094-.627 2.094-2.085 0-1.328-.676-2.094-2.11-2.094h-.962v4.18Zm6.628.896c-1.181 0-1.963-.749-1.963-2.118 0-1.23.814-2.094 1.93-2.094 1.19 0 1.866.831 1.866 2.11v.18h-2.94c.015.766.472 1.263 1.115 1.263.457 0 .856-.22.937-.725h.856c-.082.749-.701 1.384-1.8 1.384Zm-1.1-2.525h2.045c-.008-.62-.375-1.043-.986-1.043-.594 0-1.002.448-1.059 1.043Zm5.295 2.525c-1.091 0-1.743-.578-1.784-1.466h.847c.025.505.35.823.93.823.496 0 .822-.228.822-.579 0-.285-.22-.448-.668-.537l-.538-.106c-.782-.147-1.254-.53-1.254-1.165 0-.676.643-1.181 1.58-1.181 1.002 0 1.621.505 1.662 1.32h-.847c-.04-.433-.35-.677-.84-.677-.423 0-.716.188-.716.497 0 .277.195.416.668.505l.546.106c.741.147 1.238.497 1.238 1.173 0 .733-.627 1.287-1.646 1.287Zm4.27 0c-1.164 0-1.979-.757-1.979-2.11 0-1.287.88-2.102 2.02-2.102 1.043 0 1.703.628 1.793 1.54h-.864c-.049-.48-.366-.871-.937-.871-.668 0-1.148.57-1.148 1.433 0 .864.456 1.45 1.14 1.45.595 0 .93-.374.994-.888h.847c-.105.93-.74 1.548-1.865 1.548Zm2.681-.13v-3.951h.847v.236c0 .155 0 .302-.016.448.204-.448.603-.815 1.198-.815.065 0 .13 0 .195.017v.823c-.057-.008-.138-.025-.252-.025-.685 0-1.125.367-1.125 1.239v2.028h-.847Zm2.896 0v-3.951h.847v3.951h-.847Zm-.033-4.627v-.937h.921v.937h-.92Zm1.99 6.305v-5.63h.847v.229c0 .106 0 .204-.016.326.237-.391.693-.684 1.304-.684 1.091 0 1.776.88 1.776 2.11 0 1.27-.758 2.101-1.809 2.101-.61 0-1.018-.277-1.27-.676.016.13.016.237.016.351v1.873h-.848Zm.807-3.658c0 .864.464 1.45 1.124 1.45.668 0 1.108-.594 1.108-1.45 0-.839-.432-1.433-1.108-1.433-.652 0-1.124.553-1.124 1.433Zm5.484 2.045c-.717 0-1.206-.35-1.206-1.23v-2.102h-.823v-.684h.823v-1.369h.847v1.369h.896v.684h-.896v1.988c0 .44.196.635.579.635.098 0 .195-.008.301-.024v.676a2.18 2.18 0 0 1-.521.057Zm1.323-.065v-3.951h.848v3.951h-.848Zm-.032-4.627v-.937h.92v.937h-.92Zm3.733 4.757c-1.165 0-1.98-.814-1.98-2.102 0-1.262.823-2.11 1.98-2.11 1.165 0 1.988.848 1.988 2.11 0 1.288-.823 2.102-1.988 2.102Zm-1.116-2.102c0 .88.432 1.443 1.116 1.443.684 0 1.124-.563 1.124-1.443 0-.896-.448-1.442-1.124-1.442-.668 0-1.116.546-1.116 1.442Zm3.979 1.972v-3.951h.847v.22c0 .106-.008.203-.016.326a1.378 1.378 0 0 1 1.214-.677c.896 0 1.426.595 1.426 1.59v2.492h-.848V97.99c0-.66-.26-1.034-.806-1.034-.587 0-.97.48-.97 1.067v2.346h-.847Z"/><g clip-path="url(#c)"><path fill="#fff" d="M135.322 106.031h63.046a2.546 2.546 0 0 1 2.546 2.546v13.152a2.546 2.546 0 0 1-2.546 2.546h-63.046v-18.244Z"/><path stroke="#D6D6D6" stroke-width="1.018" d="M135.322 106.031h63.046a2.546 2.546 0 0 1 2.546 2.546v13.152a2.546 2.546 0 0 1-2.546 2.546h-63.046v-18.244Z"/><path fill="#000" d="M156.137 117.726c-1.662 0-2.754-1.116-2.754-3.023 0-1.8 1.198-2.949 2.786-2.949 1.385 0 2.363.823 2.485 2.061h-.961c-.122-.79-.652-1.295-1.54-1.295-1.084 0-1.833.823-1.833 2.183 0 1.385.758 2.257 1.825 2.257.888 0 1.475-.538 1.605-1.32h.92c-.146 1.271-1.091 2.086-2.533 2.086Zm4.73 0c-.855 0-1.418-.546-1.418-1.573v-2.509h.848v2.363c0 .652.252 1.051.814 1.051.571 0 .929-.432.929-1.149v-2.265h.847v3.951h-.839v-.203c0-.114.008-.236.025-.342-.196.399-.611.676-1.206.676Zm4.609 0c-1.092 0-1.743-.579-1.784-1.467h.847c.025.505.351.823.929.823.497 0 .823-.228.823-.578 0-.285-.22-.448-.668-.538l-.538-.106c-.782-.147-1.255-.529-1.255-1.165 0-.676.644-1.181 1.581-1.181 1.002 0 1.621.505 1.662 1.32h-.847c-.041-.432-.351-.677-.84-.677-.423 0-.716.188-.716.497 0 .277.195.416.668.505l.545.106c.742.147 1.239.497 1.239 1.174 0 .733-.628 1.287-1.646 1.287Zm4.044-.065c-.717 0-1.206-.351-1.206-1.231v-2.102h-.823v-.684h.823v-1.369h.848v1.369h.896v.684h-.896v1.988c0 .44.195.636.578.636.098 0 .196-.008.302-.025v.677a2.244 2.244 0 0 1-.522.057Zm3.019.065c-1.165 0-1.979-.815-1.979-2.102 0-1.263.822-2.11 1.979-2.11 1.165 0 1.988.847 1.988 2.11 0 1.287-.823 2.102-1.988 2.102Zm-1.116-2.102c0 .88.432 1.442 1.116 1.442.685 0 1.125-.562 1.125-1.442 0-.896-.449-1.442-1.125-1.442-.668 0-1.116.546-1.116 1.442Zm3.979 1.971v-3.951h.848v.245c0 .097 0 .203-.017.301.22-.367.603-.676 1.149-.676.505 0 .929.318 1.116.757a1.488 1.488 0 0 1 1.279-.757c.799 0 1.377.562 1.377 1.588v2.493h-.847v-2.354c0-.66-.228-1.059-.741-1.059-.53 0-.864.472-.864 1.083v2.33h-.847v-2.338c0-.668-.22-1.075-.734-1.075-.521 0-.871.464-.871 1.1v2.313h-.848Z"/><path fill="#CDDCFA" d="M72.276 106.031h63.046v18.244H72.276a2.545 2.545 0 0 1-2.546-2.546v-13.152a2.546 2.546 0 0 1 2.546-2.546Z"/><path stroke="#307FFF" stroke-width="1.018" d="M72.276 106.031h63.046v18.244H72.276a2.545 2.545 0 0 1-2.546-2.546v-13.152a2.546 2.546 0 0 1 2.546-2.546Z"/><path fill="#307FFF" d="M81.016 117.726c-1.662 0-2.754-1.116-2.754-3.023 0-1.8 1.198-2.949 2.787-2.949 1.385 0 2.362.823 2.485 2.061h-.962c-.122-.79-.651-1.295-1.54-1.295-1.083 0-1.833.823-1.833 2.183 0 1.385.758 2.257 1.825 2.257.888 0 1.475-.538 1.605-1.32h.92c-.146 1.271-1.09 2.086-2.533 2.086Zm5.097 0c-1.165 0-1.98-.815-1.98-2.102 0-1.263.823-2.11 1.98-2.11 1.165 0 1.988.847 1.988 2.11 0 1.287-.823 2.102-1.988 2.102Zm-1.116-2.102c0 .88.432 1.442 1.116 1.442.684 0 1.124-.562 1.124-1.442 0-.896-.448-1.442-1.124-1.442-.668 0-1.116.546-1.116 1.442Zm3.98 1.971v-3.951h.846v.22c0 .106-.008.204-.016.326a1.377 1.377 0 0 1 1.214-.676c.896 0 1.426.595 1.426 1.588v2.493H91.6v-2.378c0-.66-.261-1.035-.807-1.035-.587 0-.97.481-.97 1.067v2.346h-.847Zm5.497 0-1.499-3.951h.912l.937 2.729c.066.171.098.294.139.448.04-.154.081-.277.138-.448l.921-2.729h.88l-1.475 3.951h-.953Zm4.71.131c-1.18 0-1.963-.75-1.963-2.118 0-1.231.815-2.094 1.931-2.094 1.189 0 1.866.831 1.866 2.11v.179h-2.941c.016.766.472 1.263 1.116 1.263.456 0 .855-.22.937-.725h.855c-.081.749-.701 1.385-1.8 1.385Zm-1.1-2.526h2.046c-.009-.619-.375-1.043-.986-1.043-.595 0-1.002.448-1.06 1.043Zm3.813 2.395v-3.951h.847v.236c0 .155 0 .302-.016.448.204-.448.603-.814 1.198-.814.065 0 .13 0 .195.016v.823c-.057-.008-.138-.025-.253-.025-.684 0-1.124.367-1.124 1.239v2.028h-.847Zm4.339.131c-1.092 0-1.744-.579-1.784-1.467h.847c.024.505.35.823.929.823.497 0 .823-.228.823-.578 0-.285-.22-.448-.668-.538l-.538-.106c-.782-.147-1.255-.529-1.255-1.165 0-.676.644-1.181 1.581-1.181 1.002 0 1.621.505 1.662 1.32h-.848c-.04-.432-.35-.677-.839-.677-.423 0-.717.188-.717.497 0 .277.196.416.668.505l.546.106c.742.147 1.239.497 1.239 1.174 0 .733-.628 1.287-1.646 1.287Zm3.668 0c-.717 0-1.361-.456-1.361-1.214 0-.831.652-1.165 1.426-1.271l.709-.106c.309-.041.415-.155.415-.375 0-.35-.277-.603-.717-.603-.538 0-.839.294-.863.742h-.864c.041-.774.66-1.385 1.67-1.385 1.092 0 1.613.611 1.613 1.621v2.46h-.79v-.179c0-.122.008-.236.016-.358-.203.399-.619.668-1.254.668Zm-.489-1.239c0 .383.301.603.676.603.578 0 1.018-.407 1.018-1.01v-.505c-.065.081-.211.13-.448.171l-.448.09c-.464.089-.798.269-.798.651Zm5.113 1.174c-.716 0-1.205-.351-1.205-1.231v-2.102h-.823v-.684h.823v-1.369h.847v1.369h.896v.684h-.896v1.988c0 .44.196.636.578.636.098 0 .196-.008.302-.025v.677a2.237 2.237 0 0 1-.522.057Zm1.324-.066v-3.951h.847v3.951h-.847Zm-.033-4.627v-.937h.921v.937h-.921Zm3.734 4.758c-1.165 0-1.98-.815-1.98-2.102 0-1.263.823-2.11 1.98-2.11 1.165 0 1.988.847 1.988 2.11 0 1.287-.823 2.102-1.988 2.102Zm-1.117-2.102c0 .88.432 1.442 1.117 1.442.684 0 1.124-.562 1.124-1.442 0-.896-.448-1.442-1.124-1.442-.668 0-1.117.546-1.117 1.442Zm3.98 1.971v-3.951h.847v.22c0 .106-.008.204-.016.326a1.376 1.376 0 0 1 1.214-.676c.896 0 1.425.595 1.425 1.588v2.493h-.847v-2.378c0-.66-.261-1.035-.806-1.035-.587 0-.97.481-.97 1.067v2.346h-.847Z"/></g><path fill="#77777A" d="m69.22 136.858 2.314-5.703h1.06l2.322 5.703h-1.01l-.612-1.629h-2.493l-.619 1.629h-.961Zm1.866-2.387h1.923l-.766-2.029a22.28 22.28 0 0 1-.195-.545c-.057.187-.13.358-.196.545l-.766 2.029Zm5.868 2.518c-1.092 0-1.743-.579-1.784-1.467h.847c.025.505.35.823.929.823.497 0 .823-.228.823-.579 0-.285-.22-.448-.668-.537l-.538-.106c-.782-.147-1.255-.53-1.255-1.165 0-.676.644-1.182 1.58-1.182 1.003 0 1.622.506 1.663 1.32h-.847c-.041-.431-.35-.676-.84-.676-.423 0-.717.187-.717.497 0 .277.196.416.669.505l.545.106c.742.147 1.239.497 1.239 1.173 0 .734-.628 1.288-1.646 1.288Zm4.01 0c-1.092 0-1.743-.579-1.784-1.467h.847c.025.505.35.823.929.823.497 0 .823-.228.823-.579 0-.285-.22-.448-.668-.537l-.538-.106c-.782-.147-1.255-.53-1.255-1.165 0-.676.644-1.182 1.58-1.182 1.003 0 1.622.506 1.663 1.32h-.848c-.04-.431-.35-.676-.839-.676-.423 0-.717.187-.717.497 0 .277.196.416.668.505l.546.106c.742.147 1.239.497 1.239 1.173 0 .734-.628 1.288-1.646 1.288Zm2.527-.131v-3.951h.847v3.951h-.847Zm-.032-4.627v-.937h.92v.937h-.92Zm3.708 6.436c-1.108 0-1.776-.603-1.776-1.483h.847c.009.497.359.823.946.823.627 0 1.067-.35 1.067-1.067v-.457c0-.13.008-.252.016-.374-.22.374-.66.651-1.263.651-1.059 0-1.784-.749-1.784-1.987 0-1.223.823-1.997 1.776-1.997.676 0 1.051.31 1.271.677a4.78 4.78 0 0 1-.016-.351v-.195h.847v3.788c0 1.328-.717 1.972-1.93 1.972Zm-1.075-3.894c0 .79.456 1.319 1.108 1.319.644 0 1.108-.537 1.108-1.319 0-.774-.465-1.328-1.108-1.328-.652 0-1.108.545-1.108 1.328Zm4.114 2.085v-3.951h.847v.22c0 .106-.008.203-.016.326a1.378 1.378 0 0 1 1.214-.677c.896 0 1.426.595 1.426 1.589v2.493h-.848v-2.379c0-.66-.26-1.034-.806-1.034-.587 0-.97.48-.97 1.067v2.346h-.847Zm6.262.131c-1.181 0-1.963-.75-1.963-2.119 0-1.23.815-2.094 1.93-2.094 1.19 0 1.866.831 1.866 2.111v.179h-2.94c.015.766.472 1.263 1.115 1.263.457 0 .856-.22.937-.725h.856c-.082.749-.7 1.385-1.8 1.385Zm-1.1-2.526h2.045c-.008-.619-.374-1.043-.986-1.043-.594 0-1.002.448-1.059 1.043Zm5.54 2.526c-1.182 0-1.964-.75-1.964-2.119 0-1.23.815-2.094 1.931-2.094 1.19 0 1.866.831 1.866 2.111v.179H99.8c.016.766.472 1.263 1.116 1.263.456 0 .855-.22.937-.725h.855c-.081.749-.7 1.385-1.8 1.385Zm-1.1-2.526h2.045c-.008-.619-.375-1.043-.986-1.043-.595 0-1.002.448-1.06 1.043Z"/></g><defs><clipPath id="a"><rect width="270" height="140" y=".25" fill="#fff" rx="8"/></clipPath><clipPath id="c"><path fill="#fff" d="M69.22 105.522h132.204v19.263H69.22z"/></clipPath><filter id="b" width="192.104" height="226.044" x="39.27" y="5.141" color-interpolation-filters="sRGB" filterUnits="userSpaceOnUse"><feFlood flood-opacity="0" result="BackgroundImageFix"/><feColorMatrix in="SourceAlpha" result="hardAlpha" values="0 0 0 0 0 0 0 0 0 0 0 0 0 0 0 0 0 0 127 0"/><feOffset dy="4.433"/><feGaussianBlur stdDeviation="8.865"/><feComposite in2="hardAlpha" operator="out"/><feColorMatrix values="0 0 0 0 0 0 0 0 0 0 0 0 0 0 0 0 0 0 0.05 0"/><feBlend in2="BackgroundImageFix" result="effect1_dropShadow_3874_491"/><feBlend in="SourceGraphic" in2="effect1_dropShadow_3874_491" result="shape"/></filter></defs></svg>