<svg width="270" height="141" viewBox="0 0 270 141" fill="none" xmlns="http://www.w3.org/2000/svg">
<rect y="0.330078" width="270" height="140" rx="8" fill="white"/>
<g filter="url(#filter0_d_3874_290)">
<rect x="26" y="40" width="219" height="61" rx="10" fill="white" shape-rendering="crispEdges"/>
<rect x="26.5" y="40.5" width="218" height="60" rx="9.5" stroke="#EAEAEA" shape-rendering="crispEdges"/>
<path d="M75.8525 71.499V65.0375H76.8771V71.499H75.8525ZM80.0647 71.5729C79.2524 71.5729 78.6986 71.1759 78.6986 70.179V67.7975H77.7663V67.0221H78.6986V65.4713H79.6586V67.0221H80.674V67.7975H79.6586V70.0498C79.6586 70.5483 79.8801 70.7698 80.314 70.7698C80.4247 70.7698 80.5355 70.7606 80.6555 70.7421V71.5083C80.517 71.5452 80.2955 71.5729 80.0647 71.5729ZM84.3795 71.499L82.9671 67.0221H83.9733L84.8687 70.1975C84.9056 70.3359 84.9425 70.4836 84.9702 70.6313C85.0071 70.4744 85.0441 70.3267 85.081 70.1975L85.9395 67.0221H87.1856L88.0718 70.1975C88.1087 70.3267 88.1456 70.4652 88.1733 70.6221C88.2102 70.4652 88.2379 70.3267 88.2841 70.1883L89.1702 67.0221H90.1118L88.7271 71.499H87.5733L86.6687 68.2775C86.641 68.1575 86.6041 68.0098 86.5671 67.8344C86.5395 68.0098 86.5025 68.1483 86.4564 68.2775L85.561 71.499H84.3795ZM92.7884 71.6467C91.4684 71.6467 90.5453 70.7236 90.5453 69.2652C90.5453 67.8344 91.4776 66.8744 92.7884 66.8744C94.1084 66.8744 95.0407 67.8344 95.0407 69.2652C95.0407 70.7236 94.1084 71.6467 92.7884 71.6467ZM91.5238 69.2652C91.5238 70.2621 92.013 70.899 92.7884 70.899C93.5638 70.899 94.0622 70.2621 94.0622 69.2652C94.0622 68.2498 93.5546 67.6313 92.7884 67.6313C92.0315 67.6313 91.5238 68.2498 91.5238 69.2652ZM97.5924 71.6467C96.6231 71.6467 95.9862 71.0283 95.9862 69.8652V67.0221H96.9462V69.699C96.9462 70.4375 97.2324 70.8898 97.8693 70.8898C98.5154 70.8898 98.9216 70.4006 98.9216 69.5883V67.0221H99.8816V71.499H98.9308V71.2683C98.9308 71.139 98.9401 71.0006 98.9585 70.8806C98.737 71.3329 98.2662 71.6467 97.5924 71.6467ZM101.135 71.499V65.0375H102.095V71.499H101.135ZM105.143 71.6467C103.961 71.6467 103.084 70.8159 103.084 69.2652C103.084 67.7883 103.998 66.8744 105.161 66.8744C105.881 66.8744 106.343 67.2529 106.574 67.6406C106.555 67.5021 106.555 67.3729 106.555 67.2436V65.0375H107.515V71.499H106.555V71.2775C106.555 71.1298 106.555 71.0098 106.574 70.8806C106.361 71.2498 105.891 71.6467 105.143 71.6467ZM104.072 69.2652C104.072 70.2529 104.598 70.899 105.346 70.899C106.075 70.899 106.611 70.2436 106.611 69.2559C106.611 68.2683 106.084 67.6313 105.346 67.6313C104.607 67.6313 104.072 68.2959 104.072 69.2652ZM113.225 71.6467C112.542 71.6467 112.034 71.3236 111.776 70.8806C111.794 71.0283 111.794 71.1483 111.794 71.2867V71.499H110.834V65.0375H111.794V67.2436C111.794 67.3821 111.785 67.5113 111.776 67.6406C112.062 67.2067 112.542 66.8744 113.225 66.8744C114.416 66.8744 115.274 67.8344 115.274 69.2652C115.274 70.7236 114.434 71.6467 113.225 71.6467ZM111.739 69.2652C111.739 70.2344 112.265 70.899 113.013 70.899C113.769 70.899 114.286 70.2344 114.286 69.2652C114.286 68.3052 113.769 67.6313 113.013 67.6313C112.265 67.6313 111.739 68.2683 111.739 69.2652ZM118.2 71.6467C116.861 71.6467 115.975 70.7975 115.975 69.2467C115.975 67.8529 116.898 66.8744 118.163 66.8744C119.51 66.8744 120.277 67.8159 120.277 69.2652V69.4683H116.944C116.963 70.3359 117.48 70.899 118.209 70.899C118.726 70.899 119.178 70.6498 119.27 70.0775H120.24C120.147 70.9267 119.446 71.6467 118.2 71.6467ZM116.953 68.7852H119.27C119.261 68.0836 118.846 67.6036 118.153 67.6036C117.48 67.6036 117.018 68.1113 116.953 68.7852ZM124.629 71.6467C123.817 71.6467 123.088 71.1298 123.088 70.2713C123.088 69.3298 123.826 68.9513 124.703 68.8313L125.506 68.7113C125.857 68.6652 125.977 68.5359 125.977 68.2867C125.977 67.8898 125.663 67.6036 125.165 67.6036C124.556 67.6036 124.214 67.9359 124.186 68.4436H123.208C123.254 67.5667 123.956 66.8744 125.1 66.8744C126.337 66.8744 126.928 67.5667 126.928 68.7113V71.499H126.032V71.2959C126.032 71.1575 126.042 71.0283 126.051 70.8898C125.82 71.3421 125.349 71.6467 124.629 71.6467ZM124.076 70.2436C124.076 70.6775 124.417 70.9267 124.842 70.9267C125.497 70.9267 125.996 70.4652 125.996 69.7821V69.2098C125.922 69.3021 125.756 69.3575 125.488 69.4036L124.98 69.5052C124.454 69.6067 124.076 69.8098 124.076 70.2436ZM128.124 71.499V67.0221H129.084V67.299C129.084 67.4098 129.084 67.5298 129.065 67.6406C129.314 67.2252 129.748 66.8744 130.367 66.8744C130.939 66.8744 131.419 67.2344 131.631 67.7329C131.908 67.2529 132.434 66.8744 133.081 66.8744C133.985 66.8744 134.641 67.5113 134.641 68.6744V71.499H133.681V68.8313C133.681 68.0836 133.422 67.6313 132.841 67.6313C132.241 67.6313 131.862 68.1667 131.862 68.859V71.499H130.902V68.8498C130.902 68.0929 130.653 67.6313 130.071 67.6313C129.481 67.6313 129.084 68.1575 129.084 68.8775V71.499H128.124ZM137.141 71.6467C136.329 71.6467 135.6 71.1298 135.6 70.2713C135.6 69.3298 136.338 68.9513 137.215 68.8313L138.018 68.7113C138.369 68.6652 138.489 68.5359 138.489 68.2867C138.489 67.8898 138.175 67.6036 137.677 67.6036C137.068 67.6036 136.726 67.9359 136.698 68.4436H135.72C135.766 67.5667 136.468 66.8744 137.612 66.8744C138.849 66.8744 139.44 67.5667 139.44 68.7113V71.499H138.544V71.2959C138.544 71.1575 138.554 71.0283 138.563 70.8898C138.332 71.3421 137.861 71.6467 137.141 71.6467ZM136.588 70.2436C136.588 70.6775 136.929 70.9267 137.354 70.9267C138.009 70.9267 138.508 70.4652 138.508 69.7821V69.2098C138.434 69.3021 138.268 69.3575 138 69.4036L137.492 69.5052C136.966 69.6067 136.588 69.8098 136.588 70.2436ZM140.322 71.499V70.6683L142.676 68.0744C142.787 67.9544 142.87 67.8621 142.962 67.779H140.423V67.0221H143.987V67.8621L141.651 70.4375C141.559 70.5483 141.457 70.6498 141.356 70.7421H144.07V71.499H140.322ZM144.999 71.499V67.0221H145.959V71.499H144.999ZM144.962 66.2559V65.1944H146.005V66.2559H144.962ZM147.216 71.499V67.0221H148.176V67.2713C148.176 67.3913 148.167 67.5021 148.158 67.6406C148.398 67.2252 148.878 66.8744 149.533 66.8744C150.549 66.8744 151.149 67.5483 151.149 68.6744V71.499H150.189V68.8036C150.189 68.0559 149.893 67.6313 149.275 67.6313C148.61 67.6313 148.176 68.1759 148.176 68.8406V71.499H147.216ZM154.302 73.5483C153.047 73.5483 152.29 72.8652 152.29 71.8683H153.25C153.259 72.4313 153.656 72.8006 154.321 72.8006C155.031 72.8006 155.53 72.4036 155.53 71.5913V71.0744C155.53 70.9267 155.539 70.7883 155.548 70.6498C155.299 71.0744 154.801 71.3883 154.118 71.3883C152.918 71.3883 152.096 70.539 152.096 69.1359C152.096 67.7513 153.028 66.8744 154.108 66.8744C154.874 66.8744 155.299 67.2252 155.548 67.6406C155.539 67.5113 155.53 67.3821 155.53 67.2436V67.0221H156.49V71.3144C156.49 72.819 155.678 73.5483 154.302 73.5483ZM153.084 69.1359C153.084 70.0313 153.601 70.6313 154.339 70.6313C155.068 70.6313 155.594 70.0221 155.594 69.1359C155.594 68.259 155.068 67.6313 154.339 67.6313C153.601 67.6313 153.084 68.2498 153.084 69.1359ZM161.429 71.5729C160.617 71.5729 160.063 71.1759 160.063 70.179V67.7975H159.13V67.0221H160.063V65.4713H161.023V67.0221H162.038V67.7975H161.023V70.0498C161.023 70.5483 161.244 70.7698 161.678 70.7698C161.789 70.7698 161.9 70.7606 162.02 70.7421V71.5083C161.881 71.5452 161.66 71.5729 161.429 71.5729ZM164.85 71.6467C163.53 71.6467 162.607 70.7236 162.607 69.2652C162.607 67.8344 163.539 66.8744 164.85 66.8744C166.17 66.8744 167.102 67.8344 167.102 69.2652C167.102 70.7236 166.17 71.6467 164.85 71.6467ZM163.585 69.2652C163.585 70.2621 164.074 70.899 164.85 70.899C165.625 70.899 166.124 70.2621 166.124 69.2652C166.124 68.2498 165.616 67.6313 164.85 67.6313C164.093 67.6313 163.585 68.2498 163.585 69.2652ZM170.158 71.499V65.0375H171.118V67.2344C171.118 67.3636 171.118 67.4929 171.1 67.6406C171.349 67.2067 171.82 66.8744 172.475 66.8744C173.49 66.8744 174.09 67.5483 174.09 68.6744V71.499H173.13V68.8036C173.13 68.0559 172.826 67.6313 172.207 67.6313C171.552 67.6313 171.118 68.1759 171.118 68.8406V71.499H170.158ZM176.588 71.6467C175.776 71.6467 175.047 71.1298 175.047 70.2713C175.047 69.3298 175.785 68.9513 176.662 68.8313L177.465 68.7113C177.816 68.6652 177.936 68.5359 177.936 68.2867C177.936 67.8898 177.622 67.6036 177.124 67.6036C176.515 67.6036 176.173 67.9359 176.145 68.4436H175.167C175.213 67.5667 175.915 66.8744 177.059 66.8744C178.296 66.8744 178.887 67.5667 178.887 68.7113V71.499H177.992V71.2959C177.992 71.1575 178.001 71.0283 178.01 70.8898C177.779 71.3421 177.308 71.6467 176.588 71.6467ZM176.035 70.2436C176.035 70.6775 176.376 70.9267 176.801 70.9267C177.456 70.9267 177.955 70.4652 177.955 69.7821V69.2098C177.881 69.3021 177.715 69.3575 177.447 69.4036L176.939 69.5052C176.413 69.6067 176.035 69.8098 176.035 70.2436ZM181.165 71.499L179.466 67.0221H180.5L181.562 70.1144C181.636 70.3083 181.672 70.4467 181.719 70.6221C181.765 70.4467 181.811 70.3083 181.876 70.1144L182.919 67.0221H183.916L182.245 71.499H181.165ZM186.502 71.6467C185.163 71.6467 184.277 70.7975 184.277 69.2467C184.277 67.8529 185.2 66.8744 186.465 66.8744C187.813 66.8744 188.579 67.8159 188.579 69.2652V69.4683H185.247C185.265 70.3359 185.782 70.899 186.511 70.899C187.028 70.899 187.48 70.6498 187.573 70.0775H188.542C188.45 70.9267 187.748 71.6467 186.502 71.6467ZM185.256 68.7852H187.573C187.563 68.0836 187.148 67.6036 186.456 67.6036C185.782 67.6036 185.32 68.1113 185.256 68.7852ZM192.932 71.6467C192.119 71.6467 191.39 71.1298 191.39 70.2713C191.39 69.3298 192.129 68.9513 193.005 68.8313L193.809 68.7113C194.159 68.6652 194.279 68.5359 194.279 68.2867C194.279 67.8898 193.965 67.6036 193.467 67.6036C192.858 67.6036 192.516 67.9359 192.489 68.4436H191.51C191.556 67.5667 192.258 66.8744 193.402 66.8744C194.639 66.8744 195.23 67.5667 195.23 68.7113V71.499H194.335V71.2959C194.335 71.1575 194.344 71.0283 194.353 70.8898C194.122 71.3421 193.652 71.6467 192.932 71.6467ZM192.378 70.2436C192.378 70.6775 192.719 70.9267 193.144 70.9267C193.799 70.9267 194.298 70.4652 194.298 69.7821V69.2098C194.224 69.3021 194.058 69.3575 193.79 69.4036L193.282 69.5052C192.756 69.6067 192.378 69.8098 192.378 70.2436ZM200.281 71.6467C199.1 71.6467 198.223 70.8159 198.223 69.2652C198.223 67.7883 199.136 66.8744 200.3 66.8744C201.02 66.8744 201.481 67.2529 201.712 67.6406C201.693 67.5021 201.693 67.3729 201.693 67.2436V65.0375H202.653V71.499H201.693V71.2775C201.693 71.1298 201.693 71.0098 201.712 70.8806C201.5 71.2498 201.029 71.6467 200.281 71.6467ZM199.21 69.2652C199.21 70.2529 199.736 70.899 200.484 70.899C201.213 70.899 201.749 70.2436 201.749 69.2559C201.749 68.2683 201.223 67.6313 200.484 67.6313C199.746 67.6313 199.21 68.2959 199.21 69.2652ZM205.2 71.6467C204.388 71.6467 203.659 71.1298 203.659 70.2713C203.659 69.3298 204.397 68.9513 205.274 68.8313L206.077 68.7113C206.428 68.6652 206.548 68.5359 206.548 68.2867C206.548 67.8898 206.234 67.6036 205.736 67.6036C205.126 67.6036 204.785 67.9359 204.757 68.4436H203.779C203.825 67.5667 204.526 66.8744 205.671 66.8744C206.908 66.8744 207.499 67.5667 207.499 68.7113V71.499H206.603V71.2959C206.603 71.1575 206.613 71.0283 206.622 70.8898C206.391 71.3421 205.92 71.6467 205.2 71.6467ZM204.646 70.2436C204.646 70.6775 204.988 70.9267 205.413 70.9267C206.068 70.9267 206.566 70.4652 206.566 69.7821V69.2098C206.493 69.3021 206.326 69.3575 206.059 69.4036L205.551 69.5052C205.025 69.6067 204.646 69.8098 204.646 70.2436ZM208.695 71.499V67.0221H209.655V67.2898C209.655 67.4652 209.655 67.6313 209.636 67.7975C209.867 67.2898 210.319 66.8744 210.993 66.8744C211.067 66.8744 211.141 66.8744 211.215 66.8929V67.8252C211.15 67.8159 211.058 67.7975 210.928 67.7975C210.153 67.7975 209.655 68.2129 209.655 69.2006V71.499H208.695ZM211.976 71.499V65.0375H212.936V68.859C213.037 68.7298 213.167 68.5913 213.277 68.4806L214.68 67.0221H215.908L214.007 68.9236L216.102 71.499H214.847L213.36 69.5698L212.936 69.9944V71.499H211.976ZM77.4956 82.5729C76.6833 82.5729 76.1295 82.1759 76.1295 81.179V78.7975H75.1971V78.0221H76.1295V76.4713H77.0895V78.0221H78.1048V78.7975H77.0895V81.0498C77.0895 81.5483 77.311 81.7698 77.7448 81.7698C77.8556 81.7698 77.9664 81.7606 78.0864 81.7421V82.5083C77.9479 82.5452 77.7264 82.5729 77.4956 82.5729ZM78.9951 82.499V76.0375H79.9551V78.2344C79.9551 78.3636 79.9551 78.4929 79.9366 78.6406C80.1859 78.2067 80.6566 77.8744 81.312 77.8744C82.3274 77.8744 82.9274 78.5483 82.9274 79.6744V82.499H81.9674V79.8036C81.9674 79.0559 81.6628 78.6313 81.0443 78.6313C80.389 78.6313 79.9551 79.1759 79.9551 79.8406V82.499H78.9951ZM86.0902 82.6467C84.7518 82.6467 83.8656 81.7975 83.8656 80.2467C83.8656 78.8529 84.7887 77.8744 86.0533 77.8744C87.401 77.8744 88.1672 78.8159 88.1672 80.2652V80.4683H84.8349C84.8533 81.3359 85.3702 81.899 86.0995 81.899C86.6164 81.899 87.0687 81.6498 87.161 81.0775H88.1303C88.0379 81.9267 87.3364 82.6467 86.0902 82.6467ZM84.8441 79.7852H87.161C87.1518 79.0836 86.7364 78.6036 86.0441 78.6036C85.3702 78.6036 84.9087 79.1113 84.8441 79.7852ZM89.1634 82.499V78.0221H90.1234V78.299C90.1234 78.4098 90.1234 78.5298 90.1049 78.6406C90.3541 78.2252 90.788 77.8744 91.4065 77.8744C91.9788 77.8744 92.4588 78.2344 92.6711 78.7329C92.948 78.2529 93.4741 77.8744 94.1203 77.8744C95.0249 77.8744 95.6803 78.5113 95.6803 79.6744V82.499H94.7203V79.8313C94.7203 79.0836 94.4618 78.6313 93.8803 78.6313C93.2803 78.6313 92.9018 79.1667 92.9018 79.859V82.499H91.9418V79.8498C91.9418 79.0929 91.6926 78.6313 91.1111 78.6313C90.5203 78.6313 90.1234 79.1575 90.1234 79.8775V82.499H89.1634ZM98.8457 82.6467C97.5072 82.6467 96.621 81.7975 96.621 80.2467C96.621 78.8529 97.5441 77.8744 98.8087 77.8744C100.156 77.8744 100.923 78.8159 100.923 80.2652V80.4683H97.5903C97.6087 81.3359 98.1257 81.899 98.8549 81.899C99.3718 81.899 99.8241 81.6498 99.9164 81.0775H100.886C100.793 81.9267 100.092 82.6467 98.8457 82.6467ZM97.5995 79.7852H99.9164C99.9072 79.0836 99.4918 78.6036 98.7995 78.6036C98.1257 78.6036 97.6641 79.1113 97.5995 79.7852Z" fill="black"/>
<path d="M77.9553 59.73L75.4999 53.2684H76.8476L78.4999 57.9115C78.6107 58.2161 78.6938 58.4561 78.7676 58.7331C78.8322 58.4561 78.9153 58.2161 79.0261 57.9115L80.6876 53.2684H82.0076L79.5153 59.73H77.9553ZM82.3318 59.73V55.2254H83.458V59.73H82.3318ZM82.3134 54.5423V53.3607H83.4857V54.5423H82.3134ZM84.3727 59.73V55.2254H85.4989V55.4284C85.4989 55.5577 85.4896 55.6961 85.4619 55.8715C85.7112 55.4192 86.1358 55.0777 86.8466 55.0777C87.8435 55.0777 88.4343 55.7792 88.4343 56.8869V59.73H87.3081V57.0531C87.3081 56.3884 86.985 55.9731 86.4589 55.9731C85.905 55.9731 85.4989 56.4623 85.4989 57.09V59.73H84.3727ZM91.3287 59.8961C89.898 59.8961 89.0487 58.9731 89.0487 57.4777C89.0487 55.9731 90.0734 55.0777 91.3841 55.0777C92.6949 55.0777 93.4057 55.8715 93.5164 56.9238H92.3718C92.3349 56.4161 92.0211 55.9731 91.3841 55.9731C90.7287 55.9731 90.1934 56.5084 90.1934 57.4869C90.1934 58.3823 90.6641 59.01 91.3564 59.01C92.0395 59.01 92.3626 58.5484 92.418 58.0131H93.5626C93.4057 59.1577 92.6672 59.8961 91.3287 59.8961ZM96.1916 59.8961C94.8439 59.8961 93.8931 59.0284 93.8931 57.4684C93.8931 56.0469 94.8439 55.0777 96.1546 55.0777C97.53 55.0777 98.3239 56.0377 98.3239 57.5054V57.7546H95.0469C95.0562 58.4654 95.5085 59.01 96.1916 59.01C96.6808 59.01 97.0777 58.7331 97.1516 58.2623H98.2962C98.2039 59.1854 97.41 59.8961 96.1916 59.8961ZM95.0377 56.9423H97.17C97.1516 56.3331 96.7546 55.9177 96.1454 55.9177C95.5362 55.9177 95.1023 56.3515 95.0377 56.9423Z" fill="#1B1A1B"/>
<path d="M106.062 55.4202V54.847C105.788 55.2873 105.256 55.6611 104.666 55.686V54.955C105.339 54.8802 106.004 54.3153 106.195 53.6839H106.793V59.4993H106.062V55.4202ZM108.961 55.4202V54.847C108.687 55.2873 108.155 55.6611 107.566 55.686V54.955C108.239 54.8802 108.903 54.3153 109.094 53.6839H109.692V59.4993H108.961V55.4202ZM110.856 59.4993V53.6839H111.57V55.6943V56.035C111.786 55.6528 112.26 55.362 112.8 55.362C113.722 55.362 114.278 55.9436 114.278 56.9737V59.4993H113.564V57.0651C113.564 56.3091 113.306 55.927 112.658 55.927C111.977 55.927 111.57 56.4587 111.57 57.09V59.4993H110.856ZM117.524 59.4993V58.0122H114.858V57.306L117.275 53.6839H118.255V57.3476H119.327V58.0122H118.255V59.4993H117.524ZM115.547 57.3476H117.524V54.3402L117.275 54.739L115.738 57.0568C115.68 57.1399 115.614 57.2479 115.547 57.3476ZM120.686 55.4202V54.847C120.412 55.2873 119.88 55.6611 119.291 55.686V54.955C119.963 54.8802 120.628 54.3153 120.819 53.6839H121.417V59.4993H120.686V55.4202Z" fill="#726C7C"/>
<g clip-path="url(#clip0_3874_290)">
<rect x="42" y="52.73" width="24.2308" height="24.2308" rx="5.53846" fill="#989CFF"/>
<circle cx="54.1147" cy="61.0376" r="4.84615" fill="#E0E5FF"/>
<circle cx="54.1152" cy="77.1904" r="9.69231" fill="#E0E5FF"/>
</g>
</g>
<defs>
<filter id="filter0_d_3874_290" x="10" y="28" width="251" height="93" filterUnits="userSpaceOnUse" color-interpolation-filters="sRGB">
<feFlood flood-opacity="0" result="BackgroundImageFix"/>
<feColorMatrix in="SourceAlpha" type="matrix" values="0 0 0 0 0 0 0 0 0 0 0 0 0 0 0 0 0 0 127 0" result="hardAlpha"/>
<feOffset dy="4"/>
<feGaussianBlur stdDeviation="8"/>
<feComposite in2="hardAlpha" operator="out"/>
<feColorMatrix type="matrix" values="0 0 0 0 0 0 0 0 0 0 0 0 0 0 0 0 0 0 0.05 0"/>
<feBlend mode="normal" in2="BackgroundImageFix" result="effect1_dropShadow_3874_290"/>
<feBlend mode="normal" in="SourceGraphic" in2="effect1_dropShadow_3874_290" result="shape"/>
</filter>
<clipPath id="clip0_3874_290">
<rect x="42" y="52.73" width="24.2308" height="24.2308" rx="5.53846" fill="white"/>
</clipPath>
</defs>
</svg>
