<svg xmlns="http://www.w3.org/2000/svg" width="270" height="141" fill="none" viewBox="0 0 270 141"><g clip-path="url(#a)"><rect width="270" height="140" y=".08" fill="#fff" rx="8"/><rect width="161" height="132" x="57.5" y="29.25" fill="#fff" rx="8.5"/><rect width="161" height="132" x="57.5" y="29.25" stroke="#DDD" rx="8.5"/><path fill="#000" d="M68.675 42.944h1.433v8.358h-1.433v-8.358Zm1.433 0v1.158h-1.433v-1.158h1.433Zm0 7.2v1.158h-1.433v-1.158h1.433Zm2.014-4.824h1.35v1.72l-.204-.203c.223-.462.534-.852.931-1.17.398-.319.832-.478 1.302-.478.414 0 .768.095 1.063.286.294.183.517.45.668.8.16.35.24.773.24 1.266v3.761H76.11V47.96c0-.55-.088-.943-.263-1.182-.167-.247-.433-.37-.8-.37-.27 0-.525.08-.764.239a1.655 1.655 0 0 0-.585.68 2.322 2.322 0 0 0-.215 1.027v2.95h-1.361V45.32Zm9.357 5.982c-.565 0-.995-.123-1.29-.37-.286-.247-.43-.617-.43-1.11v-5.91l1.362-.789v6.388c0 .223.052.386.155.49.112.103.307.155.585.155h1.003v1.146H81.48Zm-2.89-5.982h3.881v1.075h-3.88V45.32Zm7.935 6.126c-.59 0-1.107-.128-1.553-.383a2.709 2.709 0 0 1-1.038-1.098c-.247-.47-.37-1.015-.37-1.636 0-.613.119-1.158.358-1.636.246-.477.589-.847 1.026-1.11.438-.263.948-.394 1.529-.394.557 0 1.043.123 1.457.37.413.247.732.597.955 1.05.23.447.346.964.346 1.553a.898.898 0 0 1-.012.167v.155h-4.788v-1.038h3.88l-.513.465v-.286c0-.414-.123-.745-.37-.991-.247-.247-.565-.37-.955-.37-.263 0-.506.06-.728.178-.215.12-.39.283-.526.49a1.494 1.494 0 0 0-.215.705l-.036.358-.035.334c0 .621.143 1.11.43 1.469.294.35.684.525 1.17.525.342 0 .624-.075.847-.227.223-.151.378-.362.466-.633h1.325a2.42 2.42 0 0 1-.871 1.433c-.462.366-1.055.55-1.78.55Zm4.173-6.126h1.35v1.994l-.156-.55c.223-.509.486-.899.788-1.17.303-.27.637-.405 1.003-.405.287 0 .53.072.728.215.2.135.347.334.442.597.104.262.155.577.155.943v.537h-1.182v-.227c0-.278-.055-.485-.167-.62a.512.512 0 0 0-.442-.215c-.199 0-.386.087-.56.262a1.976 1.976 0 0 0-.43.693 2.513 2.513 0 0 0-.168.92v3.008h-1.361V45.32Zm7.245 6.126c-.398 0-.748-.076-1.05-.227a1.755 1.755 0 0 1-.717-.645 1.801 1.801 0 0 1-.263-.98c0-.604.2-1.058.597-1.36.398-.31.963-.474 1.696-.49l1.695-.036v-.155c0-.43-.111-.752-.334-.967-.215-.215-.521-.323-.92-.323-.405 0-.716.088-.93.263-.216.175-.335.382-.359.621h-1.385c.04-.35.171-.677.394-.98.223-.302.533-.54.931-.715.398-.184.856-.275 1.373-.275.558 0 1.023.103 1.397.31.383.207.665.494.848.86.191.366.287.784.287 1.254v2.173c.008.302.028.593.059.871.04.271.096.49.168.657h-1.326a.133.133 0 0 0-.012-.06 7.102 7.102 0 0 1-.107-.704 6.601 6.601 0 0 1-.024-.812l.179.287a2.23 2.23 0 0 1-.8 1.038c-.374.263-.84.395-1.397.395Zm.358-1.087c.366 0 .693-.088.98-.263.286-.183.493-.434.62-.752v-.597l-1.6.024c-.334.016-.593.084-.776.203-.183.12-.275.306-.275.561 0 .263.096.466.287.609.2.143.454.215.764.215Zm7.158 1.087c-.565 0-1.063-.132-1.493-.395a2.709 2.709 0 0 1-.991-1.098c-.238-.47-.358-1.011-.358-1.624 0-.613.12-1.154.358-1.624a2.664 2.664 0 0 1 1.003-1.11c.438-.27.94-.406 1.505-.406.509 0 .959.1 1.349.298.39.191.701.462.931.812.239.35.379.748.418 1.194h-1.373a1.282 1.282 0 0 0-.418-.836c-.231-.222-.537-.334-.919-.334a1.3 1.3 0 0 0-.776.239c-.215.16-.386.39-.514.693-.119.294-.179.648-.179 1.062 0 .637.132 1.13.394 1.48.271.343.637.514 1.099.514.39 0 .692-.115.907-.346.215-.23.35-.533.406-.908h1.361c-.055.47-.203.884-.441 1.242-.231.358-.542.641-.932.848-.39.199-.836.299-1.337.299Zm6.303-.144c-.565 0-.995-.123-1.289-.37-.287-.247-.43-.617-.43-1.11v-5.91l1.361-.789v6.388c0 .223.052.386.155.49.112.103.307.155.586.155h1.003v1.146h-1.386Zm-2.889-5.982h3.881v1.075h-3.881V45.32Zm5.377-2.376h1.6v1.517h-1.6v-1.517Zm.107 2.376h1.361v5.982h-1.361V45.32Zm0 4.931h1.361v1.051h-1.361v-1.05Zm0-4.93h1.361v1.038h-1.361V45.32Zm5.737 6.125c-.573 0-1.079-.132-1.517-.395a2.653 2.653 0 0 1-1.014-1.098c-.239-.478-.359-1.019-.359-1.624 0-.613.12-1.154.359-1.624a2.637 2.637 0 0 1 1.014-1.11c.438-.27.944-.406 1.517-.406s1.079.135 1.516.406c.438.263.772.633 1.003 1.11.239.47.359 1.011.359 1.624 0 .605-.12 1.146-.359 1.624-.231.47-.565.836-1.003 1.098-.437.263-.943.395-1.516.395Zm0-1.135c.302 0 .565-.08.788-.239.231-.159.406-.386.525-.68.12-.303.179-.657.179-1.063 0-.629-.135-1.118-.406-1.468-.262-.359-.624-.538-1.086-.538-.311 0-.577.08-.8.239-.223.16-.398.39-.525.693-.12.294-.18.652-.18 1.074 0 .621.132 1.107.394 1.457.271.35.641.525 1.111.525Zm4.373-4.99h1.349v1.719l-.203-.203c.223-.462.533-.852.931-1.17.398-.319.832-.478 1.302-.478.414 0 .768.095 1.062.286.295.183.518.45.669.8.159.35.239.773.239 1.266v3.761h-1.361V47.96c0-.55-.088-.943-.263-1.182-.167-.247-.434-.37-.8-.37-.271 0-.525.08-.764.239a1.652 1.652 0 0 0-.585.68 2.311 2.311 0 0 0-.215 1.027v2.95h-1.361V45.32Zm9.368 6.125c-.518 0-.975-.084-1.373-.251a2.413 2.413 0 0 1-.932-.705 2 2 0 0 1-.406-1.015h1.35a.834.834 0 0 0 .43.657c.254.151.573.227.955.227.35 0 .625-.068.824-.203.199-.135.298-.31.298-.525a.5.5 0 0 0-.191-.406c-.119-.112-.338-.203-.657-.275l-1.062-.215c-.55-.12-.971-.322-1.266-.609a1.456 1.456 0 0 1-.43-1.075c0-.366.1-.688.299-.967.199-.278.477-.497.835-.656.367-.16.781-.24 1.242-.24.709 0 1.282.172 1.72.514.437.335.696.784.776 1.35h-1.349a.842.842 0 0 0-.359-.586c-.199-.159-.469-.238-.812-.238-.334 0-.593.067-.776.203a.592.592 0 0 0-.262.501c0 .175.059.314.179.418.119.103.326.183.621.239l1.11.203c.557.103.979.306 1.266.609.294.302.441.676.441 1.122 0 .374-.099.709-.298 1.003-.199.287-.486.514-.86.68-.374.16-.812.24-1.313.24Zm8.639 0c-.398 0-.748-.076-1.05-.227a1.753 1.753 0 0 1-.717-.645 1.802 1.802 0 0 1-.263-.98c0-.604.199-1.058.597-1.36.398-.31.964-.474 1.696-.49l1.696-.036v-.155c0-.43-.112-.752-.335-.967-.215-.215-.521-.323-.919-.323-.406 0-.717.088-.932.263-.214.175-.334.382-.358.621h-1.385c.04-.35.171-.677.394-.98.223-.302.534-.54.932-.715.398-.184.855-.275 1.373-.275.557 0 1.023.103 1.397.31.382.207.664.494.847.86.191.366.287.784.287 1.254v2.173c.008.302.028.593.06.871.04.271.095.49.167.657h-1.326a.133.133 0 0 0-.011-.06 6.793 6.793 0 0 1-.108-.704c-.024-.247-.032-.517-.024-.812l.179.287a2.23 2.23 0 0 1-.8 1.038c-.374.263-.839.395-1.397.395Zm.359-1.087c.366 0 .692-.088.979-.263.286-.183.493-.434.621-.752v-.597l-1.6.024c-.335.016-.594.084-.777.203-.183.12-.274.306-.274.561 0 .263.095.466.286.609.199.143.454.215.765.215Zm4.721-5.039h1.35v1.994l-.156-.55c.223-.509.486-.899.788-1.17.303-.27.637-.405 1.003-.405.287 0 .53.072.729.215.199.135.346.334.442.597.103.262.155.577.155.943v.537h-1.182v-.227c0-.278-.056-.485-.167-.62a.513.513 0 0 0-.442-.215c-.199 0-.386.087-.561.262a1.958 1.958 0 0 0-.43.693 2.503 2.503 0 0 0-.167.92v3.008h-1.362V45.32Zm8.069 6.126c-.573 0-1.078-.132-1.516-.395a2.656 2.656 0 0 1-1.015-1.098c-.239-.478-.358-1.019-.358-1.624 0-.613.119-1.154.358-1.624a2.64 2.64 0 0 1 1.015-1.11c.438-.27.943-.406 1.516-.406.573 0 1.079.135 1.517.406.437.263.772.633 1.003 1.11.238.47.358 1.011.358 1.624 0 .605-.12 1.146-.358 1.624-.231.47-.566.836-1.003 1.098-.438.263-.944.395-1.517.395Zm0-1.135c.303 0 .565-.08.788-.239.231-.159.406-.386.526-.68.119-.303.179-.657.179-1.063 0-.629-.136-1.118-.406-1.468-.263-.359-.625-.538-1.087-.538-.31 0-.577.08-.8.239-.223.16-.398.39-.525.693-.12.294-.179.652-.179 1.074 0 .621.131 1.107.394 1.457.27.35.641.525 1.11.525Zm6.272 1.123c-.414 0-.769-.092-1.063-.275a1.776 1.776 0 0 1-.669-.812c-.151-.35-.227-.772-.227-1.266v-3.76h1.362v3.342c0 .55.083.948.25 1.195.167.238.438.358.812.358.263 0 .514-.076.752-.227.239-.16.43-.386.574-.68.151-.303.226-.65.226-1.04V45.32h1.362v5.982h-1.338v-1.72l.203.204a3.464 3.464 0 0 1-.943 1.17c-.39.318-.824.478-1.301.478Zm5.272-6.114h1.349v1.72l-.203-.203a3.34 3.34 0 0 1 .932-1.17c.398-.319.832-.478 1.301-.478.414 0 .768.095 1.063.286.295.183.517.45.669.8.159.35.238.773.238 1.266v3.761h-1.361V47.96c0-.55-.087-.943-.262-1.182-.168-.247-.434-.37-.8-.37-.271 0-.526.08-.765.239a1.666 1.666 0 0 0-.585.68 2.325 2.325 0 0 0-.215 1.027v2.95h-1.361V45.32Zm9.01 6.102c-.454 0-.848-.132-1.182-.394-.334-.263-.589-.63-.764-1.099-.175-.477-.263-1.023-.263-1.636 0-.605.088-1.142.263-1.612.175-.47.426-.835.752-1.098.327-.263.721-.394 1.182-.394.295 0 .581.068.86.203.279.127.537.318.776.573.239.255.442.557.609.907l-.203.168v-4.096h1.361v8.358h-1.337V49.56l.191.143c-.247.541-.569.963-.967 1.266a2.04 2.04 0 0 1-1.278.454Zm.406-1.17c.231 0 .478-.08.74-.24.263-.159.482-.385.657-.68.175-.302.263-.645.263-1.027 0-.382-.092-.72-.275-1.015a2.032 2.032 0 0 0-.668-.68c-.263-.167-.514-.251-.753-.251a.969.969 0 0 0-.633.227c-.183.143-.322.358-.417.645-.096.286-.144.64-.144 1.062 0 .637.112 1.123.335 1.457.223.334.521.502.895.502ZM70.155 65.445a2.32 2.32 0 0 1-1.05-.226 1.755 1.755 0 0 1-.717-.645 1.8 1.8 0 0 1-.263-.98c0-.604.2-1.058.597-1.36.398-.31.964-.474 1.696-.49l1.695-.036v-.155c0-.43-.111-.752-.334-.967-.215-.215-.521-.323-.92-.323-.405 0-.716.088-.93.263-.216.175-.335.382-.359.621h-1.385c.04-.35.171-.677.394-.98.223-.302.533-.54.931-.715.398-.184.856-.275 1.374-.275.557 0 1.022.103 1.397.31.382.207.664.494.847.86.191.366.287.784.287 1.254v2.173c.008.302.028.593.06.871.04.271.095.49.167.657h-1.326a.134.134 0 0 0-.011-.06 6.82 6.82 0 0 1-.108-.704 6.621 6.621 0 0 1-.024-.812l.18.287a2.23 2.23 0 0 1-.8 1.038c-.375.263-.84.394-1.398.394Zm.358-1.086c.367 0 .693-.088.98-.263.286-.183.493-.434.62-.752v-.597l-1.6.024c-.334.016-.593.084-.776.203-.183.12-.274.306-.274.561 0 .263.095.466.286.609.2.143.454.215.764.215Zm6.62 1.075c-.413 0-.767-.092-1.062-.275a1.78 1.78 0 0 1-.669-.812c-.15-.35-.226-.772-.226-1.266v-3.76h1.36v3.342c0 .55.084.948.251 1.195.168.238.438.358.812.358.263 0 .514-.076.753-.227.239-.16.43-.386.573-.68.151-.303.227-.65.227-1.04V59.32h1.36v5.982h-1.336v-1.72l.203.204c-.231.462-.546.852-.944 1.17-.39.318-.824.478-1.301.478Zm7.506-.132c-.565 0-.995-.123-1.29-.37-.286-.247-.43-.617-.43-1.11v-5.91l1.362-.789v6.388c0 .223.052.386.155.49.112.103.307.155.585.155h1.003v1.146H84.64Zm-2.89-5.982h3.881v1.075h-3.88V59.32Zm7.887 6.125c-.573 0-1.079-.13-1.517-.393a2.655 2.655 0 0 1-1.014-1.099c-.24-.478-.359-1.019-.359-1.624 0-.613.12-1.154.359-1.624a2.639 2.639 0 0 1 1.014-1.11c.438-.27.944-.406 1.517-.406s1.078.135 1.516.406c.438.263.772.633 1.003 1.11.239.47.358 1.011.358 1.624 0 .605-.119 1.146-.358 1.624-.23.47-.565.836-1.003 1.099-.438.262-.943.393-1.516.393Zm0-1.134c.302 0 .565-.08.788-.239.23-.159.406-.386.525-.68.12-.303.18-.657.18-1.063 0-.629-.136-1.118-.407-1.468-.262-.359-.624-.538-1.086-.538-.31 0-.577.08-.8.239-.223.16-.398.39-.526.693-.119.294-.179.652-.179 1.074 0 .621.132 1.107.394 1.457.271.35.641.525 1.11.525Zm4.373-4.99h1.349v1.683l-.191-.191c.223-.502.505-.896.847-1.182a1.807 1.807 0 0 1 1.219-.442 1.657 1.657 0 0 1 1.492.848c.151.262.25.565.299.907l-.251-.084c.183-.477.481-.875.895-1.194a2.266 2.266 0 0 1 1.397-.477c.398 0 .733.091 1.003.274.279.176.49.442.633.8.143.35.215.773.215 1.266v3.773h-1.361v-3.546c0-.438-.088-.772-.263-1.003-.167-.23-.422-.346-.764-.346-.239 0-.466.075-.68.227-.216.15-.39.366-.526.644a2.366 2.366 0 0 0-.191.991v3.033h-1.337v-3.45c0-.47-.088-.828-.263-1.075-.167-.247-.418-.37-.752-.37a1.18 1.18 0 0 0-.693.227c-.215.15-.39.366-.525.644a2.368 2.368 0 0 0-.191.991v3.033h-1.361V59.32Zm12.387 6.124c-.398 0-.748-.075-1.051-.226a1.757 1.757 0 0 1-.716-.645 1.802 1.802 0 0 1-.263-.98c0-.604.199-1.058.597-1.36.398-.31.963-.474 1.696-.49l1.695-.036v-.155c0-.43-.111-.752-.334-.967-.215-.215-.522-.323-.92-.323-.406 0-.716.088-.931.263-.215.175-.334.382-.358.621h-1.385c.04-.35.171-.677.394-.98a2.25 2.25 0 0 1 .931-.715c.398-.184.856-.275 1.373-.275.557 0 1.023.103 1.397.31.382.207.665.494.848.86.191.366.287.784.287 1.254v2.173c.008.302.027.593.059.871.04.271.096.49.167.657h-1.325a.133.133 0 0 0-.012-.06 6.792 6.792 0 0 1-.107-.704c-.024-.247-.032-.517-.024-.812l.179.287a2.23 2.23 0 0 1-.8 1.038c-.374.263-.84.394-1.397.394Zm.358-1.086c.366 0 .693-.088.979-.263.287-.183.494-.434.621-.752v-.597l-1.6.024c-.334.016-.593.084-.776.203-.183.12-.275.306-.275.561 0 .263.096.466.287.609.199.143.454.215.764.215Zm6.873.943c-.565 0-.995-.123-1.289-.37-.287-.247-.43-.617-.43-1.11v-5.91l1.361-.789v6.388c0 .223.052.386.155.49.112.103.307.155.585.155h1.003v1.146h-1.385Zm-2.889-5.982h3.88v1.075h-3.88V59.32Zm5.376-2.376h1.6v1.517h-1.6v-1.517Zm.108 2.376h1.361v5.982h-1.361V59.32Zm0 4.931h1.361v1.051h-1.361v-1.05Zm0-4.93h1.361v1.038h-1.361V59.32Zm3.253 0h1.349v1.719l-.203-.203a3.34 3.34 0 0 1 .932-1.17c.398-.319.831-.478 1.301-.478.414 0 .768.095 1.063.286.294.183.517.45.668.8.16.35.239.773.239 1.266v3.761h-1.361V61.96c0-.55-.088-.943-.263-1.182-.167-.247-.433-.37-.8-.37-.27 0-.525.08-.764.239a1.652 1.652 0 0 0-.585.68 2.325 2.325 0 0 0-.215 1.027v2.95h-1.361V59.32Zm9.607 8.154c-.525 0-.983-.075-1.373-.226a2.168 2.168 0 0 1-.931-.657 1.957 1.957 0 0 1-.43-.991h1.373c.071.239.219.43.442.573.222.143.521.215.895.215.462 0 .824-.116 1.087-.346.27-.231.406-.59.406-1.075v-1.6l.203.167c-.263.526-.585.935-.968 1.23a2.01 2.01 0 0 1-1.253.43c-.438 0-.828-.128-1.17-.382-.343-.255-.609-.605-.8-1.051a3.936 3.936 0 0 1-.287-1.54c0-.59.096-1.11.287-1.565.191-.461.453-.82.788-1.074a1.82 1.82 0 0 1 1.158-.394c.302 0 .593.068.871.203.287.135.546.33.777.585.238.255.441.565.609.931l-.203.155V59.32h1.349v5.529c0 .843-.247 1.492-.74 1.946-.494.454-1.191.68-2.09.68Zm-.143-3.414c.231 0 .473-.08.728-.24.263-.159.482-.377.657-.656.175-.279.262-.593.262-.943 0-.359-.091-.68-.274-.968a1.85 1.85 0 0 0-.657-.656c-.263-.16-.513-.239-.752-.239s-.454.072-.645.215c-.191.135-.342.346-.454.633a2.709 2.709 0 0 0-.167 1.003c0 .58.12 1.035.358 1.36.239.327.554.49.944.49Zm7.875-4.74h1.349v1.993l-.155-.55c.223-.509.486-.899.788-1.17.303-.27.637-.405 1.003-.405a1.177 1.177 0 0 1 1.17.812c.104.262.156.577.156.943v.537h-1.183v-.227c0-.278-.055-.485-.167-.62a.511.511 0 0 0-.442-.215c-.199 0-.386.087-.561.262a1.986 1.986 0 0 0-.43.693 2.523 2.523 0 0 0-.167.92v3.008h-1.361V59.32Zm8.117 6.124c-.589 0-1.107-.127-1.552-.382a2.703 2.703 0 0 1-1.039-1.098c-.247-.47-.37-1.015-.37-1.636 0-.613.119-1.158.358-1.636a2.718 2.718 0 0 1 1.027-1.11c.437-.263.947-.394 1.528-.394.557 0 1.043.123 1.457.37.414.247.732.597.955 1.05.231.447.346.964.346 1.553a.897.897 0 0 1-.012.167v.155h-4.788v-1.038h3.881l-.514.465v-.286c0-.414-.123-.745-.37-.991-.247-.247-.565-.37-.955-.37-.263 0-.505.06-.728.178-.215.12-.39.283-.526.49a1.5 1.5 0 0 0-.215.705l-.035.358-.036.334c0 .621.143 1.11.43 1.469.294.35.684.525 1.17.525.342 0 .625-.075.847-.227.223-.151.379-.362.466-.633h1.326a2.421 2.421 0 0 1-.872 1.433c-.462.366-1.055.55-1.779.55Zm4.173-6.125h1.349v1.731l-.191-.167c.247-.533.57-.947.968-1.242.406-.302.835-.453 1.289-.453.462 0 .856.131 1.182.394.327.263.573.629.74 1.098.176.47.263 1.007.263 1.612 0 .613-.087 1.159-.263 1.636-.167.47-.417.836-.752 1.099a1.873 1.873 0 0 1-1.194.394c-.302 0-.593-.068-.871-.203a2.517 2.517 0 0 1-.765-.585 3.981 3.981 0 0 1-.609-.92l.215-.143v3.761h-1.361V59.32Zm2.997 4.931c.247 0 .462-.071.645-.214.191-.152.334-.375.43-.67.103-.294.155-.652.155-1.074 0-.629-.107-1.106-.322-1.432-.215-.335-.506-.502-.872-.502-.239 0-.494.084-.764.25-.263.16-.486.387-.669.681a1.883 1.883 0 0 0-.274 1.015c0 .382.087.725.262 1.027.175.295.394.521.657.68.263.16.513.24.752.24Zm6.611 1.194c-.573 0-1.078-.13-1.516-.393a2.656 2.656 0 0 1-1.015-1.099c-.239-.478-.358-1.019-.358-1.624 0-.613.119-1.154.358-1.624a2.64 2.64 0 0 1 1.015-1.11c.438-.27.943-.406 1.516-.406.573 0 1.079.135 1.517.406.438.263.772.633 1.003 1.11.238.47.358 1.011.358 1.624 0 .605-.12 1.146-.358 1.624-.231.47-.565.836-1.003 1.099-.438.262-.944.393-1.517.393Zm0-1.134c.303 0 .565-.08.788-.239.231-.159.406-.386.526-.68.119-.303.179-.657.179-1.063 0-.629-.135-1.118-.406-1.468-.263-.359-.625-.538-1.087-.538-.31 0-.577.08-.8.239-.223.16-.398.39-.525.693-.119.294-.179.652-.179 1.074 0 .621.131 1.107.394 1.457.27.35.641.525 1.11.525Zm4.373-4.99h1.349v1.993l-.155-.55c.223-.509.486-.899.788-1.17.303-.27.637-.405 1.003-.405.287 0 .529.072.728.215.199.135.347.334.442.597.104.262.155.577.155.943v.537h-1.182v-.227c0-.278-.055-.485-.167-.62a.512.512 0 0 0-.442-.215c-.199 0-.386.087-.561.262a1.986 1.986 0 0 0-.43.693 2.523 2.523 0 0 0-.167.92v3.008h-1.361V59.32Zm7.818 5.981c-.565 0-.995-.123-1.289-.37-.287-.247-.43-.617-.43-1.11v-5.91l1.361-.789v6.388c0 .223.052.386.155.49.112.103.307.155.585.155h1.003v1.146h-1.385Zm-2.889-5.982h3.88v1.075h-3.88V59.32Zm7.681 6.125c-.518 0-.975-.083-1.373-.25a2.413 2.413 0 0 1-.932-.705 2 2 0 0 1-.406-1.015h1.35a.836.836 0 0 0 .429.657c.255.151.574.227.956.227.35 0 .625-.068.824-.203.199-.135.298-.31.298-.525a.5.5 0 0 0-.191-.406c-.119-.112-.338-.203-.657-.275l-1.062-.215c-.55-.12-.971-.322-1.266-.609a1.456 1.456 0 0 1-.43-1.075c0-.366.1-.688.299-.967.199-.278.477-.497.835-.656.367-.16.781-.24 1.242-.24.709 0 1.282.172 1.72.514.437.335.696.784.776 1.35h-1.349a.842.842 0 0 0-.359-.586c-.199-.159-.469-.238-.812-.238-.334 0-.593.067-.776.203a.592.592 0 0 0-.262.501c0 .175.059.314.179.418.119.103.326.183.621.239l1.11.203c.557.103.979.306 1.266.609.294.302.441.676.441 1.122 0 .374-.099.709-.298 1.003-.199.287-.486.514-.86.68-.374.16-.812.24-1.313.24Z"/><rect width="140.896" height="4.776" x="67.552" y="77.855" fill="#D9D9D9" rx="2.388"/><rect width="89.552" height="4.776" x="67.552" y="87.407" fill="#D9D9D9" rx="2.388"/><rect width="111.045" height="4.776" x="67.552" y="96.959" fill="#D9D9D9" rx="2.388"/><rect width="125.373" height="4.776" x="67.552" y="106.511" fill="#D9D9D9" rx="2.388"/><path fill="#FD231B" d="M197.553 40.028c0-.407.33-.736.737-.736h6.963l3.22 3.22v10.043c0 .407-.33.736-.737.736h-9.446a.737.737 0 0 1-.737-.736V40.028Z"/><path fill="#fff" d="m205.254 39.291 3.22 3.22h-2.483a.737.737 0 0 1-.737-.736v-2.483Z" style="mix-blend-mode:soft-light"/><path fill="#fff" d="M199.376 50.615h.448v.466h-.448v-.466ZM200.47 48.825h.357v.678l-.072-.063c.09-.196.215-.357.375-.484a.833.833 0 0 1 .52-.19c.163 0 .304.05.425.15.12.099.214.238.28.415.067.175.1.377.1.606 0 .23-.035.434-.104.615a.984.984 0 0 1-.285.42.667.667 0 0 1-.43.15.793.793 0 0 1-.352-.082 1.02 1.02 0 0 1-.303-.24 1.416 1.416 0 0 1-.226-.366l.077-.063v1.478h-.362v-3.024Zm1.062 1.976a.45.45 0 0 0 .294-.1.59.59 0 0 0 .19-.294c.045-.13.068-.284.068-.465 0-.275-.047-.484-.14-.629a.446.446 0 0 0-.398-.221.623.623 0 0 0-.344.113.913.913 0 0 0-.28.312.87.87 0 0 0-.108.43c0 .153.034.296.104.429.072.13.164.233.275.312a.602.602 0 0 0 .339.113ZM203.675 51.122a.68.68 0 0 1-.43-.145.941.941 0 0 1-.284-.416 1.836 1.836 0 0 1-.095-.615c0-.226.033-.428.099-.606a.968.968 0 0 1 .285-.42.652.652 0 0 1 .429-.154c.121 0 .237.029.348.086.115.057.217.137.308.24.09.102.166.221.226.357l-.072.063v-1.596h.361v3.165h-.361v-.696l.072.059a1.233 1.233 0 0 1-.375.492.821.821 0 0 1-.511.186Zm.099-.321a.608.608 0 0 0 .344-.113.877.877 0 0 0 .276-.312.895.895 0 0 0 .108-.434.86.86 0 0 0-.108-.425.837.837 0 0 0-.272-.312.605.605 0 0 0-.343-.113.46.46 0 0 0-.294.1.641.641 0 0 0-.19.288 1.493 1.493 0 0 0-.063.466c0 .274.048.485.144.633.097.148.23.222.398.222ZM205.727 48.49c0-.186.048-.328.145-.425.099-.099.242-.149.429-.149h.484v.317h-.452c-.085 0-.147.022-.186.068a.274.274 0 0 0-.058.185v2.595h-.362v-2.59Zm-.443.335h1.306v.303h-1.306v-.303Z"/><rect width="161" height="132" x="52.5" y="24.25" fill="#fff" rx="8.5"/><rect width="161" height="132" x="52.5" y="24.25" stroke="#DDD" rx="8.5"/><path fill="#000" d="M63.675 37.944h1.433v8.358h-1.433v-8.358Zm1.433 0v1.158h-1.433v-1.158h1.433Zm0 7.2v1.158h-1.433v-1.158h1.433Zm2.014-4.824h1.35v1.72l-.204-.203c.223-.462.534-.852.931-1.17.398-.319.832-.478 1.302-.478.414 0 .768.095 1.063.286.294.183.517.45.668.8.16.35.24.773.24 1.266v3.761H71.11V42.96c0-.55-.088-.943-.263-1.182-.167-.247-.433-.37-.8-.37-.27 0-.525.08-.764.239a1.655 1.655 0 0 0-.585.68 2.322 2.322 0 0 0-.215 1.027v2.95h-1.361V40.32Zm9.357 5.982c-.565 0-.995-.123-1.29-.37-.286-.247-.43-.617-.43-1.11v-5.91l1.362-.789v6.388c0 .223.052.386.155.49.112.103.307.155.585.155h1.003v1.146H76.48Zm-2.89-5.982h3.881v1.075h-3.88V40.32Zm7.935 6.126c-.59 0-1.107-.128-1.553-.383a2.709 2.709 0 0 1-1.038-1.098c-.247-.47-.37-1.015-.37-1.636 0-.613.119-1.158.358-1.636.246-.477.589-.847 1.026-1.11.438-.263.948-.394 1.529-.394.557 0 1.043.123 1.457.37.413.247.732.597.955 1.05.23.447.346.964.346 1.553a.898.898 0 0 1-.012.167v.155h-4.788v-1.038h3.88l-.513.465v-.286c0-.414-.123-.745-.37-.991-.247-.247-.565-.37-.955-.37-.263 0-.506.06-.728.178-.215.12-.39.283-.526.49a1.494 1.494 0 0 0-.215.705l-.036.358-.035.334c0 .621.143 1.11.43 1.469.294.35.684.525 1.17.525.342 0 .624-.075.847-.227.223-.151.378-.362.466-.633h1.325a2.42 2.42 0 0 1-.871 1.433c-.462.366-1.055.55-1.78.55Zm4.173-6.126h1.35v1.994l-.156-.55c.223-.509.486-.899.788-1.17.303-.27.637-.405 1.003-.405.287 0 .53.072.728.215.2.135.347.334.442.597.104.262.155.577.155.943v.537h-1.182v-.227c0-.278-.055-.485-.167-.62a.512.512 0 0 0-.442-.215c-.199 0-.386.087-.56.262a1.976 1.976 0 0 0-.43.693 2.513 2.513 0 0 0-.168.92v3.008h-1.361V40.32Zm7.245 6.126c-.398 0-.748-.076-1.05-.227a1.755 1.755 0 0 1-.717-.645 1.801 1.801 0 0 1-.263-.98c0-.604.2-1.058.597-1.36.398-.31.963-.474 1.696-.49l1.695-.036v-.155c0-.43-.111-.752-.334-.967-.215-.215-.521-.323-.92-.323-.405 0-.716.088-.93.263-.216.175-.335.382-.359.621h-1.385c.04-.35.171-.677.394-.98.223-.302.533-.54.931-.715.398-.184.856-.275 1.373-.275.558 0 1.023.103 1.397.31.383.207.665.494.848.86.191.366.287.784.287 1.254v2.173c.008.302.028.593.06.871.04.271.095.49.167.657h-1.326a.133.133 0 0 0-.012-.06 6.82 6.82 0 0 1-.107-.704 6.601 6.601 0 0 1-.024-.812l.18.287c-.16.422-.427.768-.8 1.038-.375.263-.84.395-1.398.395Zm.358-1.087c.366 0 .693-.088.98-.263.286-.183.493-.434.62-.752v-.597l-1.6.024c-.334.016-.593.084-.776.203-.183.12-.275.306-.275.561 0 .263.096.466.287.609.2.143.454.215.764.215Zm7.158 1.087c-.565 0-1.063-.132-1.493-.395a2.709 2.709 0 0 1-.99-1.098c-.24-.47-.359-1.011-.359-1.624 0-.613.12-1.154.358-1.624a2.664 2.664 0 0 1 1.003-1.11c.438-.27.94-.406 1.505-.406.509 0 .959.1 1.349.298.39.191.701.462.931.812.239.35.379.748.418 1.194h-1.373a1.282 1.282 0 0 0-.418-.836c-.231-.222-.537-.334-.919-.334a1.3 1.3 0 0 0-.776.239c-.215.16-.386.39-.514.693-.12.294-.179.648-.179 1.062 0 .637.132 1.13.394 1.48.27.343.637.514 1.099.514.39 0 .692-.115.907-.346.215-.23.35-.533.406-.908h1.361c-.055.47-.203.884-.441 1.242-.231.358-.542.641-.932.848-.39.199-.836.299-1.337.299Zm6.303-.144c-.565 0-.995-.123-1.289-.37-.287-.247-.43-.617-.43-1.11v-5.91l1.361-.789v6.388c0 .223.052.386.155.49.112.103.307.155.586.155h1.003v1.146h-1.386Zm-2.889-5.982h3.881v1.075h-3.881V40.32Zm5.377-2.376h1.6v1.517h-1.6v-1.517Zm.107 2.376h1.361v5.982h-1.361V40.32Zm0 4.931h1.361v1.051h-1.361v-1.05Zm0-4.93h1.361v1.038h-1.361V40.32Zm5.737 6.125c-.573 0-1.079-.132-1.517-.395a2.653 2.653 0 0 1-1.014-1.098c-.239-.478-.359-1.019-.359-1.624 0-.613.12-1.154.359-1.624a2.637 2.637 0 0 1 1.014-1.11c.438-.27.944-.406 1.517-.406s1.079.135 1.516.406c.438.263.772.633 1.003 1.11.239.47.359 1.011.359 1.624 0 .605-.12 1.146-.359 1.624-.231.47-.565.836-1.003 1.098-.437.263-.943.395-1.516.395Zm0-1.135c.302 0 .565-.08.788-.239.231-.159.406-.386.525-.68.12-.303.179-.657.179-1.063 0-.629-.135-1.118-.406-1.468-.262-.359-.624-.538-1.086-.538-.311 0-.577.08-.8.239-.223.16-.398.39-.525.693-.12.294-.18.652-.18 1.074 0 .621.132 1.107.394 1.457.271.35.641.525 1.111.525Zm4.373-4.99h1.349v1.719l-.203-.203c.223-.462.533-.852.931-1.17.398-.319.832-.478 1.302-.478.414 0 .768.095 1.062.286.295.183.518.45.669.8.159.35.239.773.239 1.266v3.761h-1.361V42.96c0-.55-.088-.943-.263-1.182-.167-.247-.434-.37-.8-.37-.271 0-.525.08-.764.239a1.652 1.652 0 0 0-.585.68 2.311 2.311 0 0 0-.215 1.027v2.95h-1.361V40.32Zm9.368 6.125c-.518 0-.975-.084-1.373-.251a2.413 2.413 0 0 1-.932-.705 2 2 0 0 1-.406-1.015h1.35a.834.834 0 0 0 .43.657c.254.151.573.227.955.227.35 0 .625-.068.824-.203.199-.135.298-.31.298-.525a.5.5 0 0 0-.191-.406c-.119-.112-.338-.203-.657-.275l-1.062-.215c-.55-.12-.971-.322-1.266-.609a1.456 1.456 0 0 1-.43-1.075c0-.366.1-.688.299-.967.199-.278.477-.497.835-.656.367-.16.781-.24 1.242-.24.709 0 1.282.172 1.72.514.437.335.696.784.776 1.35h-1.349a.842.842 0 0 0-.359-.586c-.199-.159-.469-.238-.812-.238-.334 0-.593.067-.776.203a.592.592 0 0 0-.262.501c0 .175.059.314.179.418.119.103.326.183.621.239l1.11.203c.557.103.979.306 1.266.609.294.302.441.676.441 1.122 0 .374-.099.709-.298 1.003-.199.287-.486.514-.86.68-.374.16-.812.24-1.313.24Zm8.639 0c-.398 0-.748-.076-1.05-.227a1.753 1.753 0 0 1-.717-.645 1.802 1.802 0 0 1-.263-.98c0-.604.199-1.058.597-1.36.398-.31.964-.474 1.696-.49l1.696-.036v-.155c0-.43-.112-.752-.335-.967-.215-.215-.521-.323-.919-.323-.406 0-.717.088-.932.263-.214.175-.334.382-.358.621h-1.385c.04-.35.171-.677.394-.98.223-.302.534-.54.932-.715.398-.184.855-.275 1.373-.275.557 0 1.023.103 1.397.31.382.207.664.494.847.86.191.366.287.784.287 1.254v2.173c.008.302.028.593.06.871.04.271.095.49.167.657h-1.326a.133.133 0 0 0-.011-.06 6.793 6.793 0 0 1-.108-.704c-.024-.247-.032-.517-.024-.812l.179.287a2.23 2.23 0 0 1-.8 1.038c-.374.263-.839.395-1.397.395Zm.359-1.087c.366 0 .692-.088.979-.263.286-.183.493-.434.621-.752v-.597l-1.6.024c-.335.016-.594.084-.777.203-.183.12-.274.306-.274.561 0 .263.095.466.286.609.199.143.454.215.765.215Zm4.721-5.039h1.35v1.994l-.156-.55c.223-.509.486-.899.788-1.17.303-.27.637-.405 1.003-.405.287 0 .53.072.729.215.199.135.346.334.442.597.103.262.155.577.155.943v.537h-1.182v-.227c0-.278-.056-.485-.167-.62a.513.513 0 0 0-.442-.215c-.199 0-.386.087-.561.262a1.958 1.958 0 0 0-.43.693 2.503 2.503 0 0 0-.167.92v3.008h-1.362V40.32Zm8.069 6.126c-.573 0-1.078-.132-1.516-.395a2.656 2.656 0 0 1-1.015-1.098c-.239-.478-.358-1.019-.358-1.624 0-.613.119-1.154.358-1.624a2.64 2.64 0 0 1 1.015-1.11c.438-.27.943-.406 1.516-.406.573 0 1.079.135 1.517.406.437.263.772.633 1.003 1.11.238.47.358 1.011.358 1.624 0 .605-.12 1.146-.358 1.624-.231.47-.566.836-1.003 1.098-.438.263-.944.395-1.517.395Zm0-1.135c.303 0 .565-.08.788-.239.231-.159.406-.386.526-.68.119-.303.179-.657.179-1.063 0-.629-.136-1.118-.406-1.468-.263-.359-.625-.538-1.087-.538-.31 0-.577.08-.8.239-.223.16-.398.39-.525.693-.12.294-.179.652-.179 1.074 0 .621.131 1.107.394 1.457.27.35.641.525 1.11.525Zm6.272 1.123c-.414 0-.769-.092-1.063-.275a1.776 1.776 0 0 1-.669-.812c-.151-.35-.227-.772-.227-1.266v-3.76h1.362v3.342c0 .55.083.948.25 1.195.167.238.438.358.812.358.263 0 .514-.076.752-.227.239-.16.43-.386.574-.68.151-.303.226-.65.226-1.04V40.32h1.362v5.982h-1.338v-1.72l.203.204a3.464 3.464 0 0 1-.943 1.17c-.39.318-.824.478-1.301.478Zm5.272-6.114h1.349v1.72l-.203-.203a3.34 3.34 0 0 1 .932-1.17c.398-.319.832-.478 1.301-.478.414 0 .768.095 1.063.286.295.183.517.45.669.8.159.35.238.773.238 1.266v3.761h-1.361V42.96c0-.55-.087-.943-.262-1.182-.168-.247-.434-.37-.8-.37-.271 0-.526.08-.765.239a1.666 1.666 0 0 0-.585.68 2.325 2.325 0 0 0-.215 1.027v2.95h-1.361V40.32Zm9.01 6.102c-.454 0-.848-.132-1.182-.394-.334-.263-.589-.63-.764-1.099-.175-.477-.263-1.023-.263-1.636 0-.605.088-1.142.263-1.612.175-.47.426-.835.752-1.098.327-.263.721-.394 1.182-.394.295 0 .581.068.86.203.279.127.537.318.776.573.239.255.442.557.609.907l-.203.168v-4.096h1.361v8.358h-1.337V44.56l.191.143c-.247.541-.569.963-.967 1.266a2.04 2.04 0 0 1-1.278.454Zm.406-1.17c.231 0 .478-.08.74-.24.263-.159.482-.385.657-.68.175-.302.263-.645.263-1.027 0-.382-.092-.72-.275-1.015a2.032 2.032 0 0 0-.668-.68c-.263-.167-.514-.251-.753-.251a.969.969 0 0 0-.633.227c-.183.143-.322.358-.417.645-.096.286-.144.64-.144 1.062 0 .637.112 1.123.335 1.457.223.334.521.502.895.502ZM65.155 60.446a2.32 2.32 0 0 1-1.05-.227 1.755 1.755 0 0 1-.717-.645 1.8 1.8 0 0 1-.263-.98c0-.604.2-1.058.597-1.36.398-.31.964-.474 1.696-.49l1.695-.036v-.155c0-.43-.111-.752-.334-.967-.215-.215-.521-.323-.92-.323-.405 0-.716.088-.93.263-.216.175-.335.382-.359.621h-1.385c.04-.35.171-.677.394-.98.223-.302.533-.54.931-.715.398-.184.856-.275 1.374-.275.557 0 1.022.103 1.397.31.382.207.664.494.847.86.191.366.287.784.287 1.254v2.173c.008.302.028.593.06.871.04.271.095.49.167.657h-1.326a.134.134 0 0 0-.011-.06 6.82 6.82 0 0 1-.108-.704 6.621 6.621 0 0 1-.024-.812l.18.287a2.23 2.23 0 0 1-.8 1.038c-.375.263-.84.395-1.398.395Zm.358-1.087c.367 0 .693-.088.98-.263.286-.183.493-.434.62-.752v-.597l-1.6.024c-.334.016-.593.084-.776.203-.183.12-.274.306-.274.561 0 .263.095.466.286.609.2.143.454.215.764.215Zm6.62 1.075c-.413 0-.767-.092-1.062-.275a1.78 1.78 0 0 1-.669-.812c-.15-.35-.226-.772-.226-1.266v-3.76h1.36v3.342c0 .55.084.948.251 1.195.168.238.438.358.812.358.263 0 .514-.076.753-.227.239-.16.43-.386.573-.68.151-.303.227-.65.227-1.04V54.32h1.36v5.982h-1.336v-1.72l.203.204c-.231.462-.546.852-.944 1.17-.39.318-.824.478-1.301.478Zm7.506-.132c-.565 0-.995-.123-1.29-.37-.286-.247-.43-.617-.43-1.11v-5.91l1.362-.789v6.388c0 .223.052.386.155.49.112.103.307.155.585.155h1.003v1.146H79.64Zm-2.89-5.982h3.881v1.075h-3.88V54.32Zm7.887 6.126c-.573 0-1.079-.132-1.517-.395a2.655 2.655 0 0 1-1.014-1.098c-.24-.478-.359-1.019-.359-1.624 0-.613.12-1.154.359-1.624a2.639 2.639 0 0 1 1.014-1.11c.438-.27.944-.406 1.517-.406s1.078.135 1.516.406c.438.263.772.633 1.003 1.11.239.47.358 1.011.358 1.624 0 .605-.119 1.146-.358 1.624-.23.47-.565.836-1.003 1.098-.438.263-.943.395-1.516.395Zm0-1.135c.302 0 .565-.08.788-.239.23-.159.406-.386.525-.68.12-.303.18-.657.18-1.063 0-.629-.136-1.118-.407-1.468-.262-.359-.624-.538-1.086-.538-.31 0-.577.08-.8.239-.223.16-.398.39-.526.693-.119.294-.179.652-.179 1.074 0 .621.132 1.107.394 1.457.271.35.641.525 1.11.525Zm4.373-4.99h1.349v1.683l-.191-.191c.223-.502.505-.896.847-1.182a1.807 1.807 0 0 1 1.219-.442 1.657 1.657 0 0 1 1.492.848c.151.262.25.565.299.907l-.251-.084c.183-.477.481-.875.895-1.194a2.266 2.266 0 0 1 1.397-.477c.398 0 .733.091 1.003.274.279.176.49.442.633.8.143.35.215.773.215 1.266v3.773h-1.361v-3.546c0-.438-.088-.772-.263-1.003-.167-.23-.422-.346-.764-.346-.239 0-.466.075-.68.227-.216.15-.39.366-.526.644a2.366 2.366 0 0 0-.191.991v3.033h-1.337v-3.45c0-.47-.088-.828-.263-1.075-.167-.247-.418-.37-.752-.37a1.18 1.18 0 0 0-.693.227c-.215.15-.39.366-.525.644a2.368 2.368 0 0 0-.191.991v3.033h-1.361V54.32Zm12.387 6.125c-.398 0-.748-.076-1.051-.227a1.758 1.758 0 0 1-.716-.645 1.801 1.801 0 0 1-.263-.98c0-.604.199-1.058.597-1.36.398-.31.963-.474 1.696-.49l1.695-.036v-.155c0-.43-.111-.752-.334-.967-.215-.215-.522-.323-.92-.323-.406 0-.716.088-.931.263-.215.175-.334.382-.358.621h-1.385c.04-.35.17-.677.394-.98.223-.302.533-.54.931-.715.398-.184.856-.275 1.373-.275.557 0 1.023.103 1.397.31.382.207.665.494.848.86.191.366.287.784.287 1.254v2.173c.008.302.027.593.059.871.04.271.096.49.167.657h-1.325a.133.133 0 0 0-.012-.06 6.792 6.792 0 0 1-.107-.704c-.024-.247-.032-.517-.024-.812l.179.287a2.23 2.23 0 0 1-.8 1.038c-.374.263-.84.395-1.397.395Zm.358-1.087c.366 0 .693-.088.979-.263.287-.183.494-.434.621-.752v-.597l-1.6.024c-.334.016-.593.084-.776.203-.183.12-.275.306-.275.561 0 .263.096.466.287.609.199.143.454.215.764.215Zm6.873.943c-.565 0-.995-.123-1.289-.37-.287-.247-.43-.617-.43-1.11v-5.91l1.361-.789v6.388c0 .223.052.386.155.49.112.103.307.155.585.155h1.003v1.146h-1.385Zm-2.889-5.982h3.88v1.075h-3.88V54.32Zm5.376-2.376h1.6v1.517h-1.6v-1.517Zm.108 2.376h1.361v5.982h-1.361V54.32Zm0 4.931h1.361v1.051h-1.361v-1.05Zm0-4.93h1.361v1.038h-1.361V54.32Zm3.253 0h1.349v1.719l-.203-.203a3.34 3.34 0 0 1 .932-1.17c.398-.319.831-.478 1.301-.478.414 0 .768.095 1.063.286.294.183.517.45.668.8.16.35.239.773.239 1.266v3.761h-1.361V56.96c0-.55-.088-.943-.263-1.182-.167-.247-.433-.37-.8-.37-.27 0-.525.08-.764.239a1.652 1.652 0 0 0-.585.68 2.325 2.325 0 0 0-.215 1.027v2.95h-1.361V54.32Zm9.607 8.154c-.525 0-.983-.075-1.373-.227a2.168 2.168 0 0 1-.931-.656 1.957 1.957 0 0 1-.43-.991h1.373c.071.239.219.43.442.573.222.143.521.215.895.215.462 0 .824-.116 1.087-.347.27-.23.406-.589.406-1.074v-1.6l.203.167c-.263.526-.585.935-.968 1.23a2.01 2.01 0 0 1-1.253.43c-.438 0-.828-.128-1.17-.382-.343-.255-.609-.605-.8-1.051a3.936 3.936 0 0 1-.287-1.54c0-.59.096-1.11.287-1.565.191-.461.453-.82.788-1.074a1.82 1.82 0 0 1 1.158-.394c.302 0 .593.068.871.203.287.135.546.33.777.585.238.255.441.565.609.931l-.203.155V54.32h1.349v5.529c0 .843-.247 1.492-.74 1.946-.494.453-1.191.68-2.09.68Zm-.143-3.415c.231 0 .473-.08.728-.238.263-.16.482-.379.657-.657.175-.279.262-.593.262-.943 0-.359-.091-.68-.274-.968a1.85 1.85 0 0 0-.657-.656c-.263-.16-.513-.239-.752-.239s-.454.072-.645.215c-.191.135-.342.346-.454.633a2.709 2.709 0 0 0-.167 1.003c0 .58.12 1.035.358 1.36.239.327.554.49.944.49Zm7.875-4.74h1.349v1.994l-.155-.55c.223-.509.486-.899.788-1.17.303-.27.637-.405 1.003-.405a1.177 1.177 0 0 1 1.17.812c.104.262.156.577.156.943v.537h-1.183v-.227c0-.278-.055-.485-.167-.62a.511.511 0 0 0-.442-.215c-.199 0-.386.087-.561.262a1.986 1.986 0 0 0-.43.693 2.523 2.523 0 0 0-.167.92v3.008h-1.361V54.32Zm8.117 6.126c-.589 0-1.107-.128-1.552-.383a2.703 2.703 0 0 1-1.039-1.098c-.247-.47-.37-1.015-.37-1.636 0-.613.119-1.158.358-1.636a2.718 2.718 0 0 1 1.027-1.11c.437-.263.947-.394 1.528-.394.557 0 1.043.123 1.457.37.414.247.732.597.955 1.05.231.447.346.964.346 1.553a.897.897 0 0 1-.012.167v.155h-4.788v-1.038h3.881l-.514.465v-.286c0-.414-.123-.745-.37-.991-.247-.247-.565-.37-.955-.37-.263 0-.505.06-.728.178-.215.12-.39.283-.526.49a1.5 1.5 0 0 0-.215.705l-.035.358-.036.334c0 .621.143 1.11.43 1.469.294.35.684.525 1.17.525.342 0 .625-.075.847-.227.223-.151.379-.362.466-.633h1.326a2.421 2.421 0 0 1-.872 1.433c-.462.366-1.055.55-1.779.55Zm4.173-6.126h1.349v1.731l-.191-.167c.247-.533.57-.947.968-1.242.406-.302.835-.453 1.289-.453.462 0 .856.131 1.182.394.327.263.573.629.74 1.098.176.47.263 1.007.263 1.612 0 .613-.087 1.159-.263 1.636-.167.47-.417.836-.752 1.099a1.873 1.873 0 0 1-1.194.394c-.302 0-.593-.068-.871-.203a2.517 2.517 0 0 1-.765-.585 3.981 3.981 0 0 1-.609-.92l.215-.143v3.761h-1.361V54.32Zm2.997 4.931c.247 0 .462-.071.645-.214.191-.152.334-.375.43-.67.103-.294.155-.652.155-1.074 0-.629-.107-1.106-.322-1.432-.215-.335-.506-.502-.872-.502-.239 0-.494.084-.764.25-.263.16-.486.387-.669.681a1.883 1.883 0 0 0-.274 1.015c0 .382.087.725.262 1.027.175.295.394.521.657.68.263.16.513.24.752.24Zm6.611 1.195c-.573 0-1.078-.132-1.516-.395a2.656 2.656 0 0 1-1.015-1.098c-.239-.478-.358-1.019-.358-1.624 0-.613.119-1.154.358-1.624a2.64 2.64 0 0 1 1.015-1.11c.438-.27.943-.406 1.516-.406.573 0 1.079.135 1.517.406.438.263.772.633 1.003 1.11.238.47.358 1.011.358 1.624 0 .605-.12 1.146-.358 1.624-.231.47-.565.836-1.003 1.098-.438.263-.944.395-1.517.395Zm0-1.135c.303 0 .565-.08.788-.239.231-.159.406-.386.526-.68.119-.303.179-.657.179-1.063 0-.629-.135-1.118-.406-1.468-.263-.359-.625-.538-1.087-.538-.31 0-.577.08-.8.239-.223.16-.398.39-.525.693-.119.294-.179.652-.179 1.074 0 .621.131 1.107.394 1.457.27.35.641.525 1.11.525Zm4.373-4.99h1.349v1.993l-.155-.55c.223-.509.486-.899.788-1.17.303-.27.637-.405 1.003-.405.287 0 .529.072.728.215.199.135.347.334.442.597.104.262.155.577.155.943v.537h-1.182v-.227c0-.278-.055-.485-.167-.62a.512.512 0 0 0-.442-.215c-.199 0-.386.087-.561.262a1.986 1.986 0 0 0-.43.693 2.523 2.523 0 0 0-.167.92v3.008h-1.361V54.32Zm7.818 5.981c-.565 0-.995-.123-1.289-.37-.287-.247-.43-.617-.43-1.11v-5.91l1.361-.789v6.388c0 .223.052.386.155.49.112.103.307.155.585.155h1.003v1.146h-1.385Zm-2.889-5.982h3.88v1.075h-3.88V54.32Zm7.681 6.126c-.518 0-.975-.084-1.373-.251a2.413 2.413 0 0 1-.932-.705 2 2 0 0 1-.406-1.015h1.35a.836.836 0 0 0 .429.657c.255.151.574.227.956.227.35 0 .625-.068.824-.203.199-.135.298-.31.298-.525a.5.5 0 0 0-.191-.406c-.119-.112-.338-.203-.657-.275l-1.062-.215c-.55-.12-.971-.322-1.266-.609a1.456 1.456 0 0 1-.43-1.075c0-.366.1-.688.299-.967.199-.278.477-.497.835-.656.367-.16.781-.24 1.242-.24.709 0 1.282.172 1.72.514.437.335.696.784.776 1.35h-1.349a.842.842 0 0 0-.359-.586c-.199-.159-.469-.238-.812-.238-.334 0-.593.067-.776.203a.592.592 0 0 0-.262.501c0 .175.059.314.179.418.119.103.326.183.621.239l1.11.203c.557.103.979.306 1.266.609.294.302.441.676.441 1.122 0 .374-.099.709-.298 1.003-.199.287-.486.514-.86.68-.374.16-.812.24-1.313.24Z"/><rect width="140.896" height="4.776" x="62.552" y="72.855" fill="#D9D9D9" rx="2.388"/><rect width="89.552" height="4.776" x="62.552" y="82.407" fill="#D9D9D9" rx="2.388"/><rect width="111.045" height="4.776" x="62.552" y="91.959" fill="#D9D9D9" rx="2.388"/><rect width="125.373" height="4.776" x="62.552" y="101.511" fill="#D9D9D9" rx="2.388"/><path fill="#FD231B" d="M192.553 35.028c0-.407.33-.736.737-.736h6.963l3.22 3.22v10.043c0 .407-.33.736-.737.736h-9.446a.737.737 0 0 1-.737-.736V35.028Z"/><path fill="#fff" d="m200.254 34.291 3.22 3.22h-2.483a.737.737 0 0 1-.737-.736v-2.483Z" style="mix-blend-mode:soft-light"/><path fill="#fff" d="M194.376 45.615h.448v.466h-.448v-.466ZM195.47 43.825h.357v.678l-.072-.063c.09-.196.215-.357.375-.484a.833.833 0 0 1 .52-.19c.163 0 .304.05.425.15.12.099.214.238.28.415.067.175.1.377.1.606 0 .23-.035.434-.104.615a.984.984 0 0 1-.285.42.667.667 0 0 1-.43.15.793.793 0 0 1-.352-.082 1.02 1.02 0 0 1-.303-.24 1.416 1.416 0 0 1-.226-.366l.077-.063v1.478h-.362v-3.024Zm1.062 1.976a.45.45 0 0 0 .294-.1.59.59 0 0 0 .19-.294c.045-.13.068-.284.068-.465 0-.275-.047-.484-.14-.629a.446.446 0 0 0-.398-.221.623.623 0 0 0-.344.113.913.913 0 0 0-.28.312.87.87 0 0 0-.108.43c0 .153.034.296.104.429.072.13.164.233.275.312a.602.602 0 0 0 .339.113ZM198.675 46.122a.68.68 0 0 1-.43-.145.941.941 0 0 1-.284-.416 1.836 1.836 0 0 1-.095-.615c0-.226.033-.428.099-.606a.968.968 0 0 1 .285-.42.652.652 0 0 1 .429-.154c.121 0 .237.029.348.086.115.057.217.137.308.24.09.102.166.221.226.357l-.072.063v-1.596h.361v3.165h-.361v-.696l.072.059a1.233 1.233 0 0 1-.375.492.821.821 0 0 1-.511.186Zm.099-.321a.608.608 0 0 0 .344-.113.877.877 0 0 0 .276-.312.895.895 0 0 0 .108-.434.86.86 0 0 0-.108-.425.837.837 0 0 0-.272-.312.605.605 0 0 0-.343-.113.46.46 0 0 0-.294.1.641.641 0 0 0-.19.288 1.493 1.493 0 0 0-.063.466c0 .274.048.485.144.633.097.148.23.222.398.222ZM200.727 43.49c0-.186.048-.328.145-.425.099-.099.242-.149.429-.149h.484v.317h-.452c-.085 0-.147.022-.186.068a.274.274 0 0 0-.058.185v2.595h-.362v-2.59Zm-.443.335h1.306v.303h-1.306v-.303Z"/></g><defs><clipPath id="a"><rect width="270" height="140" y=".08" fill="#fff" rx="8"/></clipPath></defs></svg>