<svg width="270" height="141" viewBox="0 0 270 141" fill="none" xmlns="http://www.w3.org/2000/svg">
<rect y="0.0800781" width="270" height="140" rx="8" fill="white"/>
<g filter="url(#filter0_d_3874_6132)">
<rect x="27.4585" y="28.4802" width="216.462" height="80.3032" rx="10" fill="white"/>
<rect x="27.9585" y="28.9802" width="215.462" height="79.3032" rx="9.5" stroke="#EAEAEA"/>
</g>
<path d="M39.5662 47.9414V42.5145H41.861C42.9076 42.5145 43.7139 42.9021 43.7139 43.8867C43.7139 44.5612 43.2177 44.9256 42.6595 45.0729C43.3728 45.2202 43.8767 45.6621 43.8767 46.3831C43.8767 47.5383 42.8456 47.9414 41.7525 47.9414H39.5662ZM40.5663 47.0809H41.7912C42.4967 47.0809 42.8301 46.8095 42.8301 46.3056C42.8301 45.7629 42.4967 45.5381 41.7912 45.5381H40.5663V47.0809ZM40.5663 44.7008H41.737C42.3882 44.7008 42.6673 44.4449 42.6673 44.0108C42.6673 43.6076 42.3882 43.375 41.737 43.375H40.5663V44.7008ZM46.357 48.081C45.2251 48.081 44.4266 47.3522 44.4266 46.042C44.4266 44.8481 45.2251 44.034 46.326 44.034C47.4811 44.034 48.1479 44.8403 48.1479 46.073V46.2823H45.3957C45.4034 46.8793 45.7833 47.3367 46.357 47.3367C46.7679 47.3367 47.1013 47.1041 47.1633 46.7087H48.1246C48.0471 47.484 47.3804 48.081 46.357 48.081ZM45.3879 45.6001H47.1788C47.1633 45.0884 46.8299 44.7395 46.3182 44.7395C45.8066 44.7395 45.4422 45.1039 45.3879 45.6001ZM50.604 48.081C49.4023 48.081 48.6891 47.3057 48.6891 46.0497C48.6891 44.786 49.5496 44.034 50.6505 44.034C51.7514 44.034 52.3484 44.7008 52.4414 45.5846H51.4801C51.449 45.1582 51.1854 44.786 50.6505 44.786C50.1001 44.786 49.6504 45.2357 49.6504 46.0575C49.6504 46.8095 50.0458 47.3367 50.6272 47.3367C51.201 47.3367 51.4723 46.9491 51.5188 46.4994H52.4802C52.3484 47.4607 51.7281 48.081 50.604 48.081ZM54.8897 48.081C53.7501 48.081 52.9516 47.3212 52.9516 46.0652C52.9516 44.8248 53.7578 44.034 54.8897 44.034C56.0294 44.034 56.8357 44.8248 56.8357 46.0652C56.8357 47.3212 56.0294 48.081 54.8897 48.081ZM53.9129 46.0652C53.9129 46.8715 54.3005 47.3367 54.8897 47.3367C55.479 47.3367 55.8743 46.8715 55.8743 46.0652C55.8743 45.2435 55.4712 44.786 54.8897 44.786C54.316 44.786 53.9129 45.2435 53.9129 46.0652ZM57.5825 47.9414V44.1581H58.5284V44.3286C58.5284 44.4449 58.5206 44.5767 58.4974 44.7008C58.6834 44.3674 59.0323 44.034 59.5905 44.034C60.0634 44.034 60.4433 44.3984 60.5829 44.7395C60.7999 44.3751 61.2574 44.034 61.8078 44.034C62.5753 44.034 63.1103 44.6387 63.1103 45.5613V47.9414H62.1644V45.7009C62.1644 45.1504 61.9473 44.786 61.5364 44.786C61.1256 44.786 60.8154 45.1659 60.8154 45.7396V47.9414H59.8696V45.7009C59.8696 45.1504 59.668 44.786 59.2416 44.786C58.8307 44.786 58.5284 45.1504 58.5284 45.7396V47.9414H57.5825ZM64.0406 47.9414V44.1581H64.9865V47.9414H64.0406ZM64.0251 43.5844V42.592H65.0097V43.5844H64.0251ZM65.9486 47.9414V44.1581H66.8944V44.3286C66.8944 44.4372 66.8866 44.5535 66.8634 44.7008C67.0727 44.3209 67.4293 44.034 68.0263 44.034C68.8636 44.034 69.3598 44.6232 69.3598 45.5536V47.9414H68.4139V45.6931C68.4139 45.1349 68.1426 44.786 67.7007 44.786C67.2355 44.786 66.8944 45.1969 66.8944 45.7241V47.9414H65.9486ZM71.9924 49.6625C70.876 49.6625 70.2402 49.0656 70.2402 48.205H71.2016C71.2171 48.6547 71.5039 48.9183 72.0156 48.9183C72.5118 48.9183 72.9304 48.6236 72.9304 48.0577V47.6468C72.9304 47.4762 72.9382 47.3212 72.9615 47.1739C72.7366 47.515 72.3722 47.8019 71.783 47.8019C70.7984 47.8019 70.0852 47.1119 70.0852 45.9179C70.0852 44.7395 70.907 44.034 71.7365 44.034C72.4033 44.034 72.7366 44.3054 72.9615 44.7008C72.9382 44.569 72.9304 44.4682 72.9304 44.3286V44.1581H73.8763V47.8251C73.8763 49.0656 73.1088 49.6625 71.9924 49.6625ZM71.0465 45.9179C71.0465 46.5769 71.4497 47.0498 72.0234 47.0498C72.5816 47.0498 72.9847 46.5769 72.9847 45.9179C72.9847 45.259 72.5816 44.786 72.0234 44.786C71.4497 44.786 71.0465 45.259 71.0465 45.9179ZM77.5734 48.081C76.9144 48.081 76.2709 47.6468 76.2709 46.9025C76.2709 46.0497 76.9299 45.7551 77.7439 45.6466L78.2866 45.5768C78.5967 45.5381 78.7053 45.4218 78.7053 45.2357C78.7053 44.9721 78.4882 44.7395 78.085 44.7395C77.6431 44.7395 77.364 44.9876 77.3253 45.383H76.3484C76.4105 44.5922 77.0539 44.034 78.0308 44.034C79.1859 44.034 79.6511 44.6542 79.6511 45.7164V47.9414H78.775V47.7864C78.775 47.6623 78.7905 47.546 78.8138 47.422C78.6122 47.7941 78.2246 48.081 77.5734 48.081ZM77.2322 46.8638C77.2322 47.1971 77.4958 47.3832 77.8292 47.3832C78.3331 47.3832 78.7363 47.0111 78.7363 46.4761V46.0652C78.651 46.1428 78.5192 46.1815 78.2866 46.228L77.9765 46.2901C77.5346 46.3754 77.2322 46.5227 77.2322 46.8638ZM80.5682 47.9414V44.1581H81.5141V44.3286C81.5141 44.4372 81.5063 44.5535 81.4831 44.7008C81.6924 44.3209 82.049 44.034 82.646 44.034C83.4833 44.034 83.9794 44.6232 83.9794 45.5536V47.9414H83.0336V45.6931C83.0336 45.1349 82.7623 44.786 82.3203 44.786C81.8552 44.786 81.5141 45.1969 81.5141 45.7241V47.9414H80.5682ZM86.5342 47.9414V44.1581H87.48V47.9414H86.5342ZM86.5187 43.5844V42.592H87.5033V43.5844H86.5187ZM88.4421 47.9414V44.1581H89.3879V44.3286C89.3879 44.4372 89.3802 44.5535 89.3569 44.7008C89.5663 44.3209 89.9229 44.034 90.5198 44.034C91.3571 44.034 91.8533 44.6232 91.8533 45.5536V47.9414H90.9075V45.6931C90.9075 45.1349 90.6361 44.786 90.1942 44.786C89.7291 44.786 89.3879 45.1969 89.3879 45.7241V47.9414H88.4421ZM94.4171 48.0112C93.6108 48.0112 93.1844 47.608 93.1844 46.763V44.9101H92.3238V44.1581H93.1844V42.7936H94.1302V44.1581H95.0605V44.9101H94.1302V46.6234C94.1302 47.0188 94.2853 47.2514 94.6884 47.2514C94.7814 47.2514 94.8822 47.2437 94.9753 47.2282V47.9414C94.8822 47.9724 94.6574 48.0112 94.4171 48.0112ZM97.3631 48.081C96.2312 48.081 95.4327 47.3522 95.4327 46.042C95.4327 44.8481 96.2312 44.034 97.3321 44.034C98.4872 44.034 99.154 44.8403 99.154 46.073V46.2823H96.4018C96.4095 46.8793 96.7894 47.3367 97.3631 47.3367C97.774 47.3367 98.1074 47.1041 98.1694 46.7087H99.1307C99.0532 47.484 98.3865 48.081 97.3631 48.081ZM96.394 45.6001H98.1849C98.1694 45.0884 97.836 44.7395 97.3243 44.7395C96.8126 44.7395 96.4483 45.1039 96.394 45.6001ZM101.618 49.6625C100.501 49.6625 99.8657 49.0656 99.8657 48.205H100.827C100.843 48.6547 101.129 48.9183 101.641 48.9183C102.137 48.9183 102.556 48.6236 102.556 48.0577V47.6468C102.556 47.4762 102.564 47.3212 102.587 47.1739C102.362 47.515 101.998 47.8019 101.409 47.8019C100.424 47.8019 99.7107 47.1119 99.7107 45.9179C99.7107 44.7395 100.532 44.034 101.362 44.034C102.029 44.034 102.362 44.3054 102.587 44.7008C102.564 44.569 102.556 44.4682 102.556 44.3286V44.1581H103.502V47.8251C103.502 49.0656 102.734 49.6625 101.618 49.6625ZM100.672 45.9179C100.672 46.5769 101.075 47.0498 101.649 47.0498C102.207 47.0498 102.61 46.5769 102.61 45.9179C102.61 45.259 102.207 44.786 101.649 44.786C101.075 44.786 100.672 45.259 100.672 45.9179ZM104.462 47.9414V44.1581H105.408V44.4449C105.408 44.5845 105.401 44.7008 105.377 44.8403C105.579 44.4139 105.92 44.034 106.486 44.034C106.563 44.034 106.625 44.0418 106.687 44.0573V44.9721C106.625 44.9566 106.54 44.9411 106.416 44.9411C105.835 44.9411 105.408 45.2357 105.408 46.0652V47.9414H104.462ZM108.312 48.081C107.653 48.081 107.009 47.6468 107.009 46.9025C107.009 46.0497 107.668 45.7551 108.482 45.6466L109.025 45.5768C109.335 45.5381 109.444 45.4218 109.444 45.2357C109.444 44.9721 109.227 44.7395 108.823 44.7395C108.382 44.7395 108.102 44.9876 108.064 45.383H107.087C107.149 44.5922 107.792 44.034 108.769 44.034C109.924 44.034 110.39 44.6542 110.39 45.7164V47.9414H109.513V47.7864C109.513 47.6623 109.529 47.546 109.552 47.422C109.351 47.7941 108.963 48.081 108.312 48.081ZM107.971 46.8638C107.971 47.1971 108.234 47.3832 108.568 47.3832C109.072 47.3832 109.475 47.0111 109.475 46.4761V46.0652C109.389 46.1428 109.258 46.1815 109.025 46.228L108.715 46.2901C108.273 46.3754 107.971 46.5227 107.971 46.8638ZM112.936 48.0112C112.13 48.0112 111.703 47.608 111.703 46.763V44.9101H110.843V44.1581H111.703V42.7936H112.649V44.1581H113.579V44.9101H112.649V46.6234C112.649 47.0188 112.804 47.2514 113.207 47.2514C113.3 47.2514 113.401 47.2437 113.494 47.2282V47.9414C113.401 47.9724 113.176 48.0112 112.936 48.0112ZM114.214 47.9414V44.1581H115.16V47.9414H114.214ZM114.198 43.5844V42.592H115.183V43.5844H114.198ZM117.843 48.081C116.703 48.081 115.905 47.3212 115.905 46.0652C115.905 44.8248 116.711 44.034 117.843 44.034C118.983 44.034 119.789 44.8248 119.789 46.0652C119.789 47.3212 118.983 48.081 117.843 48.081ZM116.866 46.0652C116.866 46.8715 117.254 47.3367 117.843 47.3367C118.432 47.3367 118.828 46.8715 118.828 46.0652C118.828 45.2435 118.424 44.786 117.843 44.786C117.269 44.786 116.866 45.2435 116.866 46.0652ZM120.536 47.9414V44.1581H121.482V44.3286C121.482 44.4372 121.474 44.5535 121.451 44.7008C121.66 44.3209 122.017 44.034 122.613 44.034C123.451 44.034 123.947 44.6232 123.947 45.5536V47.9414H123.001V45.6931C123.001 45.1349 122.73 44.786 122.288 44.786C121.823 44.786 121.482 45.1969 121.482 45.7241V47.9414H120.536ZM126.502 47.9414V42.5145H127.448V44.3286C127.448 44.4372 127.44 44.5535 127.417 44.7008C127.626 44.3209 127.983 44.034 128.579 44.034C129.417 44.034 129.913 44.6232 129.913 45.5536V47.9414H128.967V45.6931C128.967 45.1349 128.696 44.786 128.254 44.786C127.789 44.786 127.448 45.1969 127.448 45.7241V47.9414H126.502ZM132.158 48.081C131.398 48.081 130.801 47.5615 130.801 46.5614V44.1581H131.755V46.4141C131.755 46.9413 131.987 47.3212 132.445 47.3212C132.925 47.3212 133.267 46.9646 133.267 46.4064V44.1581H134.212V47.9414H133.274V47.7864C133.274 47.6701 133.29 47.5383 133.313 47.422C133.119 47.7864 132.786 48.081 132.158 48.081ZM137.303 48.081C136.667 48.081 136.287 47.7941 136.085 47.422C136.109 47.5693 136.116 47.6623 136.116 47.7864V47.9414H135.171V42.5145H136.116V44.3286C136.116 44.4604 136.101 44.5767 136.085 44.7008C136.326 44.3054 136.706 44.034 137.287 44.034C138.202 44.034 139 44.8015 139 46.0652C139 47.3367 138.279 48.081 137.303 48.081ZM136.062 46.0652C136.062 46.8173 136.473 47.3367 137.047 47.3367C137.628 47.3367 138.039 46.8173 138.039 46.0652C138.039 45.3055 137.628 44.786 137.047 44.786C136.473 44.786 136.062 45.3055 136.062 46.0652ZM141.736 47.9414V44.9101H140.984V44.1581H141.736V43.7239C141.736 42.8246 142.224 42.3749 142.953 42.3749C143.194 42.3749 143.364 42.4137 143.457 42.4447V43.189C143.395 43.1657 143.302 43.1502 143.194 43.1502C142.907 43.1502 142.682 43.313 142.682 43.6464V44.1581H143.473V44.9101H142.682V47.9414H141.736ZM145.697 48.081C144.557 48.081 143.759 47.3212 143.759 46.0652C143.759 44.8248 144.565 44.034 145.697 44.034C146.836 44.034 147.643 44.8248 147.643 46.0652C147.643 47.3212 146.836 48.081 145.697 48.081ZM144.72 46.0652C144.72 46.8715 145.108 47.3367 145.697 47.3367C146.286 47.3367 146.681 46.8715 146.681 46.0652C146.681 45.2435 146.278 44.786 145.697 44.786C145.123 44.786 144.72 45.2435 144.72 46.0652ZM148.39 47.9414V44.1581H149.335V44.4449C149.335 44.5845 149.328 44.7008 149.304 44.8403C149.506 44.4139 149.847 44.034 150.413 44.034C150.491 44.034 150.553 44.0418 150.615 44.0573V44.9721C150.553 44.9566 150.467 44.9411 150.343 44.9411C149.762 44.9411 149.335 45.2357 149.335 46.0652V47.9414H148.39ZM154.784 48.081C154.148 48.081 153.768 47.7941 153.567 47.422C153.59 47.5693 153.598 47.6623 153.598 47.7864V47.9414H152.652V42.5145H153.598V44.3286C153.598 44.4604 153.582 44.5767 153.567 44.7008C153.807 44.3054 154.187 44.034 154.769 44.034C155.683 44.034 156.482 44.8015 156.482 46.0652C156.482 47.3367 155.761 48.081 154.784 48.081ZM153.544 46.0652C153.544 46.8173 153.955 47.3367 154.528 47.3367C155.11 47.3367 155.521 46.8173 155.521 46.0652C155.521 45.3055 155.11 44.786 154.528 44.786C153.955 44.786 153.544 45.3055 153.544 46.0652ZM158.931 48.081C157.791 48.081 156.993 47.3212 156.993 46.0652C156.993 44.8248 157.799 44.034 158.931 44.034C160.071 44.034 160.877 44.8248 160.877 46.0652C160.877 47.3212 160.071 48.081 158.931 48.081ZM157.954 46.0652C157.954 46.8715 158.342 47.3367 158.931 47.3367C159.52 47.3367 159.916 46.8715 159.916 46.0652C159.916 45.2435 159.512 44.786 158.931 44.786C158.357 44.786 157.954 45.2435 157.954 46.0652ZM163.223 48.0112C162.416 48.0112 161.99 47.608 161.99 46.763V44.9101H161.129V44.1581H161.99V42.7936H162.936V44.1581H163.866V44.9101H162.936V46.6234C162.936 47.0188 163.091 47.2514 163.494 47.2514C163.587 47.2514 163.688 47.2437 163.781 47.2282V47.9414C163.688 47.9724 163.463 48.0112 163.223 48.0112ZM164.501 47.9414V42.5145H165.447V44.3286C165.447 44.4372 165.439 44.5535 165.416 44.7008C165.625 44.3209 165.982 44.034 166.579 44.034C167.416 44.034 167.912 44.6232 167.912 45.5536V47.9414H166.966V45.6931C166.966 45.1349 166.695 44.786 166.253 44.786C165.788 44.786 165.447 45.1969 165.447 45.7241V47.9414H164.501ZM171.986 48.081C170.986 48.081 170.257 47.3987 170.257 46.0652C170.257 44.7085 171.118 44.034 172.002 44.034C172.591 44.034 172.955 44.3364 173.172 44.7008C173.141 44.5612 173.141 44.4449 173.141 44.3286V42.5145H174.087V47.9414H173.141V47.7864C173.141 47.6546 173.141 47.5538 173.172 47.422C173.025 47.7011 172.684 48.081 171.986 48.081ZM171.219 46.0575C171.219 46.8405 171.645 47.3367 172.211 47.3367C172.777 47.3367 173.196 46.8173 173.196 46.0575C173.196 45.2822 172.777 44.786 172.211 44.786C171.645 44.786 171.219 45.3055 171.219 46.0575ZM175.047 47.9414V44.1581H175.993V47.9414H175.047ZM175.032 43.5844V42.592H176.016V43.5844H175.032ZM178.467 48.081C177.397 48.081 176.738 47.5228 176.676 46.6389H177.637C177.661 47.0886 177.94 47.3755 178.444 47.3755C178.87 47.3755 179.141 47.1739 179.141 46.887C179.141 46.6312 178.924 46.5149 178.521 46.4374L178.064 46.3443C177.273 46.1893 176.823 45.8172 176.823 45.1892C176.823 44.5302 177.444 44.034 178.374 44.034C179.39 44.034 180.025 44.5612 180.048 45.352H179.103C179.072 44.9799 178.8 44.7395 178.374 44.7395C178.025 44.7395 177.754 44.8791 177.754 45.1504C177.754 45.3752 177.901 45.4915 178.382 45.5846L178.839 45.6776C179.583 45.8249 180.072 46.166 180.072 46.8328C180.072 47.5538 179.444 48.081 178.467 48.081ZM182.529 48.081C181.328 48.081 180.614 47.3057 180.614 46.0497C180.614 44.786 181.475 44.034 182.576 44.034C183.677 44.034 184.274 44.7008 184.367 45.5846H183.405C183.374 45.1582 183.111 44.786 182.576 44.786C182.025 44.786 181.576 45.2357 181.576 46.0575C181.576 46.8095 181.971 47.3367 182.553 47.3367C183.126 47.3367 183.398 46.9491 183.444 46.4994H184.406C184.274 47.4607 183.654 48.081 182.529 48.081ZM186.815 48.081C185.675 48.081 184.877 47.3212 184.877 46.0652C184.877 44.8248 185.683 44.034 186.815 44.034C187.955 44.034 188.761 44.8248 188.761 46.0652C188.761 47.3212 187.955 48.081 186.815 48.081ZM185.838 46.0652C185.838 46.8715 186.226 47.3367 186.815 47.3367C187.404 47.3367 187.8 46.8715 187.8 46.0652C187.8 45.2435 187.397 44.786 186.815 44.786C186.241 44.786 185.838 45.2435 185.838 46.0652ZM190.409 47.9414L188.983 44.1581H189.998L190.828 46.6545C190.89 46.8173 190.921 46.9491 190.967 47.1429C191.006 46.9491 191.045 46.8173 191.099 46.6545L191.921 44.1581H192.898L191.51 47.9414H190.409ZM195.052 48.081C193.92 48.081 193.122 47.3522 193.122 46.042C193.122 44.8481 193.92 44.034 195.021 44.034C196.176 44.034 196.843 44.8403 196.843 46.073V46.2823H194.091C194.099 46.8793 194.479 47.3367 195.052 47.3367C195.463 47.3367 195.796 47.1041 195.859 46.7087H196.82C196.742 47.484 196.076 48.081 195.052 48.081ZM194.083 45.6001H195.874C195.859 45.0884 195.525 44.7395 195.013 44.7395C194.502 44.7395 194.137 45.1039 194.083 45.6001ZM197.601 47.9414V44.1581H198.547V44.4449C198.547 44.5845 198.539 44.7008 198.516 44.8403C198.718 44.4139 199.059 44.034 199.625 44.034C199.702 44.034 199.764 44.0418 199.826 44.0573V44.9721C199.764 44.9566 199.679 44.9411 199.555 44.9411C198.974 44.9411 198.547 45.2357 198.547 46.0652V47.9414H197.601ZM200.837 49.523L201.449 47.9104L199.968 44.1581H201.03L201.837 46.6002C201.883 46.732 201.922 46.8715 201.961 47.0498C201.992 46.8715 202.038 46.732 202.077 46.6002L202.845 44.1581H203.837L201.844 49.523H200.837ZM206.962 48.081C206.303 48.081 205.66 47.6468 205.66 46.9025C205.66 46.0497 206.319 45.7551 207.133 45.6466L207.676 45.5768C207.986 45.5381 208.094 45.4218 208.094 45.2357C208.094 44.9721 207.877 44.7395 207.474 44.7395C207.032 44.7395 206.753 44.9876 206.714 45.383H205.738C205.8 44.5922 206.443 44.034 207.42 44.034C208.575 44.034 209.04 44.6542 209.04 45.7164V47.9414H208.164V47.7864C208.164 47.6623 208.18 47.546 208.203 47.422C208.001 47.7941 207.614 48.081 206.962 48.081ZM206.621 46.8638C206.621 47.1971 206.885 47.3832 207.218 47.3832C207.722 47.3832 208.125 47.0111 208.125 46.4761V46.0652C208.04 46.1428 207.908 46.1815 207.676 46.228L207.366 46.2901C206.924 46.3754 206.621 46.5227 206.621 46.8638ZM209.957 47.9414V44.1581H210.903V44.3286C210.903 44.4372 210.895 44.5535 210.872 44.7008C211.081 44.3209 211.438 44.034 212.035 44.034C212.872 44.034 213.369 44.6232 213.369 45.5536V47.9414H212.423V45.6931C212.423 45.1349 212.151 44.786 211.709 44.786C211.244 44.786 210.903 45.1969 210.903 45.7241V47.9414H209.957ZM215.815 48.081C214.815 48.081 214.086 47.3987 214.086 46.0652C214.086 44.7085 214.947 44.034 215.831 44.034C216.42 44.034 216.784 44.3364 217.001 44.7008C216.97 44.5612 216.97 44.4449 216.97 44.3286V42.5145H217.916V47.9414H216.97V47.7864C216.97 47.6546 216.97 47.5538 217.001 47.422C216.854 47.7011 216.513 48.081 215.815 48.081ZM215.048 46.0575C215.048 46.8405 215.474 47.3367 216.04 47.3367C216.606 47.3367 217.024 46.8173 217.024 46.0575C217.024 45.2822 216.606 44.786 216.04 44.786C215.474 44.786 215.048 45.3055 215.048 46.0575ZM40.9694 58.081C39.9693 58.081 39.2406 57.3987 39.2406 56.0652C39.2406 54.7085 40.1011 54.034 40.985 54.034C41.5742 54.034 41.9385 54.3364 42.1556 54.7008C42.1246 54.5612 42.1246 54.4449 42.1246 54.3286V52.5145H43.0704V57.9414H42.1246V57.7864C42.1246 57.6546 42.1246 57.5538 42.1556 57.422C42.0083 57.7011 41.6672 58.081 40.9694 58.081ZM40.2019 56.0575C40.2019 56.8405 40.6283 57.3367 41.1943 57.3367C41.7602 57.3367 42.1789 56.8173 42.1789 56.0575C42.1789 55.2822 41.7602 54.786 41.1943 54.786C40.6283 54.786 40.2019 55.3055 40.2019 56.0575ZM45.7437 58.081C44.6118 58.081 43.8133 57.3522 43.8133 56.042C43.8133 54.8481 44.6118 54.034 45.7127 54.034C46.8679 54.034 47.5346 54.8403 47.5346 56.073V56.2823H44.7824C44.7902 56.8793 45.17 57.3367 45.7437 57.3367C46.1546 57.3367 46.488 57.1041 46.55 56.7087H47.5114C47.4338 57.484 46.7671 58.081 45.7437 58.081ZM44.7747 55.6001H46.5655C46.55 55.0884 46.2167 54.7395 45.705 54.7395C45.1933 54.7395 44.8289 55.1039 44.7747 55.6001ZM48.2929 57.9414V52.5145H49.2387V57.9414H48.2929ZM50.2008 57.9414V54.1581H51.1466V57.9414H50.2008ZM50.1853 53.5844V52.592H51.1699V53.5844H50.1853ZM53.0933 57.9414L51.6668 54.1581H52.6824L53.5119 56.6545C53.574 56.8173 53.605 56.9491 53.6515 57.1429C53.6902 56.9491 53.729 56.8173 53.7833 56.6545L54.6051 54.1581H55.5819L54.1942 57.9414H53.0933ZM57.7363 58.081C56.6044 58.081 55.8058 57.3522 55.8058 56.042C55.8058 54.8481 56.6044 54.034 57.7053 54.034C58.8604 54.034 59.5272 54.8403 59.5272 56.073V56.2823H56.7749C56.7827 56.8793 57.1626 57.3367 57.7363 57.3367C58.1472 57.3367 58.4805 57.1041 58.5426 56.7087H59.5039C59.4264 57.484 58.7596 58.081 57.7363 58.081ZM56.7672 55.6001H58.5581C58.5426 55.0884 58.2092 54.7395 57.6975 54.7395C57.1858 54.7395 56.8214 55.1039 56.7672 55.6001ZM60.2854 57.9414V54.1581H61.2312V54.4449C61.2312 54.5845 61.2235 54.7008 61.2002 54.8403C61.4018 54.4139 61.7429 54.034 62.3089 54.034C62.3864 54.034 62.4484 54.0418 62.5105 54.0573V54.9721C62.4484 54.9566 62.3631 54.9411 62.2391 54.9411C61.6576 54.9411 61.2312 55.2357 61.2312 56.0652V57.9414H60.2854ZM63.5207 59.523L64.1331 57.9104L62.6524 54.1581H63.7145L64.5208 56.6002C64.5673 56.732 64.6061 56.8715 64.6448 57.0498C64.6758 56.8715 64.7223 56.732 64.7611 56.6002L65.5286 54.1581H66.521L64.5285 59.523H63.5207Z" fill="black"/>
<path d="M41.923 74.7561C40.3415 74.7561 39.3026 73.694 39.3026 71.8799C39.3026 70.1665 40.4423 69.0734 41.954 69.0734C43.272 69.0734 44.2023 69.8564 44.3186 71.0348H43.4038C43.2875 70.2828 42.7836 69.8021 41.9385 69.8021C40.9074 69.8021 40.1942 70.5851 40.1942 71.8799C40.1942 73.1978 40.9152 74.0274 41.9308 74.0274C42.7758 74.0274 43.334 73.5157 43.4581 72.7714H44.3341C44.1946 73.9808 43.2953 74.7561 41.923 74.7561ZM46.4657 74.6321V72.3605L44.512 69.2052H45.5121L46.582 71.0426C46.6982 71.2364 46.799 71.4224 46.9076 71.6318L47.2409 71.0426L48.3341 69.2052H49.3032L47.334 72.3605V74.6321H46.4657ZM51.9849 74.7561C50.4034 74.7561 49.3645 73.694 49.3645 71.8799C49.3645 70.1665 50.5042 69.0734 52.016 69.0734C53.3339 69.0734 54.2643 69.8564 54.3805 71.0348H53.4657C53.3494 70.2828 52.8455 69.8021 52.0005 69.8021C50.9693 69.8021 50.2561 70.5851 50.2561 71.8799C50.2561 73.1978 50.9771 74.0274 51.9927 74.0274C52.8377 74.0274 53.3959 73.5157 53.52 72.7714H54.3961C54.2565 73.9808 53.3572 74.7561 51.9849 74.7561ZM55.0762 72.2985V71.531H57.0841V72.2985H55.0762ZM59.7767 74.7561C58.4975 74.7561 57.7842 74.1282 57.7842 73.2133C57.7842 72.5776 58.2184 72.0427 58.9239 71.8178C58.3269 71.6085 57.9238 71.1899 57.9238 70.5851C57.9238 69.7013 58.6448 69.0734 59.7767 69.0734C60.8931 69.0734 61.6219 69.7091 61.6219 70.5619C61.6219 71.1666 61.2342 71.624 60.614 71.8178C61.3272 72.0349 61.7692 72.5543 61.7692 73.1823C61.7692 74.1282 61.0094 74.7561 59.7767 74.7561ZM58.6215 73.1203C58.6215 73.694 59.0945 74.0816 59.7767 74.0816C60.4512 74.0816 60.9241 73.7018 60.9241 73.128C60.9241 72.5854 60.4512 72.1822 59.7767 72.1822C59.1022 72.1822 58.6215 72.5776 58.6215 73.1203ZM58.7533 70.5851C58.7533 71.1046 59.1642 71.4612 59.7767 71.4612C60.3737 71.4612 60.7923 71.1123 60.7923 70.6084C60.7923 70.0967 60.3892 69.7479 59.7767 69.7479C59.1565 69.7479 58.7533 70.0967 58.7533 70.5851ZM64.8425 74.6321V73.2753H62.3151V72.5311L64.5867 69.2052H65.6721V72.5543H66.6644V73.2753H65.6721V74.6321H64.8425ZM63.1059 72.5543H64.8425V69.9804C64.7727 70.1122 64.6952 70.2285 64.6099 70.3526L63.3152 72.2597C63.2454 72.3605 63.1679 72.4768 63.1059 72.5543ZM69.086 74.7561C67.9076 74.7561 67.1866 74.0739 67.1788 73.128H68.0239C68.0316 73.6707 68.4115 74.0661 69.055 74.0661C69.745 74.0661 70.2101 73.601 70.2101 72.8489C70.2101 72.19 69.8303 71.6705 69.1325 71.6705C68.6208 71.6705 68.2177 71.9806 68.0781 72.314H67.2641L67.675 69.2052H70.7528V69.9804H68.2875L68.1169 71.2519C68.1014 71.3682 68.0781 71.5 68.0549 71.6163C68.3185 71.2596 68.7681 70.9883 69.3418 70.9883C70.3574 70.9883 71.0474 71.7868 71.0474 72.8257C71.0474 74.0119 70.2256 74.7561 69.086 74.7561Z" fill="#77777A"/>
<g clip-path="url(#clip0_3874_6132)">
<rect x="156.051" y="64.2404" width="75.1624" height="17.2985" rx="1.97452" fill="white"/>
<rect x="156.051" y="64.2404" width="75.1624" height="17.2985" rx="1.97452" stroke="#D6D6D6" stroke-width="0.969093"/>
<path d="M183.98 74.7564C182.988 74.7564 182.252 74.0586 182.252 72.7562C182.252 71.5157 183.019 70.7482 183.996 70.7482C184.601 70.7482 184.988 71.0661 185.182 71.3917C185.167 71.2754 185.167 71.1668 185.167 71.0583V69.2054H185.973V74.6323H185.167V74.4463C185.167 74.3222 185.167 74.2214 185.182 74.1129C185.004 74.423 184.608 74.7564 183.98 74.7564ZM183.081 72.7562C183.081 73.5857 183.523 74.1284 184.151 74.1284C184.763 74.1284 185.213 73.578 185.213 72.7484C185.213 71.9189 184.771 71.3839 184.151 71.3839C183.531 71.3839 183.081 71.9421 183.081 72.7562ZM188.67 74.7564C187.546 74.7564 186.802 74.0431 186.802 72.7407C186.802 71.57 187.577 70.7482 188.639 70.7482C189.771 70.7482 190.415 71.539 190.415 72.7562V72.9267H187.616C187.631 73.6555 188.065 74.1284 188.678 74.1284C189.112 74.1284 189.492 73.9191 189.57 73.4384H190.384C190.306 74.1517 189.717 74.7564 188.67 74.7564ZM187.624 72.353H189.57C189.562 71.7638 189.213 71.3607 188.631 71.3607C188.065 71.3607 187.678 71.7871 187.624 72.353ZM192.662 74.7564C191.623 74.7564 191.003 74.2059 190.964 73.3609H191.771C191.794 73.8415 192.104 74.1439 192.654 74.1439C193.127 74.1439 193.438 73.9268 193.438 73.5935C193.438 73.3221 193.228 73.1671 192.802 73.0818L192.29 72.981C191.546 72.8414 191.096 72.4771 191.096 71.8723C191.096 71.2289 191.709 70.7482 192.6 70.7482C193.554 70.7482 194.143 71.2289 194.182 72.0041H193.375C193.337 71.5932 193.042 71.3607 192.577 71.3607C192.174 71.3607 191.895 71.539 191.895 71.8336C191.895 72.0972 192.081 72.229 192.53 72.3143L193.05 72.415C193.755 72.5546 194.228 72.888 194.228 73.5314C194.228 74.2292 193.631 74.7564 192.662 74.7564ZM195.067 74.6323V70.8722H195.873V74.6323H195.067ZM195.036 70.2288V69.3372H195.912V70.2288H195.036ZM198.565 76.3534C197.511 76.3534 196.875 75.7797 196.875 74.9424H197.682C197.689 75.4154 198.023 75.7255 198.581 75.7255C199.178 75.7255 199.596 75.3921 199.596 74.7099V74.2757C199.596 74.1517 199.604 74.0354 199.612 73.9191C199.403 74.2757 198.984 74.5393 198.41 74.5393C197.402 74.5393 196.712 73.826 196.712 72.6476C196.712 71.4847 197.495 70.7482 198.403 70.7482C199.046 70.7482 199.403 71.0428 199.612 71.3917C199.604 71.2831 199.596 71.1746 199.596 71.0583V70.8722H200.403V74.4773C200.403 75.741 199.721 76.3534 198.565 76.3534ZM197.542 72.6476C197.542 73.3996 197.976 73.9036 198.596 73.9036C199.209 73.9036 199.651 73.3919 199.651 72.6476C199.651 71.9111 199.209 71.3839 198.596 71.3839C197.976 71.3839 197.542 71.9034 197.542 72.6476ZM201.457 74.6323V70.8722H202.263V71.0816C202.263 71.1824 202.256 71.2754 202.248 71.3917C202.449 71.0428 202.852 70.7482 203.403 70.7482C204.256 70.7482 204.76 71.3141 204.76 72.26V74.6323H203.953V72.3685C203.953 71.7406 203.705 71.3839 203.186 71.3839C202.628 71.3839 202.263 71.8413 202.263 72.3995V74.6323H201.457Z" fill="black"/>
<rect x="77.9811" y="64.2404" width="75.1624" height="17.2985" rx="1.97452" fill="white"/>
<rect x="77.9811" y="64.2404" width="75.1624" height="17.2985" rx="1.97452" stroke="#D6D6D6" stroke-width="0.969093"/>
<path d="M96.3519 74.6321V69.2052H97.2125V74.6321H96.3519ZM98.3856 74.6321V70.872H99.1919V71.0813C99.1919 71.1821 99.1841 71.2751 99.1764 71.3914C99.378 71.0426 99.7811 70.748 100.332 70.748C101.184 70.748 101.688 71.3139 101.688 72.2597V74.6321H100.882V72.3683C100.882 71.7403 100.634 71.3837 100.114 71.3837C99.5563 71.3837 99.1919 71.8411 99.1919 72.3993V74.6321H98.3856ZM104.435 76.2291V70.872H105.241V71.0891C105.241 71.1899 105.241 71.2829 105.226 71.3992C105.45 71.0271 105.885 70.748 106.466 70.748C107.505 70.748 108.156 71.5853 108.156 72.7559C108.156 73.9653 107.435 74.7561 106.435 74.7561C105.854 74.7561 105.466 74.4925 105.226 74.1126C105.241 74.2367 105.241 74.3375 105.241 74.446V76.2291H104.435ZM105.202 72.7482C105.202 73.57 105.644 74.1282 106.272 74.1282C106.908 74.1282 107.327 73.5622 107.327 72.7482C107.327 71.9496 106.916 71.3837 106.272 71.3837C105.652 71.3837 105.202 71.9109 105.202 72.7482ZM108.978 74.6321V70.872H109.784V71.0968C109.784 71.2441 109.784 71.3837 109.768 71.5232C109.962 71.0968 110.342 70.748 110.908 70.748C110.97 70.748 111.032 70.748 111.094 70.7635V71.5465C111.04 71.5387 110.962 71.5232 110.854 71.5232C110.202 71.5232 109.784 71.8721 109.784 72.7016V74.6321H108.978ZM113.317 74.7561C112.208 74.7561 111.433 73.9808 111.433 72.7559C111.433 71.5542 112.216 70.748 113.317 70.748C114.425 70.748 115.208 71.5542 115.208 72.7559C115.208 73.9808 114.425 74.7561 113.317 74.7561ZM112.255 72.7559C112.255 73.5932 112.666 74.1282 113.317 74.1282C113.968 74.1282 114.387 73.5932 114.387 72.7559C114.387 71.9031 113.96 71.3837 113.317 71.3837C112.681 71.3837 112.255 71.9031 112.255 72.7559ZM117.677 76.3532C116.623 76.3532 115.987 75.7795 115.987 74.9422H116.793C116.801 75.4151 117.134 75.7252 117.693 75.7252C118.29 75.7252 118.708 75.3918 118.708 74.7096V74.2755C118.708 74.1514 118.716 74.0351 118.724 73.9188C118.514 74.2755 118.096 74.539 117.522 74.539C116.514 74.539 115.824 73.8258 115.824 72.6474C115.824 71.4845 116.607 70.748 117.514 70.748C118.158 70.748 118.514 71.0426 118.724 71.3914C118.716 71.2829 118.708 71.1744 118.708 71.0581V70.872H119.515V74.477C119.515 75.7407 118.832 76.3532 117.677 76.3532ZM116.654 72.6474C116.654 73.3994 117.088 73.9033 117.708 73.9033C118.321 73.9033 118.762 73.3916 118.762 72.6474C118.762 71.9109 118.321 71.3837 117.708 71.3837C117.088 71.3837 116.654 71.9031 116.654 72.6474ZM120.569 74.6321V70.872H121.375V71.0968C121.375 71.2441 121.375 71.3837 121.36 71.5232C121.553 71.0968 121.933 70.748 122.499 70.748C122.561 70.748 122.623 70.748 122.685 70.7635V71.5465C122.631 71.5387 122.553 71.5232 122.445 71.5232C121.794 71.5232 121.375 71.8721 121.375 72.7016V74.6321H120.569ZM124.892 74.7561C123.768 74.7561 123.024 74.0429 123.024 72.7404C123.024 71.5697 123.799 70.748 124.861 70.748C125.993 70.748 126.637 71.5387 126.637 72.7559V72.9265H123.838C123.854 73.6552 124.288 74.1282 124.9 74.1282C125.334 74.1282 125.714 73.9188 125.792 73.4382H126.606C126.528 74.1514 125.939 74.7561 124.892 74.7561ZM123.846 72.3528H125.792C125.784 71.7636 125.435 71.3604 124.854 71.3604C124.288 71.3604 123.9 71.7868 123.846 72.3528ZM128.885 74.7561C127.846 74.7561 127.225 74.2057 127.187 73.3606H127.993C128.016 73.8413 128.326 74.1437 128.877 74.1437C129.35 74.1437 129.66 73.9266 129.66 73.5932C129.66 73.3219 129.451 73.1668 129.024 73.0815L128.512 72.9807C127.768 72.8412 127.318 72.4768 127.318 71.8721C127.318 71.2286 127.931 70.748 128.823 70.748C129.776 70.748 130.365 71.2286 130.404 72.0039H129.598C129.559 71.593 129.264 71.3604 128.799 71.3604C128.396 71.3604 128.117 71.5387 128.117 71.8333C128.117 72.0969 128.303 72.2287 128.753 72.314L129.272 72.4148C129.978 72.5543 130.451 72.8877 130.451 73.5312C130.451 74.2289 129.854 74.7561 128.885 74.7561ZM132.7 74.7561C131.661 74.7561 131.041 74.2057 131.003 73.3606H131.809C131.832 73.8413 132.142 74.1437 132.693 74.1437C133.166 74.1437 133.476 73.9266 133.476 73.5932C133.476 73.3219 133.266 73.1668 132.84 73.0815L132.328 72.9807C131.584 72.8412 131.134 72.4768 131.134 71.8721C131.134 71.2286 131.747 70.748 132.638 70.748C133.592 70.748 134.181 71.2286 134.22 72.0039H133.414C133.375 71.593 133.08 71.3604 132.615 71.3604C132.212 71.3604 131.933 71.5387 131.933 71.8333C131.933 72.0969 132.119 72.2287 132.569 72.314L133.088 72.4148C133.793 72.5543 134.266 72.8877 134.266 73.5312C134.266 74.2289 133.669 74.7561 132.7 74.7561Z" fill="black"/>
</g>
<path d="M38.9692 91.1801L40.8908 93.0954L38.9692 95.0107" stroke="black" stroke-width="1.43884" stroke-linecap="round" stroke-linejoin="round"/>
<path d="M45.4188 94.8381V89.4112H47.6128C48.6517 89.4112 49.5355 89.8221 49.5355 90.9928C49.5355 92.1789 48.6517 92.5743 47.6128 92.5743H46.2794V94.8381H45.4188ZM46.2794 91.8533H47.6128C48.3493 91.8533 48.6517 91.52 48.6517 90.9928C48.6517 90.4656 48.3571 90.1322 47.6128 90.1322H46.2794V91.8533ZM50.2387 94.8381V89.4112H51.0449V94.8381H50.2387ZM53.7447 94.9622C52.6206 94.9622 51.8763 94.2489 51.8763 92.9465C51.8763 91.7758 52.6516 90.954 53.7137 90.954C54.8456 90.954 55.4891 91.7448 55.4891 92.962V93.1325H52.6903C52.7058 93.8613 53.14 94.3342 53.7525 94.3342C54.1866 94.3342 54.5665 94.1249 54.644 93.6442H55.4581C55.3805 94.3575 54.7913 94.9622 53.7447 94.9622ZM52.6981 92.5588H54.644C54.6363 91.9696 54.2874 91.5665 53.7059 91.5665C53.14 91.5665 52.7524 91.9929 52.6981 92.5588ZM57.4112 94.9622C56.7289 94.9622 56.1164 94.528 56.1164 93.807C56.1164 93.0162 56.7367 92.6984 57.4732 92.5976L58.1477 92.4968C58.4423 92.458 58.5431 92.3495 58.5431 92.1402C58.5431 91.8068 58.2795 91.5665 57.8608 91.5665C57.3491 91.5665 57.0623 91.8456 57.039 92.272H56.2172C56.256 91.5355 56.8452 90.954 57.8065 90.954C58.8454 90.954 59.3416 91.5355 59.3416 92.4968V94.8381H58.5896V94.6676C58.5896 94.5513 58.5973 94.4427 58.6051 94.3265C58.4113 94.7063 58.0159 94.9622 57.4112 94.9622ZM56.946 93.7838C56.946 94.1481 57.2328 94.3575 57.5895 94.3575C58.1399 94.3575 58.5586 93.9698 58.5586 93.3961V92.9155C58.4965 92.993 58.357 93.0395 58.1322 93.0783L57.7058 93.1635C57.2639 93.2488 56.946 93.4194 56.946 93.7838ZM61.757 94.9622C60.7181 94.9622 60.0979 94.4117 60.0591 93.5667H60.8654C60.8887 94.0474 61.1988 94.3497 61.7492 94.3497C62.2222 94.3497 62.5323 94.1326 62.5323 93.7993C62.5323 93.5279 62.3229 93.3729 61.8965 93.2876L61.3849 93.1868C60.6406 93.0473 60.1909 92.6829 60.1909 92.0782C60.1909 91.4347 60.8034 90.954 61.695 90.954C62.6486 90.954 63.2378 91.4347 63.2765 92.21H62.4702C62.4315 91.7991 62.1369 91.5665 61.6717 91.5665C61.2686 91.5665 60.9895 91.7448 60.9895 92.0394C60.9895 92.303 61.1755 92.4348 61.6252 92.5201L62.1446 92.6208C62.8501 92.7604 63.323 93.0938 63.323 93.7372C63.323 94.435 62.7261 94.9622 61.757 94.9622ZM65.8054 94.9622C64.6812 94.9622 63.937 94.2489 63.937 92.9465C63.937 91.7758 64.7122 90.954 65.7744 90.954C66.9063 90.954 67.5497 91.7448 67.5497 92.962V93.1325H64.751C64.7665 93.8613 65.2007 94.3342 65.8131 94.3342C66.2473 94.3342 66.6272 94.1249 66.7047 93.6442H67.5187C67.4412 94.3575 66.852 94.9622 65.8054 94.9622ZM64.7588 92.5588H66.7047C66.6969 91.9696 66.3481 91.5665 65.7666 91.5665C65.2007 91.5665 64.813 91.9929 64.7588 92.5588ZM70.1202 94.8381V91.0781H70.9265V94.8381H70.1202ZM70.0892 90.4346V89.543H70.9653V90.4346H70.0892ZM71.9827 94.8381V91.0781H72.789V91.2874C72.789 91.3882 72.7812 91.4812 72.7735 91.5975C72.975 91.2486 73.3782 90.954 73.9286 90.954C74.7814 90.954 75.2854 91.52 75.2854 92.4658V94.8381H74.4791V92.5743C74.4791 91.9464 74.231 91.5897 73.7115 91.5897C73.1533 91.5897 72.789 92.0471 72.789 92.6053V94.8381H71.9827ZM77.7644 94.9002C77.0821 94.9002 76.6169 94.5668 76.6169 93.7295V91.7293H75.8339V91.0781H76.6169V89.7756H77.4232V91.0781H78.276V91.7293H77.4232V93.621C77.4232 94.0396 77.6093 94.2257 77.9737 94.2257C78.0667 94.2257 78.1597 94.2179 78.2605 94.2024V94.8459C78.1442 94.8769 77.9582 94.9002 77.7644 94.9002ZM80.6219 94.9622C79.4978 94.9622 78.7535 94.2489 78.7535 92.9465C78.7535 91.7758 79.5288 90.954 80.5909 90.954C81.7228 90.954 82.3663 91.7448 82.3663 92.962V93.1325H79.5675C79.583 93.8613 80.0172 94.3342 80.6297 94.3342C81.0638 94.3342 81.4437 94.1249 81.5212 93.6442H82.3353C82.2577 94.3575 81.6685 94.9622 80.6219 94.9622ZM79.5753 92.5588H81.5212C81.5135 91.9696 81.1646 91.5665 80.5831 91.5665C80.0172 91.5665 79.6296 91.9929 79.5753 92.5588ZM84.8388 96.5592C83.7844 96.5592 83.1487 95.9855 83.1487 95.1482H83.955C83.9627 95.6212 84.2961 95.9313 84.8543 95.9313C85.4513 95.9313 85.8699 95.5979 85.8699 94.9157V94.4815C85.8699 94.3575 85.8777 94.2412 85.8854 94.1249C85.6761 94.4815 85.2574 94.7451 84.6837 94.7451C83.6759 94.7451 82.9859 94.0318 82.9859 92.8534C82.9859 91.6905 83.7689 90.954 84.676 90.954C85.3195 90.954 85.6761 91.2486 85.8854 91.5975C85.8777 91.4889 85.8699 91.3804 85.8699 91.2641V91.0781H86.6762V94.6831C86.6762 95.9468 85.994 96.5592 84.8388 96.5592ZM83.8154 92.8534C83.8154 93.6054 84.2496 94.1094 84.8698 94.1094C85.4823 94.1094 85.9242 93.5977 85.9242 92.8534C85.9242 92.1169 85.4823 91.5897 84.8698 91.5897C84.2496 91.5897 83.8154 92.1092 83.8154 92.8534ZM87.7304 94.8381V91.0781H88.5367V91.3029C88.5367 91.4502 88.5367 91.5897 88.5212 91.7293C88.715 91.3029 89.0949 90.954 89.6609 90.954C89.7229 90.954 89.7849 90.954 89.8469 90.9695V91.7525C89.7927 91.7448 89.7152 91.7293 89.6066 91.7293C88.9554 91.7293 88.5367 92.0782 88.5367 92.9077V94.8381H87.7304ZM91.5036 94.9622C90.8213 94.9622 90.2088 94.528 90.2088 93.807C90.2088 93.0162 90.8291 92.6984 91.5656 92.5976L92.2401 92.4968C92.5347 92.458 92.6355 92.3495 92.6355 92.1402C92.6355 91.8068 92.3719 91.5665 91.9532 91.5665C91.4415 91.5665 91.1547 91.8456 91.1314 92.272H90.3096C90.3484 91.5355 90.9376 90.954 91.8989 90.954C92.9378 90.954 93.434 91.5355 93.434 92.4968V94.8381H92.682V94.6676C92.682 94.5513 92.6897 94.4427 92.6975 94.3265C92.5037 94.7063 92.1083 94.9622 91.5036 94.9622ZM91.0384 93.7838C91.0384 94.1481 91.3252 94.3575 91.6819 94.3575C92.2323 94.3575 92.651 93.9698 92.651 93.3961V92.9155C92.5889 92.993 92.4494 93.0395 92.2246 93.0783L91.7982 93.1635C91.3562 93.2488 91.0384 93.4194 91.0384 93.7838ZM95.9046 94.9002C95.2223 94.9002 94.7572 94.5668 94.7572 93.7295V91.7293H93.9741V91.0781H94.7572V89.7756H95.5634V91.0781H96.4162V91.7293H95.5634V93.621C95.5634 94.0396 95.7495 94.2257 96.1139 94.2257C96.2069 94.2257 96.3 94.2179 96.4007 94.2024V94.8459C96.2844 94.8769 96.0984 94.9002 95.9046 94.9002ZM98.7621 94.9622C97.638 94.9622 96.8937 94.2489 96.8937 92.9465C96.8937 91.7758 97.669 90.954 98.7311 90.954C99.863 90.954 100.506 91.7448 100.506 92.962V93.1325H97.7077C97.7233 93.8613 98.1574 94.3342 98.7699 94.3342C99.204 94.3342 99.5839 94.1249 99.6614 93.6442H100.475C100.398 94.3575 99.8087 94.9622 98.7621 94.9622ZM97.7155 92.5588H99.6614C99.6537 91.9696 99.3048 91.5665 98.7234 91.5665C98.1574 91.5665 97.7698 91.9929 97.7155 92.5588ZM103.41 94.8381V91.7293H102.682V91.0781H103.41V90.5121C103.41 89.6981 103.899 89.2794 104.55 89.2794C104.752 89.2794 104.914 89.3182 104.992 89.3492V90.0004C104.93 89.9849 104.837 89.9694 104.744 89.9694C104.426 89.9694 104.217 90.1555 104.217 90.4966V91.0781H105V91.7293H104.217V94.8381H103.41ZM107.211 94.9622C106.087 94.9622 105.343 94.2489 105.343 92.9465C105.343 91.7758 106.118 90.954 107.18 90.954C108.312 90.954 108.956 91.7448 108.956 92.962V93.1325H106.157C106.173 93.8613 106.607 94.3342 107.219 94.3342C107.653 94.3342 108.033 94.1249 108.111 93.6442H108.925C108.847 94.3575 108.258 94.9622 107.211 94.9622ZM106.165 92.5588H108.111C108.103 91.9696 107.754 91.5665 107.173 91.5665C106.607 91.5665 106.219 91.9929 106.165 92.5588ZM111.436 94.9622C110.312 94.9622 109.568 94.2489 109.568 92.9465C109.568 91.7758 110.343 90.954 111.405 90.954C112.537 90.954 113.18 91.7448 113.18 92.962V93.1325H110.382C110.397 93.8613 110.831 94.3342 111.444 94.3342C111.878 94.3342 112.258 94.1249 112.335 93.6442H113.149C113.072 94.3575 112.483 94.9622 111.436 94.9622ZM110.389 92.5588H112.335C112.328 91.9696 111.979 91.5665 111.397 91.5665C110.831 91.5665 110.444 91.9929 110.389 92.5588ZM115.521 94.9622C114.529 94.9622 113.792 94.2644 113.792 92.962C113.792 91.7215 114.56 90.954 115.537 90.954C116.141 90.954 116.529 91.2719 116.723 91.5975C116.707 91.4812 116.707 91.3727 116.707 91.2641V89.4112H117.514V94.8381H116.707V94.6521C116.707 94.528 116.707 94.4272 116.723 94.3187C116.544 94.6288 116.149 94.9622 115.521 94.9622ZM114.622 92.962C114.622 93.7915 115.064 94.3342 115.692 94.3342C116.304 94.3342 116.754 93.7838 116.754 92.9542C116.754 92.1247 116.312 91.5897 115.692 91.5897C115.071 91.5897 114.622 92.1479 114.622 92.962ZM120.575 94.9622C120.002 94.9622 119.575 94.6908 119.358 94.3187C119.374 94.4427 119.374 94.5435 119.374 94.6598V94.8381H118.567V89.4112H119.374V91.2641C119.374 91.3804 119.366 91.4889 119.358 91.5975C119.598 91.2331 120.002 90.954 120.575 90.954C121.575 90.954 122.296 91.7603 122.296 92.962C122.296 94.1869 121.591 94.9622 120.575 94.9622ZM119.327 92.962C119.327 93.776 119.769 94.3342 120.397 94.3342C121.033 94.3342 121.467 93.776 121.467 92.962C121.467 92.1557 121.033 91.5897 120.397 91.5897C119.769 91.5897 119.327 92.1247 119.327 92.962ZM124.195 94.9622C123.513 94.9622 122.901 94.528 122.901 93.807C122.901 93.0162 123.521 92.6984 124.257 92.5976L124.932 92.4968C125.226 92.458 125.327 92.3495 125.327 92.1402C125.327 91.8068 125.064 91.5665 124.645 91.5665C124.133 91.5665 123.846 91.8456 123.823 92.272H123.001C123.04 91.5355 123.629 90.954 124.591 90.954C125.63 90.954 126.126 91.5355 126.126 92.4968V94.8381H125.374V94.6676C125.374 94.5513 125.381 94.4427 125.389 94.3265C125.195 94.7063 124.8 94.9622 124.195 94.9622ZM123.73 93.7838C123.73 94.1481 124.017 94.3575 124.374 94.3575C124.924 94.3575 125.343 93.9698 125.343 93.3961V92.9155C125.281 92.993 125.141 93.0395 124.916 93.0783L124.49 93.1635C124.048 93.2488 123.73 93.4194 123.73 93.7838ZM128.789 94.9622C127.681 94.9622 126.905 94.2412 126.905 92.9542C126.905 91.7293 127.743 90.954 128.828 90.954C129.82 90.954 130.448 91.551 130.534 92.4193H129.712C129.665 91.9619 129.363 91.5897 128.82 91.5897C128.185 91.5897 127.727 92.1324 127.727 92.9542C127.727 93.776 128.161 94.3342 128.812 94.3342C129.378 94.3342 129.696 93.9776 129.758 93.4892H130.565C130.464 94.373 129.859 94.9622 128.789 94.9622ZM131.34 94.8381V89.4112H132.146V92.6208C132.231 92.5123 132.34 92.396 132.433 92.303L133.611 91.0781H134.642L133.045 92.6751L134.805 94.8381H133.751L132.503 93.2178L132.146 93.5744V94.8381H131.34ZM137.505 94.8381L136.319 91.0781H137.164L137.916 93.745C137.947 93.8613 137.978 93.9853 138.001 94.1094C138.032 93.9776 138.063 93.8535 138.094 93.745L138.815 91.0781H139.862L140.606 93.745C140.637 93.8535 140.668 93.9698 140.691 94.1016C140.722 93.9698 140.745 93.8535 140.784 93.7372L141.528 91.0781H142.319L141.156 94.8381H140.187L139.427 92.1324C139.404 92.0316 139.373 91.9076 139.342 91.7603C139.319 91.9076 139.288 92.0239 139.249 92.1324L138.497 94.8381H137.505ZM142.946 94.8381V91.0781H143.752V94.8381H142.946ZM142.915 90.4346V89.543H143.791V90.4346H142.915ZM146.313 94.9002C145.63 94.9002 145.165 94.5668 145.165 93.7295V91.7293H144.382V91.0781H145.165V89.7756H145.971V91.0781H146.824V91.7293H145.971V93.621C145.971 94.0396 146.157 94.2257 146.522 94.2257C146.615 94.2257 146.708 94.2179 146.809 94.2024V94.8459C146.692 94.8769 146.506 94.9002 146.313 94.9002ZM147.572 94.8381V89.4112H148.378V91.2564C148.378 91.3649 148.378 91.4734 148.363 91.5975C148.572 91.2331 148.967 90.954 149.518 90.954C150.371 90.954 150.875 91.52 150.875 92.4658V94.8381H150.068V92.5743C150.068 91.9464 149.812 91.5897 149.293 91.5897C148.743 91.5897 148.378 92.0471 148.378 92.6053V94.8381H147.572ZM155.28 94.9622C154.172 94.9622 153.396 94.1869 153.396 92.962C153.396 91.7603 154.179 90.954 155.28 90.954C156.389 90.954 157.172 91.7603 157.172 92.962C157.172 94.1869 156.389 94.9622 155.28 94.9622ZM154.218 92.962C154.218 93.7993 154.629 94.3342 155.28 94.3342C155.932 94.3342 156.35 93.7993 156.35 92.962C156.35 92.1092 155.924 91.5897 155.28 91.5897C154.645 91.5897 154.218 92.1092 154.218 92.962ZM159.315 94.9622C158.501 94.9622 157.966 94.4427 157.966 93.4659V91.0781H158.772V93.3263C158.772 93.9466 159.013 94.3265 159.548 94.3265C160.09 94.3265 160.431 93.9156 160.431 93.2333V91.0781H161.238V94.8381H160.439V94.6443C160.439 94.5358 160.447 94.4195 160.462 94.3187C160.276 94.6986 159.881 94.9622 159.315 94.9622ZM162.29 94.8381V91.0781H163.096V91.3029C163.096 91.4502 163.096 91.5897 163.081 91.7293C163.275 91.3029 163.655 90.954 164.22 90.954C164.283 90.954 164.345 90.954 164.407 90.9695V91.7525C164.352 91.7448 164.275 91.7293 164.166 91.7293C163.515 91.7293 163.096 92.0782 163.096 92.9077V94.8381H162.29ZM166.598 94.8381V91.0781H167.404V94.8381H166.598ZM166.567 90.4346V89.543H167.443V90.4346H166.567ZM169.871 94.9622C168.833 94.9622 168.212 94.4117 168.174 93.5667H168.98C169.003 94.0474 169.313 94.3497 169.864 94.3497C170.337 94.3497 170.647 94.1326 170.647 93.7993C170.647 93.5279 170.437 93.3729 170.011 93.2876L169.499 93.1868C168.755 93.0473 168.305 92.6829 168.305 92.0782C168.305 91.4347 168.918 90.954 169.809 90.954C170.763 90.954 171.352 91.4347 171.391 92.21H170.585C170.546 91.7991 170.251 91.5665 169.786 91.5665C169.383 91.5665 169.104 91.7448 169.104 92.0394C169.104 92.303 169.29 92.4348 169.74 92.5201L170.259 92.6208C170.965 92.7604 171.437 93.0938 171.437 93.7372C171.437 94.435 170.841 94.9622 169.871 94.9622ZM173.687 94.9622C172.648 94.9622 172.028 94.4117 171.989 93.5667H172.796C172.819 94.0474 173.129 94.3497 173.68 94.3497C174.152 94.3497 174.463 94.1326 174.463 93.7993C174.463 93.5279 174.253 93.3729 173.827 93.2876L173.315 93.1868C172.571 93.0473 172.121 92.6829 172.121 92.0782C172.121 91.4347 172.734 90.954 173.625 90.954C174.579 90.954 175.168 91.4347 175.207 92.21H174.401C174.362 91.7991 174.067 91.5665 173.602 91.5665C173.199 91.5665 172.92 91.7448 172.92 92.0394C172.92 92.303 173.106 92.4348 173.555 92.5201L174.075 92.6208C174.78 92.7604 175.253 93.0938 175.253 93.7372C175.253 94.435 174.656 94.9622 173.687 94.9622ZM177.402 94.9622C176.588 94.9622 176.053 94.4427 176.053 93.4659V91.0781H176.86V93.3263C176.86 93.9466 177.1 94.3265 177.635 94.3265C178.178 94.3265 178.519 93.9156 178.519 93.2333V91.0781H179.325V94.8381H178.526V94.6443C178.526 94.5358 178.534 94.4195 178.55 94.3187C178.364 94.6986 177.968 94.9622 177.402 94.9622ZM182.021 94.9622C180.897 94.9622 180.152 94.2489 180.152 92.9465C180.152 91.7758 180.928 90.954 181.99 90.954C183.122 90.954 183.765 91.7448 183.765 92.962V93.1325H180.966C180.982 93.8613 181.416 94.3342 182.029 94.3342C182.463 94.3342 182.843 94.1249 182.92 93.6442H183.734C183.657 94.3575 183.067 94.9622 182.021 94.9622ZM180.974 92.5588H182.92C182.912 91.9696 182.564 91.5665 181.982 91.5665C181.416 91.5665 181.028 91.9929 180.974 92.5588ZM187.696 94.9002C187.014 94.9002 186.548 94.5668 186.548 93.7295V91.7293H185.765V91.0781H186.548V89.7756H187.355V91.0781H188.208V91.7293H187.355V93.621C187.355 94.0396 187.541 94.2257 187.905 94.2257C187.998 94.2257 188.091 94.2179 188.192 94.2024V94.8459C188.076 94.8769 187.89 94.9002 187.696 94.9002ZM188.955 94.8381V91.0781H189.762V91.3029C189.762 91.4502 189.762 91.5897 189.746 91.7293C189.94 91.3029 190.32 90.954 190.886 90.954C190.948 90.954 191.01 90.954 191.072 90.9695V91.7525C191.017 91.7448 190.94 91.7293 190.831 91.7293C190.18 91.7293 189.762 92.0782 189.762 92.9077V94.8381H188.955ZM192.728 94.9622C192.046 94.9622 191.434 94.528 191.434 93.807C191.434 93.0162 192.054 92.6984 192.79 92.5976L193.465 92.4968C193.759 92.458 193.86 92.3495 193.86 92.1402C193.86 91.8068 193.597 91.5665 193.178 91.5665C192.666 91.5665 192.379 91.8456 192.356 92.272H191.534C191.573 91.5355 192.162 90.954 193.124 90.954C194.163 90.954 194.659 91.5355 194.659 92.4968V94.8381H193.907V94.6676C193.907 94.5513 193.915 94.4427 193.922 94.3265C193.728 94.7063 193.333 94.9622 192.728 94.9622ZM192.263 93.7838C192.263 94.1481 192.55 94.3575 192.907 94.3575C193.457 94.3575 193.876 93.9698 193.876 93.3961V92.9155C193.814 92.993 193.674 93.0395 193.449 93.0783L193.023 93.1635C192.581 93.2488 192.263 93.4194 192.263 93.7838ZM197.322 94.9622C196.214 94.9622 195.438 94.2412 195.438 92.9542C195.438 91.7293 196.276 90.954 197.361 90.954C198.353 90.954 198.981 91.551 199.067 92.4193H198.245C198.198 91.9619 197.896 91.5897 197.353 91.5897C196.718 91.5897 196.26 92.1324 196.26 92.9542C196.26 93.776 196.694 94.3342 197.346 94.3342C197.911 94.3342 198.229 93.9776 198.291 93.4892H199.098C198.997 94.373 198.392 94.9622 197.322 94.9622ZM199.873 94.8381V89.4112H200.679V92.6208C200.764 92.5123 200.873 92.396 200.966 92.303L202.144 91.0781H203.175L201.578 92.6751L203.338 94.8381H202.284L201.036 93.2178L200.679 93.5744V94.8381H199.873ZM203.795 94.8381V91.0781H204.601V94.8381H203.795ZM203.763 90.4346V89.543H204.64V90.4346H203.763ZM205.657 94.8381V91.0781H206.463V91.2874C206.463 91.3882 206.456 91.4812 206.448 91.5975C206.649 91.2486 207.052 90.954 207.603 90.954C208.456 90.954 208.96 91.52 208.96 92.4658V94.8381H208.153V92.5743C208.153 91.9464 207.905 91.5897 207.386 91.5897C206.828 91.5897 206.463 92.0471 206.463 92.6053V94.8381H205.657ZM211.608 96.5592C210.554 96.5592 209.918 95.9855 209.918 95.1482H210.724C210.732 95.6212 211.066 95.9313 211.624 95.9313C212.221 95.9313 212.639 95.5979 212.639 94.9157V94.4815C212.639 94.3575 212.647 94.2412 212.655 94.1249C212.446 94.4815 212.027 94.7451 211.453 94.7451C210.445 94.7451 209.755 94.0318 209.755 92.8534C209.755 91.6905 210.538 90.954 211.445 90.954C212.089 90.954 212.446 91.2486 212.655 91.5975C212.647 91.4889 212.639 91.3804 212.639 91.2641V91.0781H213.446V94.6831C213.446 95.9468 212.763 96.5592 211.608 96.5592ZM210.585 92.8534C210.585 93.6054 211.019 94.1094 211.639 94.1094C212.252 94.1094 212.694 93.5977 212.694 92.8534C212.694 92.1169 212.252 91.5897 211.639 91.5897C211.019 91.5897 210.585 92.1092 210.585 92.8534ZM217.594 94.9002C216.912 94.9002 216.446 94.5668 216.446 93.7295V91.7293H215.663V91.0781H216.446V89.7756H217.253V91.0781H218.106V91.7293H217.253V93.621C217.253 94.0396 217.439 94.2257 217.803 94.2257C217.896 94.2257 217.989 94.2179 218.09 94.2024V94.8459C217.974 94.8769 217.788 94.9002 217.594 94.9002ZM220.467 94.9622C219.358 94.9622 218.583 94.1869 218.583 92.962C218.583 91.7603 219.366 90.954 220.467 90.954C221.576 90.954 222.359 91.7603 222.359 92.962C222.359 94.1869 221.576 94.9622 220.467 94.9622ZM219.405 92.962C219.405 93.7993 219.816 94.3342 220.467 94.3342C221.118 94.3342 221.537 93.7993 221.537 92.962C221.537 92.1092 221.11 91.5897 220.467 91.5897C219.831 91.5897 219.405 92.1092 219.405 92.962ZM224.851 94.9622C223.742 94.9622 222.967 94.1869 222.967 92.962C222.967 91.7603 223.75 90.954 224.851 90.954C225.959 90.954 226.742 91.7603 226.742 92.962C226.742 94.1869 225.959 94.9622 224.851 94.9622ZM223.788 92.962C223.788 93.7993 224.199 94.3342 224.851 94.3342C225.502 94.3342 225.92 93.7993 225.92 92.962C225.92 92.1092 225.494 91.5897 224.851 91.5897C224.215 91.5897 223.788 92.1092 223.788 92.962ZM227.575 94.8381V89.4112H228.381V94.8381H227.575ZM229.368 94.8381V93.807H230.399V94.8381H229.368Z" fill="black"/>
<defs>
<filter id="filter0_d_3874_6132" x="11.4585" y="16.4802" width="248.462" height="112.303" filterUnits="userSpaceOnUse" color-interpolation-filters="sRGB">
<feFlood flood-opacity="0" result="BackgroundImageFix"/>
<feColorMatrix in="SourceAlpha" type="matrix" values="0 0 0 0 0 0 0 0 0 0 0 0 0 0 0 0 0 0 127 0" result="hardAlpha"/>
<feOffset dy="4"/>
<feGaussianBlur stdDeviation="8"/>
<feComposite in2="hardAlpha" operator="out"/>
<feColorMatrix type="matrix" values="0 0 0 0 0 0 0 0 0 0 0 0 0 0 0 0 0 0 0.05 0"/>
<feBlend mode="normal" in2="BackgroundImageFix" result="effect1_dropShadow_3874_6132"/>
<feBlend mode="normal" in="SourceGraphic" in2="effect1_dropShadow_3874_6132" result="shape"/>
</filter>
<clipPath id="clip0_3874_6132">
<rect width="154.201" height="18.2676" fill="white" transform="translate(77.4966 63.7559)"/>
</clipPath>
</defs>
</svg>
